<?xml version="1.0" standalone="no"?>
<!DOCTYPE svg PUBLIC "-//W3C//DTD SVG 1.1//EN" "http://www.w3.org/Graphics/SVG/1.1/DTD/svg11.dtd" >
<svg>
<metadata>
Created by FontForge 20110222 at Mon Mar  7 03:40:15 2011
 By www-data
(c) 1999 Nick Curtis. All Rights Reserved. Generated by Fontographer 3.52 
</metadata>
<defs>
<font id="Creampuff" horiz-adv-x="500" >
  <font-face 
    font-family="Creampuff"
    font-weight="400"
    font-stretch="normal"
    units-per-em="1000"
    panose-1="0 0 0 0 0 0 0 0 0 0"
    ascent="800"
    descent="-200"
    x-height="354"
    cap-height="597"
    bbox="-203 -237 1241 797"
    underline-thickness="50"
    underline-position="-55"
    unicode-range="U+0020-25D9"
  />
    <missing-glyph />
    <glyph glyph-name="space" unicode=" " horiz-adv-x="317" 
 />
    <glyph glyph-name="space" unicode="&#xa0;" horiz-adv-x="317" 
 />
    <glyph glyph-name="exclam" unicode="!" horiz-adv-x="413" 
d="M238 37q-2 -30 -25 -46t-51 -22q-9 -2 -18.5 -3t-17.5 -1q-7 0 -13.5 0.5t-13.5 2.5q-31 6 -56.5 25.5t-23.5 54.5q2 33 27 49t54 21q7 1 14 1.5t13 0.5q8 0 17 -1t19 -4q29 -7 53 -26.5t22 -51.5v0zM394 458q0 -41 -23 -72t-51 -58q-2 -3 -4.5 -5.5t-5.5 -4.5
q-37 -38 -70 -78t-61 -87h-51q0 3 0.5 6.5t0.5 6.5q1 21 2 41.5t2 41.5q0 23 -1 47t-4 48q0 2 -0.5 3.5t-0.5 2.5q-3 17 -4.5 35.5t-0.5 47.5q1 51 40.5 82.5t86.5 38.5q7 1 13.5 1.5t12.5 0.5h1.5h1.5q43 -1 79.5 -25t36.5 -73v0z" />
    <glyph glyph-name="quotedbl" unicode="&#x22;" horiz-adv-x="463" 
d="M419 672q22 -15 31.5 -34.5t9.5 -39.5q0 -4 -0.5 -8.5t-1.5 -8.5q-5 -28 -23.5 -54.5t-44.5 -43.5q-34 -24 -74 -34.5t-82 -13.5l-28 51h2h2h10t10 1q25 1 48 6t42 21q5 5 7.5 8.5t1.5 6.5q0 7 -9.5 11.5t-20.5 7.5q-2 1 -3.5 1.5t-3.5 0.5q-10 2 -19.5 6t-18.5 9
q-7 -25 -24 -46t-40 -36q-34 -24 -74 -34.5t-82 -13.5l-28 51h2h2h10t10 1q25 1 48 6t42 21q5 5 7.5 8.5t1.5 6.5q0 7 -9.5 11.5t-20.5 7.5q-2 1 -3.5 1.5t-3.5 0.5t-3.5 0.5t-3.5 1.5q-26 7 -46.5 24t-18.5 47q2 39 35 56t73 17q26 0 50.5 -6.5t40.5 -17.5q5 -2 8.5 -5
t5.5 -7q15 19 41 27.5t55 8.5q26 0 50 -6.5t40 -17.5v0z" />
    <glyph glyph-name="numbersign" unicode="#" 
 />
    <glyph glyph-name="dollar" unicode="$" horiz-adv-x="511" 
d="M488 400q-2 -21 -20 -31t-39 -10h-4h-4q-7 1 -13 2.5t-11 4.5q-3 2 -6 3.5t-6 3.5q-4 1 -7 3t-6 3q4 3 7.5 5t6.5 4q4 4 7 8t4 12v1.5v1.5v0.5v1.5q0 12 -8.5 19t-17.5 12q-2 0 -3.5 0.5t-3.5 1.5l-26 -74q7 -4 13.5 -8.5t13.5 -9.5q45 -29 82 -65.5t37 -91.5
q0 -7 -0.5 -14.5t-2.5 -15.5q-12 -58 -62.5 -89t-108.5 -42q-24 -4 -47 -5.5t-43 -0.5l-43 -125l-34 11l40 118q-8 1 -15.5 3t-15.5 4q-50 13 -90.5 45.5t-37.5 89.5q1 35 27.5 53.5t57.5 17.5q19 -1 31 -7.5t23 -17.5q3 -3 5.5 -6t5.5 -6q-3 -2 -5.5 -4t-5.5 -5
q-8 -6 -14 -13.5t-7 -17.5v-4.5v-4.5q0 -28 16.5 -47.5t41.5 -28.5l54 156l-1.5 1.5t-1.5 0.5q-37 27 -68.5 57t-31.5 77q0 6 1 12t2 13q8 39 43.5 60t76.5 28q18 4 35.5 5t32.5 1l34 100l35 -11l-31 -92q7 -1 14 -2.5t15 -3.5q30 -8 55 -27t25 -52q-1 -1 -1 -3.5v-4.5v0z
M326 139v2t1 3v2v2q-1 21 -12.5 38t-29.5 32l-48 -140h6.5h7.5q26 3 48.5 17.5t26.5 43.5v0zM326 448q-14 -3 -21 -10t-7 -17q0 -3 1.5 -7.5t3.5 -8.5q1 -2 2.5 -4t2.5 -4l18 51v0z" />
    <glyph glyph-name="percent" unicode="%" 
 />
    <glyph glyph-name="ampersand" unicode="&#x26;" horiz-adv-x="842" 
d="M804 255q-1 -3 -2 -6.5t-1 -7.5q-1 -4 -2 -7.5t-2 -6.5q-16 -64 -64 -92t-107 -28h-6h-6q-4 0 -7 0.5t-6 0.5q-47 -68 -119.5 -90.5t-150.5 -25.5q-9 -1 -18 -1h-18q-16 0 -32.5 1.5t-32.5 3.5q-43 6 -83 24t-69 49q-19 20 -29 44.5t-10 50.5q0 11 2 23t6 24
q16 46 58.5 72.5t90.5 40.5q19 6 38 9.5t36 6.5q-25 17 -43.5 42.5t-18.5 56.5q0 7 1.5 14.5t3.5 14.5q15 42 60 65.5t96 33.5q32 6 61.5 8.5t52.5 2.5q17 0 41 -1.5t50 -6.5q40 -8 74.5 -26t42.5 -52q0 -2 0.5 -4t0.5 -4q1 -2 1 -4v-4q0 -28 -24 -44t-53 -18h-2.5h-2.5
q-13 0 -25 3.5t-21 10.5q-1 1 -3 2t-3 2q-2 1 -3.5 2t-2.5 2q-2 1 -3.5 2t-2.5 2l2 2l2 2q10 9 17.5 18.5t8.5 23.5q1 18 -12.5 28.5t-30.5 13.5q-5 1 -9.5 1.5t-9.5 0.5q-8 0 -15.5 -1.5t-15.5 -4.5q-34 -11 -63 -41t-30 -63v-1.5v-1.5q0 -28 20 -42t45 -14h55.5h55.5
l-20 -59h-7.5h-6.5q-44 0 -86 -4t-82 -28q-31 -18 -53 -51t-21 -69q0 -13 4 -26.5t12 -26.5q14 -20 34.5 -29.5t44.5 -9.5q39 0 75 17t62 45q-25 5 -42.5 7t-33.5 2q-12 0 -25 -2t-29 -5q-2 0 -4 -1t-4 -1q-1 -1 -2 -1h-2l-6 -2l-6 -2q0 5 0.5 9t0.5 8q0 5 0.5 9t0.5 8
q9 51 53 77.5t96 32.5q8 1 17 1.5t17 0.5q11 0 20.5 -0.5t19.5 -2.5q31 -5 61.5 -9.5t60.5 -4.5q15 0 30 1.5t29 4.5l29 5v0z" />
    <glyph glyph-name="quotesingle" unicode="'" horiz-adv-x="280" 
d="M219 672q22 -15 31.5 -34.5t9.5 -39.5q0 -4 -0.5 -8.5t-1.5 -8.5q-5 -28 -23.5 -54.5t-44.5 -43.5q-34 -24 -74 -34.5t-82 -13.5l-28 51h2h2h10t10 1q25 1 48 6t42 21q5 5 7.5 8.5t1.5 6.5q0 7 -9.5 11.5t-20.5 7.5q-2 1 -3.5 1.5t-3.5 0.5t-3.5 0.5t-3.5 1.5
q-26 7 -46.5 24t-18.5 47q2 39 35 56t73 17q26 0 50.5 -6.5t40.5 -17.5v0z" />
    <glyph glyph-name="parenleft" unicode="(" 
d="M478 646q-101 -73 -182 -199.5t-104 -263.5q-4 -22 -6 -44.5t-2 -44.5q0 -67 20 -129.5t63 -117.5l-21 -30q-96 42 -154 135.5t-68 197.5q-1 10 -1.5 20.5t-0.5 20.5q1 28 5 55.5t11 52.5q40 134 156.5 234.5t248.5 139.5q5 1 10 2.5t10 2.5l15 -32v0z" />
    <glyph glyph-name="parenright" unicode=")" 
d="M11 -150q103 75 186 204.5t103 270.5q3 19 4.5 39t1.5 39q0 66 -19.5 129t-63.5 118l21 28q96 -41 154 -135.5t67 -200.5q1 -9 1.5 -18.5t0.5 -18.5q0 -28 -4 -55.5t-12 -53.5q-41 -135 -158 -235.5t-250 -138.5l-8 -2l-8 -2l-16 32v0z" />
    <glyph glyph-name="asterisk" unicode="*" horiz-adv-x="304" 
d="M290 627q0 -16 -11.5 -28t-28.5 -12q-7 0 -13.5 4.5t-13.5 9.5q-6 5 -12.5 9.5t-12.5 4.5h-25l12 -21q3 -6 9.5 -9t13.5 -6q1 0 2 -0.5t2 -0.5q11 -4 20 -11t9 -25q0 -17 -11.5 -28.5t-28.5 -11.5q-14 0 -26 9.5t-12 24.5q0 4 0.5 8t1.5 8t1.5 8t0.5 8q0 7 -2.5 13
t-5.5 11l-2 4t-3 4q0 1 -0.5 2t-1.5 2q-1 -2 -2.5 -4.5t-2.5 -4.5q0 -1 -0.5 -1.5l-1.5 -1.5q-3 -6 -5.5 -11.5t-2.5 -12.5q0 -4 0.5 -8t1.5 -8q0 -5 0.5 -9t0.5 -8q0 -18 -12.5 -25t-27.5 -8h-1.5h-1.5q-14 0 -22.5 11t-10.5 24q-1 2 -1 5v5q0 14 9 20t20 10h1h1
q7 3 14 6.5t11 9.5l12 22h-25q-5 0 -9.5 -2.5t-9.5 -5.5q-2 -2 -3.5 -3t-3.5 -3q-6 -5 -13.5 -9.5t-18.5 -4.5t-20 9t-12 20q-1 3 -1.5 5.5t-0.5 5.5q0 16 12 28t28 12q6 0 9.5 -2t7.5 -5q2 -1 4 -3t5 -4q7 -5 18 -9.5t33 -4.5l-13 22q-3 6 -9.5 9t-13.5 5q-1 1 -1.5 1h-1.5
q-11 4 -20 11t-9 25q0 17 12 28.5t28 11.5h1.5h1.5q13 -1 23.5 -10.5t10.5 -23.5q0 -4 -0.5 -8t-0.5 -8q-1 -4 -1.5 -8t-0.5 -8q0 -6 1.5 -11t4.5 -9q1 -3 3 -6l4 -6q0 -1 0.5 -2t1.5 -2q2 4 4.5 8t4.5 8t3.5 9t1.5 11q0 4 -0.5 8t-0.5 8q-1 4 -1.5 8t-0.5 8q0 14 10.5 23.5
t23.5 10.5h1.5h1.5q17 0 28.5 -11.5t11.5 -28.5t-9 -24t-20 -12q-1 0 -2.5 -0.5t-2.5 -0.5q-7 -3 -12.5 -6t-8.5 -8l-13 -22h26q6 0 11.5 3.5t10.5 7.5q1 1 2 1.5t2 1.5q6 5 12.5 9.5t13.5 4.5q16 0 28 -12t12 -28v0z" />
    <glyph glyph-name="plus" unicode="+" 
 />
    <glyph glyph-name="comma" unicode="," horiz-adv-x="280" 
d="M219 110q22 -15 31.5 -34.5t9.5 -39.5q0 -4 -0.5 -8.5t-1.5 -8.5q-5 -27 -23.5 -53.5t-44.5 -43.5q-34 -23 -74 -34t-82 -14l-28 50q1 1 2 1h2h10t10 1q25 1 48 6t42 21q5 4 7.5 8t1.5 7q0 7 -9.5 11.5t-20.5 7.5q-2 1 -3.5 1.5t-3.5 0.5t-3.5 0.5t-3.5 1.5
q-26 7 -46.5 23.5t-18.5 46.5q2 39 35.5 56t73.5 17q26 0 50 -6.5t40 -17.5v0z" />
    <glyph glyph-name="hyphen" unicode="-" horiz-adv-x="225" 
d="M204 267h-166v91h166v-91v0z" />
    <glyph glyph-name="period" unicode="." horiz-adv-x="254" 
d="M238 37q-2 -30 -25 -46t-51 -22q-9 -2 -18.5 -3t-17.5 -1q-7 0 -13.5 0.5t-13.5 2.5q-31 6 -56.5 25.5t-23.5 54.5q2 33 27 49t54 21q7 1 14 1.5t13 0.5q8 0 17 -1t19 -4q29 -7 53 -26.5t22 -51.5v0z" />
    <glyph glyph-name="slash" unicode="/" horiz-adv-x="300" 
d="M-30 -219l329 980h78l-330 -980h-77v0z" />
    <glyph glyph-name="zero" unicode="0" horiz-adv-x="623" 
d="M591 170q-6 -41 -34.5 -76.5t-71.5 -62.5q-44 -26 -94 -39t-101 -15h-8.5h-8.5q-18 0 -36 1.5t-35 4.5q-68 10 -120.5 49.5t-52.5 115.5q0 56 30.5 99t76.5 71q41 26 94 41t109 15q17 0 35.5 -1t37.5 -3q40 -5 77.5 -19t63.5 -41q22 -22 31.5 -50t9.5 -57
q0 -8 -0.5 -16.5t-2.5 -16.5v0zM392 236q0 5 -0.5 10.5t-0.5 11.5q-3 18 -11.5 33.5t-29.5 15.5q-5 0 -11 -1t-11 -4q-11 -4 -22 -12.5t-22 -20.5q-19 -22 -32.5 -51.5t-20.5 -61.5q-4 -14 -5.5 -28t-1.5 -28q0 -6 0.5 -12t1.5 -13q2 -18 11.5 -33.5t29.5 -15.5
q17 0 32.5 10t31.5 28q19 23 33 53.5t21 61.5q4 15 5.5 29t1.5 28v0z" />
    <glyph glyph-name="one" unicode="1" horiz-adv-x="365" 
d="M348 371q-16 -46 -32 -92.5t-32 -92.5q-16 -47 -32 -93t-32 -93h-195q20 62 41.5 123.5t43.5 122.5q1 2 1 3.5t1 2.5q0 3 0.5 6.5t0.5 5.5q0 15 -9 25t-29 10h-29h-30l18 52h52.5h51.5h26h26q32 0 63 3t62 10q6 2 11.5 3t10.5 2q3 1 5.5 1.5t5.5 0.5v0z" />
    <glyph glyph-name="two" unicode="2" horiz-adv-x="559" 
d="M533 256q-3 -45 -42 -69t-85 -35q-24 -5 -47 -8t-41 -5q-28 -2 -55.5 -10.5t-52.5 -22.5q47 -10 94.5 -18.5t96.5 -11.5q20 -1 37.5 3.5t34.5 11.5q3 1 6.5 2.5t6.5 2.5q2 1 4.5 2t5.5 2q-1 -8 -2.5 -16t-3.5 -16q-10 -49 -53.5 -85t-93.5 -37h-2h-2q-49 1 -80 9.5
t-58 19.5q-1 0 -2 0.5t-2 0.5l-6 2t-5 2q-18 7 -36 12.5t-42 7.5q-4 1 -8.5 1h-9.5q-16 0 -32 -2.5t-32 -6.5q2 5 3.5 9.5t2.5 9.5q1 3 1.5 5.5t1.5 4.5q17 50 61 82t93 55q16 8 33 16t32 15l18 9t20 11q22 14 39.5 32.5t16.5 40.5q-1 14 -11.5 21.5t-23.5 10.5
q-5 1 -9.5 1.5t-8.5 0.5q-7 0 -15 -1t-17 -4q-14 -4 -26.5 -11.5t-17.5 -19.5q0 -1 -0.5 -1.5l-0.5 -0.5v-1.5v-1.5q0 -6 7 -10t15 -7q6 -2 11 -3.5t8 -2.5l-4 -6l-4 -6q-7 -11 -15.5 -19t-22.5 -13q-4 -2 -8.5 -3.5t-8.5 -1.5q-4 -1 -8.5 -1.5t-8.5 -0.5q-16 0 -30 6.5
t-24 19.5q-6 8 -9 16.5t-3 18.5v4t1 4q0 2 0.5 4t0.5 4q6 21 26 38.5t50 29.5q29 11 64 17.5t73 6.5q17 0 40 -2t48 -7q46 -10 83.5 -34.5t33.5 -70.5v0z" />
    <glyph glyph-name="three" unicode="3" horiz-adv-x="625" 
d="M596 265q-4 -50 -41.5 -78t-81.5 -42q-9 -3 -18 -5.5t-18 -4.5q55 -12 94 -51.5t37 -98.5q-4 -78 -69 -123.5t-141 -65.5q-35 -9 -68.5 -13t-61.5 -4q-16 0 -34.5 1.5t-37.5 5.5q-48 10 -88 35.5t-40 74.5q0 5 0.5 10.5t1.5 10.5q6 29 30 45.5t52 18.5h3.5h3.5
q19 0 36.5 -7.5t28.5 -23.5q2 -2 3.5 -4t2.5 -4q1 -1 1.5 -2.5t1.5 -2.5l-4 -4t-4 -5q-10 -9 -18 -20.5t-11 -23.5q0 -2 -0.5 -4.5t-0.5 -4.5q0 -9 5 -17.5t18 -15.5q5 -3 10.5 -5.5t11.5 -3.5q5 -2 10.5 -2.5t10.5 -0.5q25 0 48.5 12t41.5 29q22 19 41 52.5t25 68.5
q2 7 2.5 13.5t0.5 13.5q0 15 -3 29t-11 26q-9 15 -22 22.5t-30 7.5h-32.5h-31.5l17 51q11 0 22.5 1.5t22.5 3.5q49 9 88.5 36.5t37.5 83.5q-1 26 -13.5 38t-39.5 12q-3 0 -6.5 -0.5t-6.5 -0.5q-19 -3 -36 -14.5t-23 -29.5q-1 -3 -1.5 -6t-0.5 -5q1 -10 8.5 -15t16.5 -9
q1 0 2 -0.5l1 -0.5q3 -1 5 -2l4 -2q-6 -5 -11.5 -10t-11.5 -9q-14 -11 -29 -17t-35 -6h-6.5t-7.5 1q-25 3 -41 22.5t-16 43.5v4t1 4q0 2 0.5 4t0.5 4q11 37 47.5 57.5t77.5 28.5q24 5 46.5 7t40.5 2q16 0 36 -1.5t40 -5.5q44 -9 80.5 -31.5t36.5 -66.5v-2.5v-2.5
q-1 -2 -1 -3v-3v0z" />
    <glyph glyph-name="four" unicode="4" horiz-adv-x="590" 
d="M564 375q-25 -71 -49.5 -142.5t-48.5 -142.5h88l-22 -64h-89l-80 -235h-197l86 235h-197l-28 64l339 285h198v0zM346 279l-223 -189h153l70 189v0z" />
    <glyph glyph-name="five" unicode="5" horiz-adv-x="668" 
d="M637 401q-7 -38 -18.5 -68.5t-46.5 -54.5q-28 -19 -60.5 -26t-65.5 -7q-9 0 -18.5 0.5t-19.5 0.5q-10 1 -19.5 2t-18.5 2q-10 2 -18 3t-14 0h-7t-5 -1q-29 -5 -41.5 -27t-20.5 -47q0 -2 -1 -4t-1 -4q-2 -5 -3 -9.5t-3 -8.5q26 14 54.5 22t58.5 9q4 1 8.5 1h8.5h6.5h6.5
q33 -2 64.5 -12t58.5 -29q37 -26 53 -58t16 -67v-5.5v-4.5q-4 -54 -43.5 -104.5t-97.5 -75.5q-35 -15 -86.5 -26t-106.5 -13h-7.5h-7.5q-49 0 -94.5 10t-77.5 33q-16 13 -26 31.5t-13 37.5q-1 3 -1 6.5v6.5q0 20 10 38.5t30 29.5q13 7 24.5 10t22.5 3q24 0 45 -12t39 -30
l-3.5 -3.5t-3.5 -2.5q-14 -13 -26 -27.5t-12 -29.5q0 -5 1.5 -9.5t4.5 -9.5t7.5 -9.5t11.5 -9.5q13 -8 26 -12t26 -4h2.5h2.5q40 2 76.5 30t55.5 62q2 2 3.5 4.5t2.5 5.5q7 13 12 27.5t8 29.5q1 8 2 16.5t1 16.5q0 34 -17.5 58.5t-60.5 25.5q-39 1 -63.5 -20.5t-43.5 -51.5
l-46 19l118 341q35 -20 75 -29t81 -9h11.5t10.5 1q45 2 89 12.5t84 25.5v0z" />
    <glyph glyph-name="six" unicode="6" horiz-adv-x="656" 
d="M608 520q5 -6 9 -11.5t6 -11.5t3 -11.5t1 -11.5q0 -30 -26.5 -54.5t-59.5 -32.5q-3 -1 -6.5 -1.5t-7.5 -0.5h-2.5h-2.5q-1 -1 -2.5 -1h-2.5q-6 0 -12 1l-12 2q-17 3 -32 11t-21 22q-1 5 -3.5 9.5t-4.5 8.5q2 1 3.5 1.5t3.5 1.5q1 0 2 0.5t3 0.5q15 6 29 14t21 24
q2 5 3 8.5t1 6.5q-1 13 -13.5 18t-27.5 5q-56 0 -103 -41t-76 -91q-7 -12 -12.5 -23.5t-9.5 -22.5q24 10 50.5 15.5t53.5 5.5q40 0 76.5 -13.5t61.5 -44.5q17 -22 25 -45.5t8 -47.5v-2.5v-3.5q-3 -52 -34 -100.5t-76 -75.5q-33 -20 -71 -31.5t-76 -14.5h-8h-8
q-53 0 -102.5 20.5t-82.5 66.5q-22 31 -32.5 66t-10.5 71v6.5v6.5q3 50 21.5 98.5t48.5 88.5q61 80 154 122t193 42q15 0 31.5 -1t33.5 -4q27 -5 52.5 -15.5t43.5 -29.5v0zM378 220q0 7 -0.5 14t-2.5 15q-4 22 -16 40.5t-37 18.5q-34 0 -61 -28t-45 -62q-8 -15 -14 -30
t-9 -27q-2 -8 -3.5 -16.5t-1.5 -17.5q-1 -4 -1 -8.5v-8.5v-5.5v-5.5q1 -13 4 -25.5t9 -23.5q8 -15 19.5 -21.5t23.5 -5.5q4 0 7.5 0.5t6.5 1.5q16 4 31.5 15t27.5 24q22 24 37.5 56t21.5 65q1 9 2 17.5t1 17.5v0z" />
    <glyph glyph-name="seven" unicode="7" horiz-adv-x="581" 
d="M555 375l-466 -590l-62 44l342 406l-297 -2l50 142h433v0z" />
    <glyph glyph-name="eight" unicode="8" horiz-adv-x="595" 
d="M569 468q0 -42 -31 -73t-67 -52q-11 -5 -21 -10t-19 -9q24 -23 38.5 -55.5t18.5 -66.5q0 -5 0.5 -10.5t0.5 -10.5q0 -12 -1.5 -23.5t-4.5 -22.5q-18 -67 -82 -105.5t-138 -47.5q-11 -2 -22 -2.5t-22 -0.5q-25 0 -48.5 3.5t-43.5 11.5q-41 15 -70.5 48t-29.5 79
q0 58 44 96t96 59q13 5 26 9.5t25 7.5q-21 22 -32.5 49.5t-11.5 57.5q0 11 2 23t6 24q17 48 69.5 78t112.5 39q14 2 27 3t26 1q21 0 40.5 -2.5t35.5 -8.5q30 -10 53 -32.5t23 -56.5v0zM306 118q1 6 1.5 11.5t0.5 10.5q0 29 -13 53.5t-33 47.5q-2 2 -4 4.5t-4 4.5
q-41 -17 -76 -40.5t-54 -67.5q-4 -9 -5.5 -18t-1.5 -19q0 -30 19.5 -53.5t53.5 -23.5q43 0 76 23t40 67v0zM476 442q2 5 3.5 10t1.5 10q1 2 1 5v5q0 19 -10.5 34t-33.5 15q-31 0 -53 -16.5t-33 -46.5q-1 -2 -1.5 -4t-0.5 -4q-1 -3 -1 -5v-4q1 -18 11.5 -35t23.5 -33
q2 -2 3.5 -4t3.5 -4q3 2 6.5 3.5t6.5 3.5q24 13 41.5 28t30.5 42v0z" />
    <glyph glyph-name="nine" unicode="9" horiz-adv-x="665" 
d="M633 148q-7 -123 -99.5 -213t-205.5 -119q-25 -7 -56.5 -11.5t-64.5 -4.5q-46 1 -88.5 11.5t-68.5 39.5q-5 6 -9 11.5t-6 11.5q-3 6 -4 11.5t-1 11.5q1 31 28 55.5t59 32.5q4 1 7 1.5t6 0.5q7 1 16 0t19 -3q16 -3 31 -11.5t20 -21.5q3 -8 5 -11.5t2 -5.5q0 -1 -1 -2
t-3 -2q-2 0 -5 -1t-8 -2q-15 -5 -26.5 -14.5t-16.5 -20.5q-2 -4 -3 -7.5t-1 -7.5q0 -11 9.5 -18t31.5 -7q55 0 102 41t76 91q7 12 13 23.5t10 22.5q-24 -10 -50.5 -16t-53.5 -6q-40 0 -76 14t-62 46q-17 21 -25 44.5t-8 47.5v3.5v2.5q2 53 34 101t76 76q29 19 62 30t66 14
q8 1 16.5 1.5t16.5 0.5q96 0 170 -61t66 -180v0zM463 210q2 10 4 23.5t2 27.5v2.5v2.5q-1 29 -12.5 53t-41.5 24q-35 0 -63.5 -28.5t-46.5 -63.5q-7 -13 -11.5 -26t-7.5 -24q-3 -10 -4.5 -24t-1.5 -29v-2.5v-2.5q1 -30 12.5 -54.5t41.5 -24.5q35 0 63 29t45 63q8 14 13 28
t8 26v0z" />
    <glyph glyph-name="colon" unicode=":" horiz-adv-x="352" 
d="M238 37q-2 -30 -25 -46t-51 -22q-9 -2 -18.5 -3t-17.5 -1q-7 0 -13.5 0.5t-13.5 2.5q-31 6 -56.5 25.5t-23.5 54.5q2 33 27 49t54 21q7 1 14 1.5t13 0.5q8 0 17 -1t19 -4q29 -7 53 -26.5t22 -51.5v0zM308 275q-2 -37 -35.5 -55.5t-73.5 -17.5h-2.5h-2.5q-41 1 -74.5 22
t-30.5 62q1 33 26 49.5t54 20.5q7 1 14 1.5t13 0.5q8 0 17 -1t17 -3q30 -7 55 -27t23 -52v0z" />
    <glyph glyph-name="semicolon" unicode=";" horiz-adv-x="352" 
d="M230 110q22 -15 31.5 -34.5t9.5 -39.5q0 -4 -0.5 -8.5t-1.5 -8.5q-5 -27 -23.5 -53.5t-44.5 -43.5q-35 -23 -75 -34t-81 -14l-29 50q1 1 2 1h2h10t10 1q25 1 48 6t42 21q5 4 7.5 8t2.5 7q-1 7 -10.5 12t-21.5 8q-1 0 -2.5 0.5t-2.5 0.5q-2 0 -4 0.5t-3 1.5
q-26 7 -46.5 23.5t-19.5 46.5q2 39 35.5 56t73.5 17h3.5h3.5q24 -1 46.5 -7.5t37.5 -16.5v0zM336 275q-2 -37 -35.5 -55.5t-73.5 -17.5h-2.5h-2.5q-41 1 -74.5 22t-30.5 62q2 33 27 49t54 21q7 1 14 1.5t13 0.5q8 0 17 -1t19 -4q29 -7 53 -26.5t22 -51.5v0z" />
    <glyph glyph-name="less" unicode="&#x3c;" 
 />
    <glyph glyph-name="equal" unicode="=" 
 />
    <glyph glyph-name="greater" unicode="&#x3e;" 
 />
    <glyph glyph-name="question" unicode="?" horiz-adv-x="707" 
d="M269 37q-2 -37 -35.5 -54.5t-73.5 -17.5q-43 1 -78 21.5t-33 61.5q1 33 26.5 49.5t56.5 20.5q6 1 12.5 1.5t12.5 0.5q8 0 17 -1t19 -4q29 -7 53 -26.5t23 -51.5v0zM673 392q-13 -76 -81 -95.5t-150 -27.5q-5 -1 -10.5 -1.5t-11.5 -0.5q-68 -7 -128.5 -25.5t-80.5 -76.5
l-3 -13h-59q0 2 0.5 3t0.5 3v2.5v2.5v2.5t1 2.5v2.5v2.5q8 48 44.5 75t81.5 51q2 1 4.5 2.5t5.5 2.5q10 5 21.5 10.5t23.5 12.5q33 19 61 46.5t28 65.5q0 30 -22 45.5t-48 19.5q-7 1 -13.5 1.5t-12.5 0.5q-8 0 -16 -1t-17 -2q-28 -6 -54 -23t-36 -44q-2 -5 -3 -9.5t-1 -9.5
q0 -13 9 -21t22 -15q3 -2 6.5 -3.5t6.5 -3.5q-4 -4 -8.5 -7.5t-8.5 -6.5q-17 -14 -35 -23.5t-43 -11.5h-8.5h-8.5q-37 3 -67.5 27.5t-30.5 64.5q0 7 1.5 14.5t4.5 15.5q16 40 89.5 74t239.5 34q32 0 62.5 -2.5t58.5 -6.5q15 -3 32.5 -7t35.5 -10q45 -16 82 -44.5t37 -75.5
q0 -4 -0.5 -8t-1.5 -9v0z" />
    <glyph glyph-name="at" unicode="@" horiz-adv-x="975" 
d="M963 374q-12 -84 -53.5 -158t-104.5 -124q-10 -8 -19.5 -14.5t-19.5 -12.5q-30 -18 -59 -26t-57 -8q-42 0 -68.5 16t-37.5 47q-34 -32 -70.5 -47.5t-74.5 -15.5q-64 0 -103 42t-39 115q0 8 1 17.5t2 19.5q2 14 6 28.5t9 29.5q16 43 45.5 85.5t70.5 78.5q17 14 34 25.5
t34 19.5q29 15 57 22t54 7q32 0 55.5 -10.5t39.5 -30.5l14 34h133l-142 -336q-1 -4 -2.5 -7.5t-2.5 -8.5q-3 -6 -5 -13t-3 -16v-0.5v-1.5v-2v-2q0 -7 3 -10.5t10 -3.5q11 0 29 6.5t37 19.5q59 40 96.5 102.5t48.5 140.5q2 11 2.5 22t0.5 21q0 47 -16 85.5t-48 70.5
q-35 35 -88.5 54.5t-117.5 19.5q-85 0 -158.5 -26.5t-136.5 -79.5q-67 -57 -108 -133.5t-54 -168.5q-2 -16 -3.5 -30.5t-1.5 -28.5q1 -55 19.5 -99t56.5 -82q46 -43 109.5 -65.5t142.5 -22.5q74 0 152 26t169 85l44 -65q-100 -65 -189 -96.5t-176 -34.5h-8.5h-9.5
q-98 0 -174.5 24.5t-131.5 71.5q-58 50 -88.5 117t-30.5 148q0 17 1.5 33.5t3.5 33.5q15 106 72.5 198.5t154.5 163.5q76 57 163 86t181 29q167 0 260.5 -83t93.5 -223q0 -14 -1 -29t-3 -30v0zM603 367q1 5 1.5 10t0.5 9q-1 24 -12 39.5t-31 15.5q-12 0 -22 -4t-20 -12
q-8 -7 -16 -15.5t-17 -19.5q-14 -17 -26.5 -35.5t-23.5 -36.5q-21 -37 -34 -72t-17 -63q-1 -5 -1.5 -10.5t-0.5 -10.5q1 -22 9.5 -34.5t25.5 -12.5q11 0 22 3.5t22 10.5q14 9 29 24t30 35q11 14 20.5 29.5t17.5 30.5q18 32 28.5 63t14.5 56v0z" />
    <glyph glyph-name="A" unicode="A" horiz-adv-x="843" 
d="M931 209q-6 -77 -71.5 -137t-142.5 -70q-6 0 -12.5 -0.5t-12.5 -0.5q-26 0 -50.5 7.5t-47.5 23.5q-36 27 -46.5 64t-15.5 77q-1 3 -1.5 6.5t-0.5 6.5h-168q-11 -15 -24 -31.5t-28 -33.5q-38 -45 -86.5 -82t-100.5 -37h-3.5h-3.5t-3.5 0.5t-3.5 0.5q-47 5 -73 39t-26 77
v3.5t1 2.5v3.5v2.5h0.5h1.5q3 0 7.5 0.5t10.5 1.5v0v0q6 1 10.5 1.5t7.5 0.5q1 -17 14 -26t29 -12q4 0 8 -0.5t8 -0.5q32 0 58.5 14.5t48.5 34.5q74 69 136.5 148t122.5 160q3 4 6.5 9t6.5 9q-1 21 -14 35.5t-33 21.5q-8 3 -17 4.5t-19 0.5q-7 0 -14.5 -1t-15.5 -2
q-46 -10 -85.5 -43.5t-44.5 -77.5v-2.5v-3.5q-1 -1 -1 -2.5v-2.5q1 -34 25 -46.5t52 -16.5l12 -2t12 -1q1 -1 2.5 -1h2.5q-3 -2 -6 -4.5t-6 -5.5q-24 -21 -50.5 -38.5t-61.5 -18.5q-48 -1 -72.5 32t-24.5 75q0 11 2 22.5t6 22.5q24 70 89 108t138 53q32 7 63 10t59 3
q116 0 185 -56.5t77 -175.5q1 -9 1 -18.5t1 -18.5q0 -10 0.5 -21t1.5 -22q2 -33 6 -66t13 -65q4 -14 11.5 -20t16.5 -6q4 0 8 1.5t8 2.5q3 2 7 4.5t8 5.5q16 12 30 32.5t21 48.5l51 -7v0zM519 251q-3 19 -5.5 38t-4.5 38q-3 18 -5 37l-4 38q-19 -33 -42.5 -71.5t-49.5 -79.5
h111v0z" />
    <glyph glyph-name="B" unicode="B" horiz-adv-x="883" 
d="M910 454q0 -47 -34.5 -78t-75.5 -47q-8 -3 -15.5 -5.5t-14.5 -4.5q49 -19 80 -52t30 -84q-1 -46 -29 -80t-66 -56q-37 -21 -83 -33.5t-95 -13.5h-5h-6q-46 0 -91 12t-80 37q-28 -21 -64 -31.5t-73 -12.5q-5 -1 -10 -1h-10q-16 0 -32 1.5t-30 4.5q-13 2 -24.5 6t-22.5 9
q-6 3 -12 6.5t-12 6.5l4 4l4 4q17 17 30.5 35.5t21.5 41.5l26 76t27 77l26 76l26 76q8 22 19.5 43t25.5 40q-13 -4 -27.5 -9t-28.5 -12q-40 -20 -74.5 -50t-45.5 -67q-3 -9 -4 -16.5t-1 -13.5q0 -13 6 -21t17 -15q6 -4 13 -8t15 -9q-4 -4 -7.5 -8t-7.5 -9
q-14 -16 -35.5 -26.5t-43.5 -12.5h-6.5h-6.5q-26 0 -50 12.5t-37 38.5q-4 9 -6.5 19.5t-2.5 22.5q0 14 3 28t10 30q20 45 69.5 83t117.5 66q68 27 150 42.5t168 15.5q88 0 159 -7.5t120 -24.5l6 -2t6 -3q34 -13 61.5 -37t27.5 -64v0zM644 219q0 41 -24.5 65.5t-66.5 24.5
q-4 0 -8.5 -0.5t-8.5 -0.5q-5 -1 -9 -2t-9 -2l-68 -199q13 -11 28 -16t31 -5q24 0 47 9.5t40 24.5q23 20 35.5 46t12.5 55v0zM739 489q0 27 -18.5 35t-42.5 8q-40 0 -69.5 -27t-42.5 -64q-3 -9 -6.5 -18.5t-6.5 -18.5q-4 -9 -7.5 -18.5t-6.5 -18.5h76q47 0 85.5 37.5
t38.5 84.5v0z" />
    <glyph glyph-name="C" unicode="C" horiz-adv-x="563" 
d="M661 201q-61 -109 -149.5 -155t-212.5 -46q-113 0 -200 71.5t-87 192.5q0 80 41.5 147t106.5 110q53 37 121 57t141 20q12 0 23.5 -0.5t23.5 -1.5q41 -3 80.5 -14.5t70.5 -39.5q16 -14 23 -31.5t7 -35.5q0 -37 -27 -67.5t-70 -31.5q-25 -1 -44 8.5t-36 23.5q-4 3 -8 6.5
t-8 7.5q3 1 5.5 2.5t5.5 2.5q20 11 35 23.5t24 36.5q2 4 2.5 7.5t0.5 7.5q0 17 -14 26t-34 9q-54 0 -96 -43t-71 -95q-12 -22 -21.5 -44t-16.5 -40q-8 -22 -15 -50t-8 -56v-5.5v-5.5q0 -37 14.5 -69t53.5 -46q14 -5 28.5 -7.5t29.5 -2.5h7.5t6.5 1q62 4 118 43.5t83 91.5
q1 2 2 3.5t2 3.5q1 1 2 3l2 4l38 -14l20 -8v0z" />
    <glyph glyph-name="D" unicode="D" horiz-adv-x="993" 
d="M994 210q-43 -105 -141.5 -154t-207.5 -54q-7 -1 -14.5 -1h-15.5q-33 0 -65 3.5t-62 10.5q-11 3 -22.5 6t-21.5 6q-5 1 -9.5 3t-9.5 3q-5 -2 -9.5 -4t-9.5 -4q-4 -2 -8.5 -4t-9.5 -4q-35 -13 -78.5 -22.5t-88.5 -11.5q-5 -1 -10.5 -1h-11.5q-35 1 -68.5 7.5t-61.5 20.5
q-25 14 -39 32t-17 37q-1 2 -1 4.5v4.5q1 26 22.5 48t62.5 31q14 3 28 4.5t29 1.5q8 0 15.5 -0.5t15.5 -1.5q24 -2 46.5 -8t42.5 -16q17 46 33 91.5t31 91.5l16 46l16 46q7 23 18 44.5t25 40.5q-14 -4 -29 -10t-30 -14q-38 -19 -71.5 -48.5t-44.5 -65.5q-2 -9 -3.5 -16
t-1.5 -13q1 -13 7 -21.5t18 -16.5q5 -4 12 -7.5t15 -8.5l-4 -4t-3 -4q-22 -23 -45.5 -37t-59.5 -12q-45 2 -68 30t-23 65q0 14 3 28t9 28q39 87 127 131t186 62q50 8 99.5 11.5t92.5 3.5q17 0 34.5 -0.5t35.5 -1.5q64 -3 125.5 -15t110.5 -38q62 -33 89 -85t27 -111
q0 -13 -1 -25.5t-4 -25.5q-3 -19 -8.5 -38.5t-13.5 -37.5v0zM247 99q-16 5 -34 8.5t-36 4.5q-4 1 -8.5 1h-9.5q-14 0 -28 -2t-27 -7q-11 -4 -19.5 -10.5t-11.5 -15.5q-1 -1 -1 -2.5v-3.5q0 -10 10 -15t23 -8q7 -1 13.5 -1.5t11.5 -0.5h12t12 1q26 4 50.5 18t42.5 33v0z
M784 506q-7 17 -19.5 24t-26.5 7h-4.5t-5.5 -1q-12 -2 -23.5 -8.5t-20.5 -15.5q-6 -5 -11.5 -12t-11.5 -16q-11 -17 -22.5 -42t-23.5 -59q-10 -30 -20 -59.5t-20 -58.5q-4 -10 -7 -19.5t-7 -19.5q-7 -20 -13.5 -39.5t-13.5 -39.5q-7 -21 -19 -38.5t-28 -32.5
q14 -4 27.5 -6.5t26.5 -2.5q71 0 123.5 55.5t83.5 121.5q8 17 14 33.5t11 32.5q1 3 2 6.5t2 7.5q5 18 10 39t7 43q1 8 1.5 17t0.5 17q0 18 -2.5 35t-9.5 31v0z" />
    <glyph glyph-name="E" unicode="E" horiz-adv-x="566" 
d="M662 195q-49 -114 -134 -157t-203 -43q-26 0 -58 2.5t-65 10.5q-72 16 -132 56t-60 114q0 68 52.5 112t115.5 59q15 3 29.5 5t28.5 2q-25 15 -41 38.5t-16 52.5q0 5 0.5 9.5t1.5 9.5q13 56 62 84t105 39q27 6 53.5 8t48.5 2q17 0 41.5 -2.5t50.5 -8.5q45 -10 81.5 -33
t36.5 -65v-3.5v-4.5q-4 -32 -26.5 -45.5t-50.5 -12.5h-6.5t-7.5 1q-10 1 -20 3.5t-19 6.5l-16.5 7.5t-7.5 4.5t3.5 6t17.5 13q10 8 14.5 16.5t3.5 15.5q0 17 -17 29.5t-40 12.5q-47 0 -84.5 -29.5t-38.5 -79.5q-1 -41 29 -51.5t65 -10.5h13h13q6 1 12.5 1h12.5h13.5h12.5
l-18 -53h-12.5h-13.5q-31 1 -60.5 -0.5t-58.5 -12.5q-11 -3 -21 -8.5t-21 -12.5q-25 -18 -40 -41.5t-18 -48.5q-1 -4 -1 -7.5v-7.5q0 -34 22 -61.5t67 -35.5q10 -1 19.5 -2.5t18.5 -1.5q68 0 126.5 41t83.5 103l53 -26v0z" />
    <glyph glyph-name="F" unicode="F" horiz-adv-x="846" 
d="M955 514q0 -39 -37.5 -53.5t-81.5 -15.5h-5.5h-5.5q-26 0 -49.5 3t-39.5 6q-2 0 -4.5 0.5t-4.5 1.5q-7 -12 -12 -26l-10 -28q-1 -3 -2 -6.5t-2 -7.5q-3 -6 -5 -12.5t-4 -12.5h107l-19 -53h-107q-27 -79 -62 -148.5t-112 -116.5q-52 -32 -118 -45.5t-146 -13.5
q-18 0 -40.5 2t-45.5 6q-52 10 -95.5 37.5t-43.5 82.5q0 44 28.5 69.5t66.5 25.5q17 -1 34.5 -6.5t33.5 -16.5q-15 -17 -27 -35.5t-11 -37.5q0 -10 5 -20.5t15 -21.5q12 -11 26 -16t28 -5q26 0 50 13.5t41 32.5q27 32 45.5 71t32.5 80q6 16 11.5 32t10.5 31h-91l19 53h90
q21 56 45.5 90.5t52.5 53.5q-19 7 -39.5 10t-41.5 3h-6h-6q-60 -3 -113 -34t-72 -90q-2 -7 -4 -15.5t-2 -17.5q-1 -2 -1 -5v-6v-3v-3q1 -15 6 -29t16 -23q3 -2 6.5 -4.5t6.5 -5.5l2 -2l2 -2q2 -2 4.5 -3.5t4.5 -3.5q-10 -3 -20.5 -6.5t-20.5 -5.5q-10 -3 -20 -4.5t-21 -1.5
q-7 0 -15.5 1.5t-16.5 3.5q-40 13 -63 48.5t-26 75.5v5v6q0 11 1.5 21t4.5 20q12 38 44.5 68.5t77.5 49.5q40 18 86 26.5t93 8.5h8.5h9.5q49 -2 96.5 -12t89.5 -27q23 15 51.5 24t58.5 13q21 3 41.5 4.5t39.5 1.5q14 0 35.5 -1t44.5 -4q36 -6 66.5 -22.5t30.5 -51.5v0z
M900 517q2 3 3 6t1 4q0 7 -8.5 11t-18.5 5q-7 1 -12.5 1h-9.5q-25 0 -48.5 -12.5t-41.5 -29.5q13 -4 30.5 -6.5t36.5 -2.5q21 0 39.5 5.5t28.5 18.5v0z" />
    <glyph glyph-name="G" unicode="G" horiz-adv-x="624" 
d="M683 378q-12 -36 -25 -72.5t-25 -72.5q-13 -37 -26 -73.5t-25 -72.5q-41 -119 -148.5 -191.5t-230.5 -72.5q-21 0 -42 2.5t-42 7.5q-55 13 -82 37.5t-33 51.5q-1 4 -1.5 8.5t-0.5 8.5q1 37 28 65t64 27q17 0 33 -6.5t32 -22.5l4 -4t5 -4q2 -2 4 -4.5t4 -4.5l-9 -4.5
t-10 -5.5q-16 -9 -30 -22t-13 -33v-3.5v-2.5q2 -17 14.5 -25t28.5 -9q13 -1 27.5 4.5t29.5 17.5q5 4 11 9.5t12 11.5q29 31 47 68.5t31 77.5q-15 -5 -30.5 -9t-31.5 -6q-8 -1 -15.5 -1.5t-15.5 -0.5q-50 0 -95.5 20.5t-75.5 65.5q-19 29 -27.5 61t-8.5 65q0 8 0.5 16.5
t1.5 16.5q2 17 6 33.5t9 32.5q32 92 117.5 150.5t180.5 75.5q21 4 41 6t39 2q18 0 48.5 -1.5t63.5 -7.5q48 -8 88.5 -28.5t40.5 -61.5q0 -30 -25 -49.5t-56 -21.5h-2.5h-2.5q-13 1 -25.5 5t-22.5 13q-2 2 -4 3.5t-4 3.5l-1 0.5t-1 1.5q-1 1 -2.5 2t-2.5 2q8 7 15 15t12 16
q5 7 7 14t2 13q0 11 -11 18.5t-38 7.5q-64 0 -120.5 -66.5t-89.5 -147.5q-2 -5 -4.5 -11t-4.5 -12q-1 -2 -1.5 -3.5t-1.5 -3.5q-6 -16 -11.5 -35t-8.5 -38q-2 -10 -3 -20t-1 -19q0 -8 1 -16t3 -16q4 -15 12 -21t18 -6q3 0 7 0.5t7 1.5q10 4 19 10t16 14q15 18 31 50t33 84
l5 15t11 32q5 14 9.5 27t6.5 17h261v0z" />
    <glyph glyph-name="H" unicode="H" horiz-adv-x="905" 
d="M996 182q-19 -41 -43.5 -80.5t-61.5 -68.5q-26 -21 -62.5 -33.5t-74.5 -15.5q-6 -1 -11.5 -1h-10.5q-59 0 -105.5 30t-46.5 101q0 29 8.5 57.5t18.5 56.5q3 8 6 16.5t6 16.5h-111l-91 -261h-260q18 51 35.5 101.5t34.5 101.5q17 50 34.5 101t35.5 102q1 2 1.5 3.5
t0.5 3.5q3 8 5.5 17t3.5 19q1 4 1.5 9t0.5 10q0 19 -9 32t-33 13q-42 0 -79 -38t-51 -84q-3 -10 -4.5 -20t-1.5 -20q0 -28 14.5 -49.5t47.5 -29.5q-15 -27 -34.5 -41.5t-39.5 -18.5q-4 0 -7.5 -0.5t-7.5 -0.5q-37 1 -66.5 30.5t-31.5 82.5q-4 96 83.5 165.5t193.5 86.5
q15 3 30.5 4t30.5 1q53 0 98.5 -17t75.5 -55q17 -22 24.5 -43.5t7.5 -44.5t-6.5 -46.5t-14.5 -48.5h111l77 224h127.5h126.5q-18 -53 -36.5 -106.5t-36.5 -106.5t-36.5 -106.5t-36.5 -107.5q-3 -7 -5.5 -14.5t-2.5 -13.5q0 -5 3.5 -8t11.5 -3q5 0 9.5 1t9.5 4
q15 7 29.5 22.5t26.5 32.5q9 13 15.5 25t10.5 21l2 4l2 4t2 4.5t2 4.5l54 -25v0z" />
    <glyph glyph-name="I" unicode="I" horiz-adv-x="634" 
d="M749 565q-15 -43 -30 -87l-30 -88t-30 -87.5t-30 -87.5q-31 -87 -110.5 -138.5t-169.5 -68.5q-22 -4 -44 -6t-43 -2t-45.5 1.5t-50.5 5.5q-59 9 -108.5 35.5t-49.5 84.5q0 11 2.5 22.5t6.5 24.5q9 26 33 41.5t52 15.5h2h2h4h5q13 -2 25 -6.5t22 -14.5q8 -7 11 -9.5
t3 -4.5t-3.5 -5t-11.5 -8q-13 -11 -21.5 -26t-11.5 -30q0 -4 -0.5 -7t-0.5 -6q0 -18 9.5 -33.5t30.5 -23.5q9 -3 18 -4.5t17 -1.5q47 0 84.5 35t59.5 76q5 10 9.5 20t7.5 19q14 38 26.5 75.5t25.5 74.5q7 19 13.5 38t12.5 38q1 3 2 5.5t2 5.5q2 8 4.5 17t3.5 19q1 5 1.5 10
t0.5 10q0 17 -8 29t-30 12q-48 0 -88.5 -42t-48.5 -93q-1 -6 -1.5 -11.5t-0.5 -10.5q0 -10 1.5 -19.5t5.5 -18.5q9 -22 24.5 -29.5t34.5 -12.5q3 -1 6.5 -1.5t6.5 -1.5q-3 -3 -5.5 -6t-4.5 -6q-19 -20 -40 -34.5t-53 -15.5q-52 -1 -77 36.5t-25 83.5q0 17 3 32.5t9 29.5
q41 100 138.5 140t206.5 42h7.5h6.5q62 0 120.5 -9t105.5 -23v0z" />
    <glyph glyph-name="J" unicode="J" horiz-adv-x="632" 
d="M754 585q-41 -120 -82.5 -240t-82.5 -240q-42 -119 -149 -191.5t-230 -72.5q-21 0 -42 2.5t-42 7.5q-3 1 -6.5 2t-6.5 1q-40 12 -73 37.5t-33 67.5q0 5 1 11l2 12q8 31 33.5 48t54.5 17q18 0 35.5 -6.5t31.5 -20.5l18 -17q-4 -2 -8.5 -4t-9.5 -4q-17 -10 -31.5 -23
t-13.5 -34v-3.5v-2.5q2 -17 15 -25t29 -9q35 -2 65.5 28.5t51.5 67.5q12 19 20 38t13 33q17 48 33.5 95.5t32.5 95.5q17 48 33.5 95.5t32.5 95.5q1 3 2 5.5t2 5.5q2 7 4 15.5t4 16.5q1 6 1.5 12t0.5 11q0 17 -7.5 29t-29.5 12q-48 0 -88.5 -41.5t-49.5 -90.5q-1 -6 -1.5 -12
t-0.5 -12q0 -10 1.5 -19.5t5.5 -18.5q9 -23 24.5 -30.5t35.5 -12.5q3 -1 6.5 -1.5t6.5 -1.5q-3 -3 -6 -6.5t-6 -6.5q-10 -11 -21 -20.5t-25 -16.5q-13 -6 -25 -8.5t-23 -2.5q-42 0 -70.5 32.5t-30.5 80.5q-1 17 2.5 34t10.5 35q39 99 135 138.5t204 42.5h10.5h10.5
q62 0 120 -8.5t105 -22.5v0z" />
    <glyph glyph-name="K" unicode="K" horiz-adv-x="899" 
d="M989 183q-1 -2 -1.5 -3.5t-1.5 -3.5q-19 -47 -46 -91.5t-72 -72.5q-25 -14 -58.5 -22t-68.5 -8h-4h-3q-39 1 -75.5 13.5t-60.5 38.5q-16 18 -25 40.5t-9 46.5q0 7 1 13.5t2 13.5q5 23 7 40t2 30q0 12 -2 20.5t-7 13.5q-7 8 -21 12.5t-35 5.5l-93 -270h-260
q35 101 70 202.5t69 203.5q1 2 1.5 3.5t0.5 3.5q3 8 5.5 17t3.5 19q1 4 1.5 9t0.5 10q0 19 -9 32t-33 13q-41 0 -73 -30.5t-47 -66.5q-2 -5 -4 -9.5t-3 -9.5q-2 -9 -4.5 -20.5t-3.5 -23.5v-5.5v-4.5q0 -22 8.5 -41t30.5 -24q6 -1 10 -2t7 -2t4 -1.5t1 -2.5l-3 -6t-7 -12
q-11 -21 -30.5 -30.5t-40.5 -9.5h-2.5h-3.5q-24 2 -46 14.5t-35 33.5q-5 9 -8.5 17.5t-6.5 17.5q-2 9 -3 17.5t-1 17.5q0 58 39.5 109.5t86.5 81.5q3 2 6.5 4t6.5 4q35 19 80.5 33.5t93.5 17.5q7 1 13.5 1h12.5q51 0 97 -16.5t77 -55.5q17 -22 24.5 -44t6.5 -44
q0 -25 -7.5 -52t-16.5 -55q23 5 44 18t39 29q2 2 11.5 12t20.5 22q1 0 1.5 1t1.5 2q11 12 20 22.5t9 13.5q40 51 86.5 93.5t116.5 42.5h5.5h4.5q38 -4 69 -28.5t30 -63.5v-6t-1 -5q0 -3 -0.5 -6t-1.5 -6q-6 -22 -20.5 -39.5t-30.5 -33.5l-1.5 -1.5l-1.5 -1.5l-2 -2l-2 -2
q-1 2 -1.5 4t-1.5 4q-9 26 -21 44t-39 18q-5 0 -10.5 -0.5t-12.5 -2.5q-38 -9 -67.5 -30t-56.5 -45q-1 -1 -2 -1.5t-2 -1.5q-18 -16 -37 -31t-41 -27q7 -1 14.5 -2.5t14.5 -3.5q36 -10 69 -29.5t49 -54.5q4 -10 9 -24.5t10 -29.5q10 -26 22.5 -47t31.5 -21q23 0 39.5 19.5
t27.5 43.5q6 12 10 24l7 21l52 -19v0z" />
    <glyph glyph-name="L" unicode="L" horiz-adv-x="756" 
d="M849 440q-22 -57 -75 -97.5t-112 -59.5q-10 -3 -20.5 -5.5t-20.5 -4.5q-8 -49 -36.5 -93t-66.5 -76q17 -14 37.5 -19.5t41.5 -5.5q8 0 16 0.5t15 2.5q27 4 52.5 12.5t47.5 18.5q-1 -3 -1.5 -6t-1.5 -6q-1 -6 -2.5 -11.5t-3.5 -12.5q-13 -58 -66 -87t-115 -28h-2.5h-3.5
q-46 1 -89 19.5t-66 55.5q-8 -1 -16 -4.5t-17 -6.5q-4 -2 -9 -4l-10 -4q-23 -7 -54 -11t-63 -4h-9.5h-8.5q-45 2 -86 14t-68 38q-10 11 -16 24t-6 28q0 5 1 10l2 10q13 37 47.5 50.5t76.5 13.5q9 0 17.5 -0.5t17.5 -1.5q30 -3 58 -9t51 -13l12 -4t11 -4l31 87
q-11 0 -22.5 1.5t-23.5 3.5q-47 8 -90.5 30.5t-68.5 64.5q-11 18 -16 36t-5 34q0 50 37.5 84.5t89.5 34.5q14 0 28.5 -3t29.5 -9q11 -4 16.5 -6.5t6.5 -4.5q1 0 1 -0.5v-0.5q-1 -2 -5.5 -6l-13.5 -12q-16 -14 -25.5 -30t-13.5 -33q-1 -6 -1.5 -11.5t-0.5 -10.5
q1 -34 27.5 -60.5t77.5 -25.5q2 6 4 11.5t4 11.5q23 62 51 119t84 100q30 22 72.5 38t88.5 20q7 0 13.5 0.5t12.5 0.5q41 0 77.5 -13.5t60.5 -45.5q13 -16 18.5 -34.5t5.5 -37.5q0 -13 -2.5 -26t-7.5 -26v0zM264 107q-16 11 -35 18t-39 12q-7 2 -16 3t-20 1h-8.5t-8.5 -1
q-20 -2 -37.5 -10t-23.5 -24q-1 -1 -1 -2.5v-3.5q0 -8 7 -14.5t15 -10.5q3 -2 6 -3l6 -2q10 -4 20.5 -5.5t20.5 -1.5h5.5t4.5 1q29 2 56 14t48 29v0zM782 451q1 2 2 5t3 6q2 7 4 15t3 16q1 3 1 6v6q0 12 -6 21t-20 9q-34 0 -58 -34.5t-40 -75.5q-10 -26 -16.5 -50t-10.5 -40
q47 17 79.5 44t49.5 56q3 4 5 8l4 8v0z" />
    <glyph glyph-name="M" unicode="M" horiz-adv-x="1076" 
d="M1172 201q-43 -88 -100.5 -144t-164.5 -56q-73 0 -111.5 38t-38.5 97q0 17 3 35t10 37q15 43 30 85.5t30 85.5l-320 -380q-6 27 -11 54l-10 54q-2 7 -3 14.5t-3 14.5q-11 59 -24.5 117.5t-35.5 113.5q-8 -31 -17.5 -67t-22.5 -73q-33 -92 -91 -167.5t-157 -75.5
q-5 0 -10 0.5t-11 1.5q-39 6 -72.5 33t-32.5 65q0 9 2 18.5t7 19.5q3 7 5 10.5t3 5.5q1 1 2 1.5t2 0.5q2 0 5.5 -3.5t10.5 -8.5q20 -16 41.5 -23t43.5 -7q60 0 111.5 45.5t71.5 104.5q9 26 19 52.5t21 52.5l16 42l16 42q-17 25 -37 39t-39 19q-7 2 -13.5 2.5t-13.5 0.5
q-43 0 -78 -28t-43 -62q-2 -4 -2.5 -8.5t-0.5 -9.5q1 -19 12.5 -35t39.5 -25q15 -5 30 -5.5t30 0.5q3 0 6.5 0.5t7.5 0.5q-1 -1 -1.5 -2.5t-1.5 -2.5q-18 -33 -43.5 -59.5t-68.5 -25.5q-44 1 -65 35t-24 75v6.5v6.5q0 14 2 27.5t6 25.5q31 91 110 132.5t167 49.5
q12 1 23.5 1.5t23.5 0.5q125 0 191.5 -90t81.5 -201q30 33 59.5 66t58.5 66q10 11 19.5 22t19.5 22q20 22 39.5 44t39.5 44q38 1 75.5 0.5t75.5 -0.5h38h38q-12 -35 -24.5 -70.5t-24.5 -71.5q-25 -71 -49.5 -142t-48.5 -142q0 -1 -1 -2.5t-1 -2.5q-3 -7 -5 -13t-2 -11
q0 -4 3.5 -7t13.5 -3q22 0 43 21.5t37 47.5q9 15 16.5 29t11.5 24l54 -25v0z" />
    <glyph glyph-name="N" unicode="N" horiz-adv-x="800" 
d="M1028 564q-85 0 -125.5 -60t-66.5 -134l-129 -379q-26 38 -51 78t-49 80q-2 2 -3.5 5t-3.5 6q-39 65 -80 129t-89 121q-9 -50 -25 -99.5t-33 -98.5q-4 -10 -7.5 -19.5t-6.5 -19.5l-4 -10l-4 -10q-28 -60 -87 -109.5t-126 -49.5q-17 0 -33.5 3.5t-33.5 11.5
q-31 15 -44.5 36t-13.5 45q0 15 4.5 30.5t12.5 31.5q9 -7 17 -13t15 -11q14 -9 29 -14t38 -5q63 -1 115 46t71 104q10 28 20.5 55t20.5 54q9 22 17.5 43.5t16.5 42.5q-19 18 -45.5 30t-54.5 16q-6 1 -12.5 1.5t-12.5 0.5q-43 0 -75.5 -25t-28.5 -81q2 -34 26.5 -46t53.5 -14
h22t21 1q-17 -36 -42.5 -64.5t-71.5 -27.5q-46 2 -67.5 37t-22.5 76v3.5v2.5q0 14 2.5 27.5t6.5 25.5q35 102 125 146.5t200 44.5q112 0 198.5 -79.5t132.5 -174.5q4 -8 8 -16.5t7 -16.5l85 230v-1q12 36 42.5 59.5t67.5 24.5q38 0 52.5 -18.5t20.5 -51.5v0z" />
    <glyph glyph-name="O" unicode="O" horiz-adv-x="770" 
d="M804 346q0 -140 -107 -225t-236 -110q-26 -6 -52.5 -8.5t-52.5 -2.5q-13 0 -26.5 0.5t-27.5 1.5q-107 9 -196 63.5t-89 180.5q0 135 104 220t229 112q27 6 54 9t53 3q12 0 23.5 -0.5t23.5 -0.5q112 -7 206 -59.5t94 -183.5v0zM549 445q0 8 -0.5 17t-2.5 19q-4 23 -16 42
t-38 19q-45 0 -84 -43.5t-67 -96.5q-16 -31 -28 -60.5t-18 -49.5q-12 -40 -18.5 -76t-6.5 -67q0 -52 16.5 -77t41.5 -25q19 1 42.5 15t47.5 40q3 3 6 6.5t6 7.5q33 41 59.5 96.5t42.5 114.5q8 30 12.5 60t4.5 58v0z" />
    <glyph glyph-name="P" unicode="P" horiz-adv-x="821" 
d="M890 381q-24 -70 -90.5 -101.5t-142.5 -40.5q-20 -2 -39.5 -3t-38.5 -1t-38 1.5t-36 2.5q-7 -19 -13.5 -38t-12.5 -37q-7 -19 -13.5 -38t-13.5 -38q-13 -40 -60 -61.5t-101 -25.5q-6 -1 -12.5 -1h-12.5q-31 0 -59 6t-48 17q-2 1 -3.5 2t-3.5 2q-1 0 -1.5 0.5l-1.5 1.5
q-3 1 -5.5 2.5t-5.5 2.5l6 6l6 6q16 16 28.5 33.5t19.5 39.5q26 77 52.5 152.5t52.5 151.5q8 23 19.5 44.5t25.5 40.5q-13 -4 -27.5 -9.5t-28.5 -12.5q-40 -19 -74.5 -49t-45.5 -67q-2 -9 -3.5 -16t-1.5 -13q0 -13 6.5 -21.5t17.5 -16.5q6 -4 12.5 -7.5t14.5 -8.5
q-22 -26 -47 -42.5t-63 -14.5q-45 2 -68.5 29.5t-23.5 64.5q0 14 3 28.5t10 28.5q19 45 68.5 83t117.5 66t150.5 43.5t167.5 15.5q117 0 192 -14.5t115 -40.5q32 -19 46 -44.5t14 -54.5q0 -13 -2.5 -26.5t-7.5 -27.5v0zM731 447q5 12 7.5 22t2.5 19q0 20 -14.5 30.5
t-44.5 10.5q-42 0 -69 -27.5t-40 -64.5q-13 -36 -25 -72l-24 -72q80 8 128 43.5t79 110.5v0z" />
    <glyph glyph-name="Q" unicode="Q" horiz-adv-x="773" 
d="M754 -19q-1 -4 -1.5 -8t-0.5 -9q-2 -11 -3.5 -21.5t-4.5 -21.5q-19 -54 -67.5 -78.5t-102.5 -30.5q-10 -1 -21 -1.5t-21 -0.5q-34 1 -63 5.5t-48 11.5q-23 7 -41.5 17.5t-35.5 21.5q-2 1 -4 2.5t-4 2.5q-1 1 -2.5 2t-3.5 2q-28 18 -61 33.5t-89 20.5l-55 6q6 4 12 7.5
t12 7.5t12.5 7.5t12.5 6.5q24 10 50 15t53 5q20 0 40 -2t40 -6q26 -4 52.5 -10.5t51.5 -13.5q22 -5 42.5 -11t40.5 -10q16 -4 31 -5.5t28 -1.5q21 0 40.5 4.5t38.5 12.5q17 7 35 17.5t37 23.5v-1zM801 350q0 -139 -107 -224t-236 -110q-26 -6 -52.5 -8.5t-52.5 -2.5
q-13 0 -26.5 0.5t-27.5 1.5q-107 9 -196 63.5t-89 179.5q0 135 104 220t229 112q27 6 54 9t53 3q12 0 23.5 -0.5t23.5 -0.5q112 -7 206 -59t94 -184v0zM546 450q0 8 -0.5 17t-2.5 19q-4 23 -15.5 42t-37.5 19q-46 0 -85 -43.5t-67 -96.5q-16 -31 -28 -60.5t-18 -49.5
l-5 -17.5t-6 -24.5q-3 -16 -6.5 -35.5t-4.5 -39.5q-1 -8 -1.5 -16.5t-0.5 -16.5q0 -34 9 -60t33 -34q4 -1 7.5 -1.5t7.5 -0.5q3 0 5.5 0.5t5.5 0.5q19 4 37 17t32 28q7 6 12.5 12.5t9.5 11.5q33 41 59.5 96.5t42.5 114.5q8 30 12.5 60t4.5 58v0z" />
    <glyph glyph-name="R" unicode="R" horiz-adv-x="904" 
d="M994 212q-3 -7 -5.5 -14t-5.5 -14q-19 -44 -45.5 -85t-67.5 -67q-26 -16 -58.5 -24.5t-66.5 -8.5q-66 0 -120 35t-54 111q0 11 2.5 25t5.5 28q1 3 1.5 6t0.5 6q3 12 4.5 23.5t1.5 21.5q0 11 -2.5 19.5t-7.5 15.5q-6 9 -20 13.5t-37 5.5q-13 -38 -26 -75.5t-26 -75.5
q-7 -19 -13 -37.5t-13 -37.5q-13 -38 -58.5 -58.5t-97.5 -23.5q-6 -1 -11.5 -1h-11.5q-31 0 -59.5 6t-48.5 17q-3 2 -5.5 3t-5.5 3l-5 2.5t-6 2.5l6 6l6 6q16 16 28.5 33.5t20.5 39.5q26 77 52.5 152.5t51.5 151.5q8 23 19.5 44.5t25.5 40.5q-13 -4 -27 -9t-28 -12
q-39 -19 -74 -49.5t-46 -67.5q-3 -9 -4 -16.5t-1 -13.5q0 -13 6 -21.5t16 -15.5q6 -4 13 -7.5t15 -8.5q-22 -26 -47 -42.5t-63 -14.5q-45 2 -68.5 29.5t-23.5 64.5q0 14 3.5 28.5t9.5 28.5q20 45 69 83t118 66q68 28 150 43.5t168 15.5h1.5h1.5q26 0 75 -1.5t103 -8.5
q75 -11 137 -39.5t62 -89.5q0 -50 -38.5 -82t-83.5 -47q-13 -4 -25 -7t-23 -5q17 -11 30 -25.5t20 -34.5q4 -11 8.5 -26t9.5 -32q9 -27 21.5 -50.5t31.5 -23.5q8 1 17.5 6.5t20.5 18.5q17 19 26 40.5t17 43.5q0 2 0.5 3.5t1.5 3.5l51 -21v0zM738 485q0 27 -19 35.5t-42 8.5
q-54 0 -80 -36.5t-42 -80.5q-4 -11 -7.5 -22.5t-7.5 -21.5q-1 -2 -1.5 -3.5t-0.5 -2.5h13h13q32 0 62 3t59 24q22 16 37.5 42t15.5 54v0z" />
    <glyph glyph-name="S" unicode="S" horiz-adv-x="685" 
d="M722 462q-7 -25 -28.5 -37t-46.5 -14h-3.5h-3.5q-7 0 -13.5 1t-12.5 2q-7 2 -14 5.5t-14 7.5q-4 2 -7 4t-7 4l10.5 7t8.5 6q6 4 10 10t7 18q1 4 1.5 7.5t0.5 6.5q0 25 -24.5 38.5t-53.5 14.5h-1.5h-1.5q-25 0 -47.5 -10.5t-30.5 -33.5q-1 -4 -2 -7.5t-1 -7.5
q1 -19 15 -35t30 -29q8 -6 15 -11t13 -9t12.5 -9t13.5 -9q48 -36 88.5 -81t40.5 -111q0 -16 -3 -32.5t-9 -35.5q-29 -84 -123 -132t-201 -56q-11 -1 -22 -1.5t-22 -0.5q-61 0 -116.5 14t-96.5 42q-30 20 -47.5 50t-20.5 62q-1 3 -1 6.5v7.5q0 38 22.5 70t68.5 43q8 2 16 2.5
t16 0.5q21 0 40.5 -6.5t32.5 -22.5q6 -7 8.5 -10t2.5 -5v-0.5t-1 -1.5t-4.5 -3t-8.5 -6q-1 -1 -2.5 -2t-3.5 -2q-10 -8 -19.5 -19.5t-11.5 -24.5q-1 -8 -2.5 -16t-1.5 -15q1 -55 42 -82t92 -27h4h4q47 2 88 26t54 72q2 8 3 14.5t1 13.5q0 40 -29.5 70.5t-64.5 58.5
q-1 0 -1.5 0.5l-1.5 1.5l-1.5 1.5t-1.5 0.5q-42 33 -77 70.5t-35 92.5q1 14 3.5 28t7.5 30q19 56 80 86t129 39q17 2 33 3t32 1q20 -1 39.5 -2.5t35.5 -4.5q7 -1 14 -3l14 -4q36 -12 66 -34.5t29 -61.5q0 -5 -0.5 -11t-2.5 -13v0z" />
    <glyph glyph-name="T" unicode="T" horiz-adv-x="842" 
d="M958 525q0 -28 -21 -43t-47 -21q-8 -2 -16 -3t-15 -2q-9 -1 -18 -1.5t-19 -0.5q-16 0 -33.5 1.5t-35.5 5.5q-5 1 -11 2.5t-12 3.5q-3 -5 -5 -10.5t-5 -10.5q-2 -6 -4 -11.5t-4 -10.5q-4 -11 -7.5 -22.5t-7.5 -23.5q-3 -10 -6.5 -20.5t-6.5 -20.5q-28 -82 -66.5 -159
t-115.5 -124q-53 -31 -118.5 -45t-145.5 -14q-19 0 -41 2t-45 5q-53 11 -96.5 39t-43.5 83q0 44 28.5 76.5t65.5 32.5q14 0 28.5 -6t28.5 -18l3.5 -3.5l3.5 -3.5q1 -2 2.5 -3.5l3.5 -3.5q-12 -13 -23 -28.5t-14 -30.5q-1 -4 -1 -7v-6q0 -10 5 -20.5t15 -20.5
q12 -11 26 -16.5t28 -5.5q4 0 7.5 0.5t6.5 0.5q22 4 42 16.5t35 29.5q22 26 43 67t42 101q1 2 1.5 4.5t1.5 5.5q5 15 10 31t11 32q16 49 40.5 95t66.5 74q-10 4 -20.5 6.5t-20.5 4.5t-20.5 3t-20.5 1q-33 -1 -64 -10t-60 -27q-33 -22 -56.5 -56t-23.5 -75q0 -4 0.5 -9
t1.5 -10q3 -17 10.5 -27t17.5 -19q5 -4 9.5 -7.5t9.5 -7.5q-2 -1 -4 -1.5t-3 -0.5q-5 -2 -10 -3.5t-10 -3.5q-13 -4 -26.5 -7t-27.5 -3q-7 0 -15.5 1t-17.5 4q-41 12 -64 49t-25 78v4v4q0 11 1.5 21t4.5 20q12 38 44.5 68t77.5 51q41 17 86.5 25.5t93.5 8.5q53 0 105 -10
t98 -28q23 15 51.5 23.5t58.5 12.5q21 3 41.5 4.5t39.5 1.5q14 0 35.5 -1t44.5 -5q36 -6 66.5 -22t30.5 -50v0zM903 528q2 3 3 5.5t1 4.5q0 7 -8.5 10t-18.5 5q-6 1 -12 1h-10h-4h-4q-23 -3 -44.5 -15.5t-37.5 -26.5q13 -4 31 -7t37 -3q20 0 38.5 6t28.5 20v0z" />
    <glyph glyph-name="U" unicode="U" horiz-adv-x="929" 
d="M1030 204q-20 -41 -44 -80.5t-61 -68.5q-25 -20 -61 -33t-75 -17q-6 0 -12.5 -0.5t-12.5 -0.5q-55 1 -99.5 27.5t-50.5 89.5q-39 -49 -100 -86t-127 -39h-3.5h-3.5q-16 0 -32.5 2.5t-32.5 8.5q-49 19 -72 59t-23 86q0 18 3 36t10 36q10 25 21.5 49t23.5 48q1 3 3 6.5
t3 6.5q14 27 26.5 54t21.5 55q4 11 6 21t2 19q0 23 -14.5 38.5t-46.5 15.5q-55 0 -94.5 -38t-44.5 -91q-1 -4 -1 -7.5v-6.5q0 -35 21.5 -44t51.5 -12q3 0 5.5 -0.5t4.5 -0.5q-3 -3 -6 -6.5t-5 -6.5q-1 -1 -2 -2.5t-2 -2.5q-2 -2 -4 -4.5t-4 -4.5q-17 -20 -35.5 -30.5
t-36.5 -13.5q-5 -1 -9.5 -1.5t-9.5 -0.5q-40 0 -70 30t-30 76q0 14 3 28t10 29q30 70 105.5 111.5t160.5 52.5q16 2 31.5 3t30.5 1q32 0 62.5 -5t56.5 -14q52 -18 83 -54.5t31 -85.5q0 -13 -2.5 -26.5t-7.5 -27.5q-10 -26 -22 -51.5t-25 -50.5q-3 -4 -5 -8l-4 -8
q-2 -5 -9.5 -18.5t-15.5 -30.5q-3 -7 -6.5 -15t-6.5 -15q-6 -15 -9.5 -29.5t-3.5 -25.5q0 -13 6 -20.5t20 -7.5t37.5 15.5t48.5 46.5q3 3 5.5 6t4.5 6q20 25 39.5 58t34.5 75q14 39 27.5 78t27.5 79q1 4 2.5 8.5t2.5 9.5q8 21 15.5 43t14.5 44h127.5h127.5
q-37 -106 -73.5 -212t-73.5 -213q0 -1 -1 -2.5t-1 -2.5q-3 -7 -5 -13t-2 -10q0 -5 4 -8t14 -3q22 0 43 21.5t37 47.5q9 15 16 29t11 24l55 -25v0z" />
    <glyph glyph-name="V" unicode="V" horiz-adv-x="764" 
d="M813 375q-26 -76 -71 -149t-105 -127q-35 -31 -86.5 -58.5t-106.5 -38.5q-14 -2 -28 -3.5t-28 -1.5q-41 0 -78 15.5t-63 53.5q-16 22 -22.5 45t-6.5 46q0 16 3 32.5t8 33.5q9 29 23 58.5t29 57.5q15 29 29.5 56.5t23.5 53.5q4 10 5.5 19t1.5 16q0 22 -15 34t-46 12
q-52 0 -91.5 -35t-43.5 -87q-1 -4 -1 -7.5v-7.5q0 -35 21 -43.5t51 -11.5q2 0 4.5 -0.5t5.5 -0.5q-4 -4 -8 -8.5t-7 -9.5q-2 -2 -3.5 -4.5t-3.5 -4.5q-13 -15 -27.5 -25t-28.5 -15q-9 -3 -18 -4.5t-17 -1.5q-40 0 -70 30.5t-30 76.5q0 13 3 27t9 29q31 71 108.5 112.5
t164.5 52.5q14 1 27.5 2t27.5 1q32 0 62.5 -4.5t56.5 -14.5q52 -18 83.5 -54.5t30.5 -85.5q0 -13 -2.5 -26.5t-7.5 -27.5q-10 -31 -25 -60t-31 -58q-23 -45 -39.5 -80t-20.5 -58v-2v-2q-1 -1 -1 -1.5v-1.5q1 -12 8.5 -18.5t25.5 -6.5q67 0 120 67.5t82 148.5
q15 39 22.5 77.5t7.5 68.5q0 42 -12 67.5t-49 43.5q3 4 5 7.5t5 6.5q12 16 26 26.5t36 9.5h4.5h4.5q4 0 7.5 -1t7.5 -2q14 -3 27 -10.5t22 -19.5q14 -22 20.5 -45.5t6.5 -49.5q0 -9 -1 -19t-3 -19q-3 -20 -8 -39t-11 -37v0z" />
    <glyph glyph-name="W" unicode="W" horiz-adv-x="1164" 
d="M1211 584q16 -23 23 -50t7 -56q0 -24 -4.5 -49t-12.5 -50q-17 -54 -47 -106.5t-63 -94.5q-19 -24 -36.5 -44t-33.5 -34q-54 -47 -118 -74.5t-137 -28.5q-61 0 -109 37t-59 98q-40 -56 -106 -96t-137 -40q-78 0 -119 46.5t-41 110.5q0 17 3 35t10 36q10 26 22 51t24 49
q2 3 3 5t2 5q14 27 26.5 54t22.5 55q4 11 6 20.5t2 18.5q-1 24 -15.5 39.5t-46.5 15.5q-55 0 -94.5 -38t-44.5 -91v-3.5v-3.5q-1 -1 -1 -2.5v-3.5q1 -36 21.5 -45t51.5 -12q3 0 5 -0.5t5 -0.5q-3 -3 -6 -6.5t-5 -6.5q-1 -1 -2 -2.5t-2 -2.5q-2 -2 -4 -4.5t-4 -4.5
q-14 -16 -29 -26.5t-31 -14.5q-7 -3 -14.5 -4t-15.5 -1q-40 0 -70 30t-30 76q0 14 3 28t9 29q31 71 108.5 112.5t164.5 52.5q14 1 27.5 2t27.5 1q32 0 62.5 -4.5t57.5 -14.5q52 -18 82.5 -54.5t30.5 -85.5q0 -13 -2.5 -26.5t-7.5 -27.5q-10 -31 -25 -60t-31 -58
q-2 -5 -9.5 -18.5t-15.5 -30.5q-3 -7 -6.5 -14.5t-6.5 -15.5q-6 -15 -9.5 -29t-3.5 -25q0 -13 6.5 -21t20.5 -8q10 0 20 4t20 11q21 15 42 41t38 55q17 27 29.5 52.5t18.5 40.5q14 37 27 74t25 75q10 28 19.5 56.5t19.5 56.5h257q-28 -82 -56 -163.5t-57 -161.5
q-13 -40 -23 -71t-10 -51q0 -13 8.5 -20t27.5 -7q67 0 120.5 67.5t82.5 148.5q14 39 22 77.5t8 68.5q0 42 -12.5 67.5t-48.5 43.5q2 3 4 5.5t3 5.5q12 17 26.5 28.5t37.5 10.5h4.5h4.5q4 0 8 -1l8 -2q14 -3 26.5 -10.5t20.5 -19.5v0z" />
    <glyph glyph-name="X" unicode="X" horiz-adv-x="834" 
d="M938 243q-26 -103 -107 -174t-191 -71q-99 0 -149.5 51t-77.5 124q-10 -10 -20.5 -21t-21.5 -22q-47 -48 -101.5 -87.5t-124.5 -39.5q-5 0 -9.5 0.5t-9.5 0.5q-43 5 -78 30.5t-35 72.5q0 12 3 24t7 24q1 4 2.5 8t2.5 8q5 -7 9.5 -13.5t9.5 -11.5q19 -23 40.5 -36
t59.5 -13q65 0 117 35t98 77q8 8 16 15.5t16 14.5q-4 16 -7 31.5t-7 30.5q0 2 -0.5 4t-0.5 4q-6 29 -12.5 58t-15.5 58q0 1 -0.5 1.5t-0.5 1.5q-9 31 -22.5 55t-51.5 23q-43 -1 -72 -36.5t-27 -77.5q2 -32 19.5 -43.5t41.5 -11.5q6 0 12.5 0.5t13.5 1.5q6 1 11.5 2.5
t11.5 2.5q3 1 7 1.5t8 1.5q-1 -3 -2.5 -6t-2.5 -6q-3 -5 -5.5 -10.5t-4.5 -11.5q-17 -36 -43.5 -52t-55.5 -16q-44 0 -80 33t-36 85q0 12 2.5 25t7.5 26q30 81 103 123.5t155 51.5q11 1 22 1.5t22 0.5q93 0 144.5 -52.5t81.5 -126.5q14 15 29 32.5t32 35.5q37 41 82 75.5
t97 34.5q45 0 69.5 -25.5t24.5 -58.5q0 -4 -0.5 -9t-2.5 -9q-4 -19 -17 -36t-35 -30l-19 -11q0 1 -0.5 2l-0.5 1q-10 26 -23 43t-44 17q-40 0 -72 -25t-59 -55q-11 -11 -21 -22.5t-19 -21.5q7 -24 13 -49t12 -49q1 -3 1.5 -5t1.5 -4q5 -23 10.5 -45.5t11.5 -44.5
q8 -25 22 -35t32 -10q6 0 12.5 1.5t13.5 3.5q10 3 19.5 7.5t18.5 10.5q35 23 56 55.5t34 70.5l49 -14v0z" />
    <glyph glyph-name="Y" unicode="Y" horiz-adv-x="874" 
d="M996 600q-22 -63 -43.5 -126.5t-43.5 -126.5t-43.5 -126.5t-43.5 -126.5q-47 -139 -169 -210t-262 -70q-28 0 -56.5 3t-56.5 9q-11 2 -24 5.5t-26 8.5q-38 14 -69.5 39t-31.5 68q0 45 32.5 70t71.5 25q22 0 42.5 -8.5t36.5 -27.5l17 -18q-3 -1 -6.5 -2.5t-6.5 -2.5
q-20 -10 -36.5 -23t-16.5 -35v-5t1 -6q3 -19 19 -28.5t34 -11.5q1 -1 2.5 -1h3.5q106 -5 167 68t93 163q1 2 1.5 4t1.5 4q-36 -34 -83.5 -57.5t-97.5 -26.5h-5.5h-4.5q-5 0 -10.5 0.5t-10.5 0.5q-11 2 -21.5 4.5t-20.5 5.5q-51 18 -76 59t-25 88q0 9 1 17.5t3 17.5
q1 9 3.5 17.5t5.5 17.5q9 26 20.5 51t23.5 50q0 1 1 2.5t1 2.5q13 28 26 56.5t23 57.5q3 10 4.5 19.5t1.5 17.5q0 25 -14.5 41t-47.5 16q-54 0 -92.5 -37t-43.5 -89q-4 -49 20 -60t61 -14h0.5h1.5q-6 -7 -11.5 -13.5t-10.5 -12.5q-17 -20 -35.5 -31.5t-36.5 -14.5
q-5 -1 -9.5 -1.5t-9.5 -0.5q-40 1 -70.5 31.5t-30.5 76.5q0 14 3 27.5t9 28.5q30 72 108 113.5t166 50.5q13 1 25 1.5t24 0.5q94 0 165.5 -38.5t71.5 -116.5q0 -13 -2.5 -27.5t-7.5 -29.5q-10 -31 -24.5 -60t-29.5 -58q-3 -5 -9.5 -17t-13.5 -28q-4 -7 -7.5 -15t-6.5 -16
q-5 -13 -8 -25.5t-3 -23.5q0 -13 6.5 -21.5t22.5 -8.5q3 0 5.5 0.5t5.5 0.5q28 6 55 38t49 69q16 28 28 54.5t17 40.5l14 40t31 88l26.5 79.5t16.5 48.5h245v0z" />
    <glyph glyph-name="Z" unicode="Z" horiz-adv-x="742" 
d="M789 499q-33 -33 -65.5 -66.5t-65.5 -67.5q-16 -16 -32.5 -33t-32.5 -33q-49 -51 -98 -101t-99 -100q-10 -10 -14 -19t-4 -17q0 -16 16.5 -26t38.5 -15q11 -2 23 -3.5t25 -1.5h10.5t10.5 1q31 3 59.5 14t49.5 31q12 12 19.5 23t10.5 21q1 4 1.5 8.5t0.5 8.5q0 14 -6 29.5
t-14 34.5q1 0 2.5 -0.5t3.5 -1.5q42 -14 77 -33.5t35 -69.5q0 -6 -0.5 -12t-2.5 -14q-9 -53 -51 -76.5t-90 -27.5q-5 -1 -10.5 -1h-10.5q-57 0 -113 12t-111 27q-5 1 -9.5 2.5t-9.5 2.5q-57 15 -116 20.5t-118 5.5q-24 0 -47.5 -0.5t-47.5 -1.5q53 57 105.5 114t105.5 114
q52 57 105 114t105 114q4 4 6.5 8.5t4.5 9.5q0 2 0.5 4.5t0.5 4.5q0 10 -6 17.5t-20 10.5q-16 4 -33 6t-34 2q-20 0 -40 -3t-39 -11q-3 -1 -6 -2.5t-6 -3.5q-27 -15 -50 -43t-25 -59v-2v-2q0 -7 1.5 -13.5t3.5 -12.5q7 -18 21.5 -26.5t31.5 -14.5q1 -1 2 -1.5t2 -0.5
q1 -1 2.5 -1.5t2.5 -0.5q-3 -3 -6.5 -6t-7.5 -7q-18 -16 -37 -27.5t-46 -10.5q-45 1 -75 36.5t-30 78.5q0 9 1.5 17.5t4.5 16.5q29 84 106 114.5t165 29.5q59 0 114.5 -9t98.5 -21q45 -12 91.5 -19t92.5 -7q14 0 28.5 1t28.5 2l15 -31v0z" />
    <glyph glyph-name="bracketleft" unicode="[" horiz-adv-x="427" 
d="M407 579h-91l-193 -561h78v-36h-182l219 634h169v-37v0z" />
    <glyph glyph-name="backslash" unicode="\" horiz-adv-x="300" 
d="M414 -219h-77l-330 980h78l329 -980v0z" />
    <glyph glyph-name="bracketright" unicode="]" horiz-adv-x="427" 
d="M18 19h91l193 561h-78v36h182l-219 -634h-169v37v0z" />
    <glyph glyph-name="asciicircum" unicode="^" 
 />
    <glyph glyph-name="underscore" unicode="_" horiz-adv-x="800" 
d="M815 -114h-830v76h830v-76v0z" />
    <glyph glyph-name="grave" unicode="`" horiz-adv-x="199" 
d="M184 617q-7 1 -14.5 1t-14.5 1q-14 1 -28.5 2t-29.5 2q-13 2 -25.5 4.5t-21.5 6.5q-14 8 -25.5 23.5t-11.5 32.5q0 4 1 7.5t2 7.5q5 12 17.5 17.5t25.5 5.5q9 0 17 -2t14 -6q8 -4 16 -11t18 -17q14 -14 26.5 -30t24.5 -32q2 -3 4.5 -6.5t4.5 -6.5v0z" />
    <glyph glyph-name="a" unicode="a" horiz-adv-x="593" 
d="M669 175q-37 -79 -88.5 -131.5t-147.5 -52.5h-2.5h-2.5q-32 1 -60.5 14.5t-42.5 44.5q-27 -25 -61.5 -40.5t-70.5 -18.5q-4 -1 -8.5 -1h-9.5q-35 1 -67.5 14t-57.5 44q-19 23 -27.5 48t-8.5 51q0 46 24.5 89t62.5 72q29 22 67 36.5t78 16.5q4 1 8.5 1h8.5q32 0 62 -9.5
t54 -29.5l10 30h97.5h97.5q-6 -18 -12.5 -36.5t-12.5 -36.5q-13 -36 -25.5 -72.5t-24.5 -73.5q0 -1 -1 -2.5t-1 -4.5q-1 -2 -2 -5.5t-1 -6.5q-1 -2 -1 -4v-4q0 -4 1.5 -8t5.5 -5q2 -1 4.5 -1.5t5.5 0.5q6 0 11.5 2.5t11.5 5.5q11 7 22 18t20 23q9 11 15.5 22t9.5 18l2 4l2 4
q0 2 1 4l2 4l52 -23v0zM352 274q0 12 -3.5 19t-17.5 7q-5 0 -10 -1t-10 -3q-19 -8 -38 -28t-34 -43q-11 -16 -19.5 -31.5t-12.5 -26.5q-1 -3 -3.5 -10t-4.5 -16q-2 -7 -4 -14.5t-3 -15.5q-2 -6 -2.5 -13t-0.5 -13q0 -15 5 -25t18 -10q29 0 51.5 24t38.5 53q9 15 15 29t11 25
q12 31 18 54t6 39v0z" />
    <glyph glyph-name="b" unicode="b" horiz-adv-x="545" 
d="M526 170q-18 -82 -85.5 -123t-144.5 -51q-17 -3 -34.5 -4t-34.5 -1q-14 0 -29 1t-31 3q-36 5 -70 18.5t-56 41.5q-13 18 -19.5 38.5t-6.5 42.5q0 6 0.5 12t1.5 12q2 12 5 24.5t7 23.5q30 86 59.5 171.5t58.5 170.5h197l-75 -220q25 16 50.5 24t53.5 8q11 0 22.5 -1.5
t22.5 -4.5q56 -13 85 -52.5t28 -90.5q0 -10 -1.5 -21t-3.5 -22v0zM329 170q1 4 3.5 10t4.5 14q2 7 4.5 16.5t3.5 18.5q1 5 1.5 10.5t0.5 10.5q0 17 -7 28.5t-24 11.5q-22 0 -43 -22.5t-37 -48.5q-11 -17 -18.5 -33t-11.5 -26q-12 -30 -19.5 -55t-6.5 -43q0 -12 6.5 -19
t20.5 -7q32 0 57 26t41 57q8 13 14 26.5t10 24.5v0z" />
    <glyph glyph-name="c" unicode="c" horiz-adv-x="467" 
d="M541 175q-2 -3 -3.5 -6.5t-2.5 -6.5q-23 -47 -51 -83.5t-80 -61.5q-31 -14 -68.5 -21.5t-76.5 -7.5h-6.5h-6.5q-58 3 -111.5 22.5t-87.5 62.5q-18 23 -26.5 46.5t-8.5 47.5q0 46 28 87.5t72 66.5q29 16 71 27.5t86 13.5q6 1 11 1h10q38 0 72 -9t59 -31q12 -12 20 -28.5
t10 -34.5v-3.5v-3.5q0 -13 -4.5 -26t-13.5 -23q-11 -13 -26 -19t-32 -6h-4.5t-5.5 1q-9 1 -18.5 4.5t-17.5 8.5q-13 8 -21 20.5t-10 26.5v2v3q-1 1 -1 2v2q0 23 15 40t37 23q-6 2 -12 3.5t-13 0.5h-5.5t-5.5 -1q-3 0 -5.5 -1t-5.5 -2q-35 -12 -60.5 -49.5t-34.5 -80.5
q-2 -9 -3 -19t-1 -19q1 -39 21 -67.5t66 -28.5q77 0 125 42.5t79 105.5l47 -21v0z" />
    <glyph glyph-name="d" unicode="d" horiz-adv-x="575" 
d="M661 175q-38 -79 -89 -131.5t-146 -52.5q-33 0 -62.5 13t-43.5 45q-28 -30 -65.5 -45t-76.5 -15q-37 1 -71.5 15t-60.5 44q-17 19 -26 40.5t-12 43.5q0 5 -0.5 9.5t-0.5 8.5q0 45 24 87.5t64 72.5q29 22 67 36t78 17h9.5h8.5q33 0 63.5 -9t55.5 -30l77 226h95.5h94.5
l-72 -208l-72 -208q0 -1 -1 -3.5t-1 -5.5q-1 -2 -1.5 -5t-0.5 -5q-1 -2 -1 -4v-4q0 -4 1.5 -8t4.5 -5q2 -1 4.5 -1.5t5.5 0.5q5 0 10.5 2t11.5 5q11 7 22.5 18.5t21.5 23.5q9 11 15.5 22t9.5 18l4 8l4 8l51 -23v0zM321 173q2 4 4.5 11.5t5.5 17.5q3 8 5.5 16.5t3.5 17.5
q2 7 2.5 13.5t0.5 12.5q0 16 -6 26.5t-23 10.5q-3 0 -5.5 -0.5t-5.5 -1.5q-20 -5 -39 -25.5t-35 -44.5q-10 -17 -18.5 -33t-12.5 -26q-1 -3 -3 -8.5t-4 -12.5q-3 -8 -5 -17.5t-4 -19.5q0 -5 -0.5 -10t-0.5 -10q0 -15 6 -26t20 -11q32 0 54.5 23.5t37.5 51.5q7 12 12.5 23.5
t9.5 21.5v0z" />
    <glyph glyph-name="e" unicode="e" horiz-adv-x="459" 
d="M544 175q-25 -50 -56 -91t-86 -67q-33 -15 -69.5 -22t-74.5 -7h-12t-11 1q-24 1 -47 5.5t-45 11.5q-58 20 -95.5 61t-37.5 97q0 14 2.5 28.5t7.5 29.5q20 60 81 93.5t130 42.5q15 2 29.5 3t28.5 1q21 0 41 -2t37 -7q3 -1 5.5 -1.5t5.5 -1.5q29 -8 54.5 -28t26.5 -54
q2 -54 -45 -85t-103 -45q-31 -8 -60 -11t-50 -2q5 -36 27.5 -55.5t59.5 -19.5q75 0 126 42t80 106l50 -23v0zM361 288q0 17 -9 24t-26 8q-37 1 -64 -28t-41 -64q-5 -12 -8 -24t-5 -22q12 1 25 3t26 6q38 10 69.5 33t32.5 64v0z" />
    <glyph glyph-name="f" unicode="f" horiz-adv-x="456" 
d="M516 543q14 -12 22.5 -28t10.5 -33v-4.5v-4.5q0 -26 -16 -47.5t-48 -27.5q-2 0 -4 -0.5t-4 -0.5h-4h-4q-35 0 -57 23t-22 51v3.5v3.5q2 15 11.5 29t28.5 23h-2.5h-3.5q-31 0 -52.5 -29.5t-35.5 -65.5q-9 -23 -16 -45t-11 -35h92l-17 -49h-93l-184 -535h-179l183 535h-59
l18 49h59q3 10 6 19.5t6 18.5q15 44 34 81.5t62 65.5q27 17 66.5 28t80.5 12h4h4q35 0 68 -8.5t56 -28.5v0z" />
    <glyph glyph-name="g" unicode="g" horiz-adv-x="522" 
d="M571 354l-36 -106t-36 -105q-19 -53 -37 -105.5t-36 -105.5q-23 -68 -91.5 -112t-144.5 -54q-10 -1 -19.5 -1.5t-18.5 -0.5q-31 0 -60.5 7t-54.5 22q-23 13 -37.5 35t-18.5 45q-1 5 -1.5 9.5t-0.5 9.5q1 25 16 45t49 26q2 0 4 0.5t5 0.5h4h4q36 0 58 -23t23 -51v-1.5
v-1.5q0 -20 -12.5 -38.5t-39.5 -27.5q2 -1 4.5 -2t5.5 -1q2 -1 4.5 -1.5t4.5 -0.5q52 -1 81 38t47 85q7 19 13 37.5t11 33.5q-13 -6 -27.5 -9.5t-28.5 -5.5q-7 -1 -14 -1.5t-14 -0.5q-64 0 -113 39.5t-49 114.5q0 87 71 149.5t156 70.5q5 0 10.5 0.5t10.5 0.5q29 0 57 -8.5
t53 -25.5l7 20h191v0zM350 267v5t-1 5q-1 7 -4.5 13.5t-11.5 9.5q-1 1 -3 1.5t-3 0.5q-2 1 -3.5 1h-3.5q-9 0 -19 -5t-20 -13q-20 -18 -39.5 -47t-32.5 -60q-10 -22 -15.5 -43.5t-5.5 -38.5q0 -7 1.5 -14t3.5 -12q4 -7 8.5 -10.5t11.5 -3.5q41 0 66.5 36t40.5 80
q10 27 17 52.5t13 42.5v0z" />
    <glyph glyph-name="h" unicode="h" horiz-adv-x="590" 
d="M676 174q-36 -76 -88 -129.5t-146 -53.5q-6 0 -12.5 0.5t-12.5 0.5q-24 3 -46 12t-37 29q-10 14 -14 29t-4 31v8t1 8q2 20 8 40t13 37q1 3 4 10t6 16q2 4 3.5 9t2.5 10q2 7 3.5 14.5t1.5 13.5q0 9 -3.5 14.5t-12.5 5.5q-18 0 -34 -15.5t-27 -33.5q-6 -10 -10.5 -18.5
t-6.5 -15.5q-11 -29 -21 -58.5t-20 -58.5q-7 -20 -13.5 -39.5t-13.5 -39.5h-191l189 550h192l-76 -220q21 11 46.5 19.5t52.5 11.5q5 0 10.5 0.5t10.5 0.5q29 -1 56 -10t46 -31q13 -14 18.5 -30.5t5.5 -33.5q0 -10 -1.5 -19.5t-5.5 -19.5q-3 -10 -6.5 -20.5t-7.5 -21.5
q-4 -10 -7.5 -20.5t-6.5 -21.5l-2 -4t-2 -5l-2 -6t-2 -7q0 -2 -0.5 -5t-0.5 -5q0 -5 2.5 -8.5t9.5 -3.5q5 0 10 1.5t10 4.5q14 7 27 20t24 27q7 10 13 20t9 18l2 4t2 5l2 4l2 4l50 -24v0z" />
    <glyph glyph-name="i" unicode="i" horiz-adv-x="285" 
d="M369 174q-2 -5 -4.5 -9.5t-5.5 -9.5q-16 -32 -35 -62t-46 -54q-25 -22 -58.5 -34t-69.5 -14h-4.5h-4.5q-15 0 -30 2t-29 7q-38 13 -54 40.5t-16 60.5q0 11 1.5 22.5t4.5 23.5q2 6 3.5 11.5t3.5 11.5q16 46 31.5 91.5t31.5 91.5h48.5h49.5h49.5h48.5q-6 -18 -12.5 -36.5
t-12.5 -36.5q-13 -36 -25.5 -72.5t-24.5 -73.5q-3 -7 -5 -14.5t-2 -13.5t4.5 -10t15.5 -3q8 0 20 6.5t25 18.5q18 18 29.5 38t21.5 42q4 -2 8.5 -4t8.5 -4q8 -4 16.5 -7.5t17.5 -8.5v0zM321 443q-6 -19 -22 -31.5t-34 -18.5q-4 -1 -7 -1.5t-6 -1.5q-8 -1 -16.5 -2t-16.5 -1
q-22 0 -44 5.5t-39 18.5q-13 10 -20.5 23.5t-7.5 27.5q0 8 3 16t8 15q14 18 36.5 27t46.5 11h5.5h5.5q11 0 22 -1.5t21 -4.5l6 -2t5 -2q21 -9 38.5 -25t17.5 -39q0 -3 -0.5 -6.5t-1.5 -7.5v0z" />
    <glyph glyph-name="j" unicode="j" horiz-adv-x="355" 
d="M390 354q-37 -106 -73.5 -211.5t-72.5 -210.5q-24 -67 -91 -111t-142 -54q-11 -2 -20.5 -2.5t-19.5 -0.5q-31 0 -60.5 7t-54.5 22q-23 13 -38 35t-19 45q-1 5 -1.5 9.5t-0.5 9.5q0 25 15.5 45t50.5 26q2 0 4 0.5t4 0.5h5h4q36 0 58 -23t23 -51v-1.5v-1.5
q-1 -20 -13 -38.5t-39 -27.5q4 -2 9 -3l10 -2q45 -1 73 30t44 68q2 5 3.5 9.5t3.5 9.5q37 105 73.5 210.5t71.5 210.5h193v0zM436 446q-5 -19 -21 -30.5t-34 -18.5q-3 -1 -6.5 -2t-7.5 -2q-5 -1 -10.5 -1.5t-11.5 -1.5h-5.5h-5.5h-8.5t-9.5 1q-17 2 -34 7.5t-31 15.5
q-13 10 -20.5 23t-7.5 27q0 8 2.5 16.5t8.5 15.5q14 18 36.5 27t46.5 11h5.5h5.5q11 0 22 -1.5t21 -4.5q2 -1 4.5 -1.5t4.5 -1.5q22 -8 40.5 -24t17.5 -40v-4.5t-1 -5.5v-2.5t-1 -2.5v0z" />
    <glyph glyph-name="k" unicode="k" horiz-adv-x="577" 
d="M667 175q-16 -38 -36 -74.5t-53 -63.5q-27 -22 -63 -34t-84 -12q-34 0 -62 8.5t-49 29.5q-22 22 -31.5 50t-13.5 58l-2 22t-1 21q1 0 2.5 0.5t2.5 1.5q8 3 16.5 6t16.5 6q23 9 44 21t34 32q4 6 5.5 11.5t1.5 9.5q-1 9 -7 14.5t-17 5.5h-2h-2q-1 -1 -2 -1h-2
q-29 -5 -51.5 -28.5t-36.5 -50.5q-3 -6 -5.5 -12t-4.5 -12l-64 -184h-191l189 550h191l-75 -219q24 14 52 22.5t56 9.5q4 1 8 1h8q19 0 37 -3t34 -9q26 -8 46 -26.5t20 -47.5q0 -36 -26.5 -60.5t-57.5 -38.5q-7 -3 -14 -5.5t-14 -4.5q-1 -5 -1.5 -11t-0.5 -12q0 -21 9.5 -38
t32.5 -22q2 -1 5 -1h6q5 0 9.5 1t8.5 2q26 8 42 30.5t27 47.5q4 8 7 16l6 16l52 -23v0z" />
    <glyph glyph-name="l" unicode="l" horiz-adv-x="282" 
d="M366 174q-36 -76 -85 -129.5t-143 -53.5q-5 0 -10.5 0.5t-10.5 0.5q-25 3 -49 12.5t-39 30.5q-10 14 -15 31t-5 34q0 4 0.5 7.5t0.5 6.5q2 15 5 29t8 27q33 95 65.5 190.5t64.5 189.5h49.5h49.5h48.5h49.5l-72 -208t-71 -208q-4 -9 -6 -16.5t-2 -12.5q0 -6 5 -9.5
t16 -2.5q8 0 20 6.5t25 18.5q18 18 29.5 38t21.5 42l50 -24v0z" />
    <glyph glyph-name="m" unicode="m" horiz-adv-x="863" 
d="M950 174q-37 -76 -89 -129.5t-146 -53.5q-7 0 -14.5 0.5t-15.5 1.5q-23 3 -44.5 11.5t-35.5 27.5q-10 14 -14 28.5t-4 30.5q0 7 0.5 13.5t1.5 13.5q3 17 8.5 33.5t11.5 31.5q1 3 4 11t7 18q1 4 3 9t3 10q2 8 3.5 15.5t1.5 13.5q0 8 -3.5 13.5t-11.5 5.5q-18 0 -34 -16.5
t-28 -35.5q-6 -11 -11 -21.5t-8 -18.5q-8 -23 -16 -46.5t-16 -46.5q-9 -24 -17 -47.5t-16 -46.5h-198q11 30 21.5 60t21.5 61q10 30 20.5 60t20.5 60q2 6 3 11.5t1 9.5q0 10 -4.5 14t-12.5 4q-5 0 -10.5 -1.5t-10.5 -4.5q-6 -3 -11.5 -7.5t-10.5 -10.5q-15 -17 -32.5 -48.5
t-37.5 -84.5l-6.5 -19t-14.5 -42q-6 -20 -12 -38l-8 -24h-187l121 351h187l-8 -22q23 14 51.5 23.5t57.5 11.5h6h6q14 0 28.5 -2t27.5 -7q21 -7 38 -21.5t24 -37.5q30 32 67.5 49t77.5 17q15 0 30 -2.5t30 -7.5q39 -13 59 -42t20 -65q0 -12 -2 -24t-7 -25q-2 -6 -6 -17
t-8 -23l-2 -6l-2 -6q-4 -14 -7.5 -26.5t-3.5 -20.5v-2.5t1 -3.5q1 -1 3.5 -1h6.5q5 0 10 1.5t10 4.5q14 8 28 23t25 31q10 14 17.5 26.5t11.5 21.5l50 -24v0z" />
    <glyph glyph-name="n" unicode="n" horiz-adv-x="595" 
d="M680 174q-36 -76 -88.5 -129.5t-144.5 -53.5q-6 0 -12 0.5t-12 0.5q-25 3 -48 12t-38 29q-10 14 -14.5 29.5t-4.5 31.5q0 8 1 16t2 15q3 16 8.5 32t10.5 30q1 3 4 10t7 16q1 5 2.5 9.5t3.5 9.5q2 8 3.5 15.5t1.5 13.5q0 8 -3.5 13.5t-11.5 5.5q-10 0 -23 -9.5t-30 -32.5
q-24 -34 -41 -73.5t-32 -80.5q-6 -19 -12 -37.5t-12 -36.5q-1 -2 -2 -4.5t-2 -5.5h-186q30 88 60 175.5t61 175.5h186l-2 -6l-2 -6q-2 -4 -3 -7l-2 -6q23 13 51.5 22.5t58.5 12.5q5 1 10 1h10q29 0 55.5 -9.5t46.5 -31.5q13 -14 19 -31t6 -35q0 -4 -0.5 -9t-1.5 -9
q-1 -5 -2 -9.5t-3 -9.5q-3 -10 -7 -20.5t-7 -21.5q-4 -10 -8 -20.5t-7 -21.5q-1 -2 -2 -5t-2 -7q-1 -2 -2 -4.5t-1 -5.5q-1 -2 -1.5 -5t-0.5 -5q0 -5 3 -8.5t10 -3.5q6 0 11.5 2t11.5 5q12 8 24.5 20.5t22.5 25.5q8 10 14 20t9 18l2 4t2 5q0 2 1 4l2 4l50 -24v0z" />
    <glyph glyph-name="o" unicode="o" horiz-adv-x="577" 
d="M668 173q-6 -12 -14 -28.5t-18 -33.5q-19 -33 -46.5 -60.5t-64.5 -27.5q-15 0 -28.5 4.5t-25.5 11.5q-39 -32 -91.5 -50t-107.5 -21h-8.5h-9.5q-52 0 -100 15.5t-84 46.5q-29 26 -42 55.5t-13 59.5q0 47 28 90t74 73q40 26 90 41t103 15q8 0 15.5 -0.5t15.5 -0.5
q43 -4 84 -18.5t72 -43.5q27 -24 41 -54.5t14 -63.5q0 -12 -2 -24t-6 -24q14 2 24.5 7.5t20.5 17.5q6 6 12 15.5t13 21.5l54 -24v0zM383 256q-1 31 -11.5 44.5t-26.5 13.5q-10 0 -22 -5.5t-24 -15.5q-5 -4 -9.5 -9t-9.5 -10q-23 -27 -37 -61.5t-20 -70.5q-1 -12 -2 -23.5
t-1 -22.5q0 -6 0.5 -15t2.5 -18q3 -17 10.5 -30.5t23.5 -13.5q25 0 44.5 17.5t31.5 39.5q3 5 6 9.5t5 9.5q-16 11 -24.5 27.5t-8.5 35.5v4v3q3 30 22.5 56.5t49.5 34.5v0z" />
    <glyph glyph-name="p" unicode="p" horiz-adv-x="599" 
d="M681 173q-37 -76 -89 -129t-144 -53q-6 0 -12.5 0.5t-12.5 0.5q-25 3 -48 11.5t-38 28.5q-10 14 -14 29t-4 31v8t1 9q2 18 7.5 36.5t11.5 35.5q1 2 1.5 3.5t1.5 3.5q1 3 4 9.5t6 14.5q2 5 3.5 9.5t3.5 9.5q2 7 3 14t1 13q0 8 -3.5 13t-11.5 5q-20 0 -39 -23t-33 -51
q-10 -19 -17.5 -37t-10.5 -28q-16 -46 -32.5 -91.5t-31.5 -91.5q-4 -9 -7 -18.5t-6 -18.5q-13 -37 -25.5 -73.5t-25.5 -73.5l-187 -1q21 58 40.5 115t38.5 114q10 27 19.5 55.5t19.5 57.5q30 85 59.5 170.5t59.5 170.5h186l-43 -123q23 12 52.5 21t59.5 11h5.5h5.5
q29 0 56 -9.5t46 -31.5q13 -14 18.5 -30.5t5.5 -33.5q0 -10 -1.5 -19.5t-5.5 -19.5q-3 -10 -6.5 -20.5t-7.5 -21.5q-1 -3 -2.5 -6.5t-2.5 -7.5q-2 -7 -4.5 -14t-4.5 -14l-2 -4t-2 -5q-1 -2 -1.5 -4.5t-1.5 -5.5t-1.5 -6t-0.5 -6q0 -5 2.5 -8.5t9.5 -3.5q5 0 9.5 1t9.5 4
q14 6 27.5 19.5t23.5 27.5q8 11 14 21t9 17l2 4l2 4l2 4t1 4l51 -23v0z" />
    <glyph glyph-name="q" unicode="q" horiz-adv-x="527" 
d="M567 354q-17 -49 -33.5 -97.5t-33.5 -97.5q-34 -97 -67.5 -194.5t-66.5 -194.5l-188 -1l81 235q-18 -7 -37 -11t-39 -4q-37 0 -72 14.5t-61 44.5q-20 23 -29.5 49t-9.5 52q0 45 24 87.5t64 72.5q28 21 63.5 35t73.5 18q6 0 12.5 0.5t12.5 0.5q29 0 57.5 -8t52.5 -25l9 24
h187v0zM349 261q0 2 -0.5 4.5t-0.5 4.5q-1 8 -4.5 15.5t-11.5 10.5q-3 2 -6.5 2.5t-7.5 0.5t-8 -1l-8 -2q-17 -7 -34 -26t-31 -40q-12 -19 -21 -36.5t-13 -26.5q-5 -10 -9 -23t-7 -27q-1 -6 -1.5 -12t-0.5 -12q0 -7 1 -14t4 -13q4 -7 10.5 -10.5t13.5 -3.5q4 0 8 0.5t8 2.5
q7 2 13.5 5.5t12.5 6.5q3 2 5 3.5t4 3.5q4 4 7.5 8t7.5 9q6 6 11 14t9 17q7 17 13 34.5t12 35.5q1 3 2.5 6.5t2.5 6.5q5 14 9.5 28t9.5 28v0z" />
    <glyph glyph-name="r" unicode="r" horiz-adv-x="578" 
d="M590 305q2 -6 2 -12v-11q0 -37 -22.5 -58.5t-49.5 -21.5h-1.5h-1.5q-21 0 -40 14t-27 45q-3 9 -7.5 13.5t-10.5 3.5q-10 0 -22.5 -11.5t-26.5 -31.5q-24 -31 -41 -69t-30 -77q-6 -17 -11 -33t-11 -32l-4 -12l-4 -12h-185l83 232q2 4 2 7v5q0 11 -8.5 14.5t-19.5 2.5
q-26 -3 -46 -24t-33 -45q-3 -5 -6 -11t-5 -11l-50 20q26 68 76.5 122.5t126.5 58.5q7 1 14.5 1t15.5 -1q33 -2 63.5 -16.5t48.5 -43.5q22 16 46.5 30t50.5 22q12 4 23.5 5.5t22.5 1.5q15 0 29.5 -4t27.5 -12q13 -9 20.5 -22t10.5 -27v0z" />
    <glyph glyph-name="s" unicode="s" horiz-adv-x="419" 
d="M403 175q5 -83 -54 -126.5t-130 -50.5q-9 -1 -17.5 -1.5t-16.5 -0.5q-10 0 -21 0.5t-22 2.5q-29 3 -56.5 14t-47.5 32q-14 17 -20.5 36t-6.5 39q0 11 1.5 22t4.5 22q7 26 28 40.5t46 13.5h5.5h4.5t4.5 -0.5t5.5 -1.5l89 124l189 48q3 -53 6.5 -106.5t7.5 -106.5v0z
M218 263l-60 -80q6 -8 8.5 -17.5t2.5 -19.5t-3 -19t-9 -17q-10 -15 -27 -23.5t-35 -8.5h-2.5h-2.5t-2.5 0.5t-2.5 0.5q7 -10 18 -17.5t24 -7.5q41 0 65.5 22t24.5 65q1 31 1 61.5v60.5v0z" />
    <glyph glyph-name="t" unicode="t" horiz-adv-x="276" 
d="M360 174q-2 -5 -4.5 -9.5t-4.5 -9.5q-16 -32 -35 -62t-46 -54q-25 -22 -59.5 -35t-79.5 -13h-3.5h-2.5q-28 1 -53.5 11t-41.5 34q-10 15 -14.5 32t-4.5 35q0 5 0.5 9.5t1.5 9.5q2 14 5.5 28t7.5 27q6 16 11.5 32t10.5 33q5 16 10.5 32t11.5 32h-43l17 48h43q5 15 10 29.5
t11 29.5q5 14 10 28.5t10 29.5q33 5 66 9.5t66 9.5q16 2 33 4.5t33 4.5q-6 -18 -12.5 -36t-12.5 -36t-12.5 -36.5t-12.5 -36.5h54l-18 -48h-53q-7 -21 -14.5 -42.5t-14.5 -43.5q-8 -22 -15 -43.5t-15 -42.5q-2 -7 -3.5 -13.5t-1.5 -11.5q0 -9 4 -12.5t11 -3.5q6 0 13.5 3
t15.5 8q4 3 8.5 6t8.5 7q19 17 31 38t22 43l51 -24v0z" />
    <glyph glyph-name="u" unicode="u" horiz-adv-x="553" 
d="M640 178q-1 -2 -2.5 -4.5t-2.5 -5.5q-17 -34 -37.5 -67t-49.5 -58q-28 -23 -62.5 -35.5t-79.5 -12.5q-43 0 -75 20t-39 65q-34 -36 -79.5 -61t-97.5 -25q-54 0 -79.5 32.5t-25.5 75.5q0 15 3 30t8 29q9 25 17.5 49.5t16.5 48.5q8 25 16.5 49.5t17.5 48.5h190
q-10 -28 -19.5 -56t-18.5 -56q-10 -28 -19.5 -56t-19.5 -56q-1 -4 -2.5 -8.5t-1.5 -8.5q0 -6 3.5 -10t12.5 -4q10 0 24.5 7.5t31.5 28.5q22 25 37.5 58.5t28.5 68.5q5 16 10.5 32.5t11.5 32.5q1 4 2.5 7.5t2.5 7.5q0 2 0.5 3.5t1.5 2.5q0 1 0.5 1.5l0.5 0.5q0 1 0.5 2t0.5 2
h31.5h31.5h62.5h63.5q-10 -27 -19.5 -54.5t-18.5 -54.5q-9 -28 -18.5 -55.5t-19.5 -54.5q-3 -8 -4 -14.5t-1 -11.5q0 -8 3.5 -11.5t9.5 -3.5t13 3t15 7l10 8l10 8q19 17 31 36.5t22 42.5l51 -24v0z" />
    <glyph glyph-name="v" unicode="v" horiz-adv-x="430" 
d="M512 176q-7 -19 -17 -35t-27 -30q-13 -11 -28.5 -18.5t-32.5 -10.5q-4 0 -8 -0.5t-8 -0.5q-16 0 -31.5 6.5t-27.5 20.5q-41 -46 -93.5 -80t-117.5 -34q-56 0 -84.5 34t-28.5 80q0 7 0.5 13.5t1.5 13.5q1 6 3 12.5t4 13.5q17 50 34.5 98.5t33.5 97.5h190
q-19 -55 -38 -111.5t-39 -112.5q-1 -4 -2 -7.5t-1 -7.5q0 -9 4.5 -16t14.5 -7q21 0 40.5 16t33.5 35q6 8 10.5 15.5t8.5 13.5q-1 8 -1.5 16t-0.5 16q0 6 0.5 13t0.5 13q3 26 11 51.5t21 45.5q1 1 1.5 2.5t1.5 2.5q9 12 20 21.5t24 9.5h4t3 -1q16 -4 23.5 -17.5t9.5 -28.5
q1 -4 1 -7.5v-7.5q0 -39 -16.5 -76.5t-36.5 -69.5q-1 -3 -2.5 -5t-2.5 -4q3 -3 6.5 -5t7.5 -4q4 -1 7.5 -1.5t6.5 -0.5q18 0 33.5 14.5t25.5 32.5q1 3 3 7t3 7l51 -23v0z" />
    <glyph glyph-name="w" unicode="w" horiz-adv-x="707" 
d="M793 176q-7 -18 -17.5 -34.5t-26.5 -30.5q-14 -12 -31 -19.5t-34 -9.5q-3 -1 -6 -1h-6q-16 0 -31.5 6.5t-27.5 20.5q-41 -46 -93.5 -80t-117.5 -34q-40 0 -71 22t-40 62q-34 -37 -78 -60.5t-97 -23.5q-54 0 -79.5 32.5t-25.5 75.5q0 15 3 30t8 29q9 25 17.5 49.5
t16.5 48.5q8 25 16.5 49.5t17.5 48.5h190q-10 -28 -19.5 -56t-18.5 -56q-10 -28 -19.5 -56t-19.5 -56q-2 -5 -3 -9.5t0 -7.5q0 -7 4 -10.5t11 -3.5q5 0 10.5 1.5t10.5 3.5q7 3 13 7t11 9q28 25 45.5 62.5t30.5 77.5q6 16 10.5 32t9.5 32q2 8 4.5 15.5t5.5 14.5h190
q-10 -28 -19.5 -56t-18.5 -56q-10 -28 -19.5 -56t-19.5 -56q-1 -4 -2 -7.5t-1 -7.5q0 -9 4.5 -16t14.5 -7q21 0 40 16t34 35q5 8 10 15.5l9 13.5q-1 8 -1.5 16t-0.5 16q0 6 0.5 13t0.5 13q3 26 11 51.5t21 45.5q1 1 1.5 2.5t1.5 2.5q8 12 19.5 21.5t25.5 9.5h1.5h1.5
q1 -1 1.5 -1h1.5q16 -4 23.5 -17.5t9.5 -28.5q1 -4 1 -7.5v-7.5q0 -39 -16.5 -76.5t-36.5 -69.5q-1 -3 -2.5 -5t-2.5 -4q7 -6 14 -9t14 -2q18 0 34 14.5t26 32.5q2 3 4 7t3 7l49 -23v0z" />
    <glyph glyph-name="x" unicode="x" horiz-adv-x="544" 
d="M626 177q-27 -75 -81.5 -125.5t-136.5 -54.5q-8 -1 -16.5 -0.5t-16.5 0.5q-36 3 -68 19.5t-47 51.5v-1q-5 11 -10.5 22.5t-10.5 23.5q-6 11 -11.5 22.5t-10.5 22.5q-13 -6 -25.5 -13t-25.5 -15q29 -8 42.5 -26.5t13.5 -38.5v-2.5v-2.5q-3 -26 -25.5 -47t-59.5 -20h-11
t-12 2q-32 7 -49.5 28t-17.5 48q0 7 1.5 14.5t4.5 15.5q3 7 7 14.5t10 14.5q12 15 31 29.5t39 26.5q14 8 27 14.5t24 11.5q0 1 -0.5 1.5t-0.5 1.5q-1 2 -1.5 3.5t-1.5 3.5q-5 14 -12.5 24.5t-24.5 10.5h-1.5h-0.5h-1.5h-1.5q-32 -4 -54 -29t-34 -54l-50 23q26 69 76 118
t126 54q9 1 18.5 0.5t19.5 -1.5q33 -4 63.5 -20.5t45.5 -47.5q8 -19 17.5 -37.5t19.5 -36.5q3 -6 6.5 -12t6.5 -12q4 2 8.5 4.5t8.5 4.5q9 5 17.5 9.5t16.5 9.5q-29 8 -43.5 26t-15.5 38v2v2q0 28 22 51t60 22h11t12 -2q14 -3 27.5 -9t21.5 -19q10 -16 14.5 -30t3.5 -27
q0 -39 -32.5 -68.5t-70.5 -50.5q-9 -5 -17.5 -9.5t-16.5 -8.5q1 -2 2 -3.5t1 -3.5q1 -1 1 -1.5t1 -1.5q6 -14 15 -25.5t27 -10.5q28 2 48.5 23t34.5 47q5 7 8.5 14t6.5 14l48 -22v0z" />
    <glyph glyph-name="y" unicode="y" horiz-adv-x="514" 
d="M554 354l-36 -106l-36 -106q-19 -53 -37 -105.5t-36 -105.5q-23 -68 -91.5 -112t-144.5 -54q-10 -1 -19.5 -1.5t-18.5 -0.5q-31 0 -60.5 7t-54.5 22q-24 15 -37.5 35t-19.5 48q0 2 -0.5 4t-0.5 4q-1 2 -1 4v4q1 27 20 46.5t46 24.5q5 1 9.5 1.5t8.5 0.5q36 -1 58 -24
t22 -51v-1.5v-1.5q0 -20 -12.5 -38.5t-39.5 -27.5q2 -1 4.5 -2t5.5 -1q2 -1 4.5 -1h4.5q53 -1 83.5 40.5t49.5 92.5q9 25 16.5 49t13.5 43q-22 -17 -51.5 -30t-61.5 -18q-6 -1 -12.5 -1.5t-13.5 -0.5q-25 0 -47.5 9.5t-38.5 33.5q-9 14 -13 30.5t-4 32.5t3 31.5t8 29.5
q9 24 17.5 48.5t16.5 49.5t16.5 49.5t16.5 48.5h191q-10 -28 -19.5 -56t-19.5 -56t-19.5 -56t-18.5 -56q-1 -2 -2 -5t-1 -7q-1 -1 -1 -2.5v-3.5q0 -4 2 -7.5t6 -5.5q3 -1 6 -1.5t6 -0.5q29 0 55 41.5t45 90.5q16 40 26.5 75.5t15.5 49.5h191v0z" />
    <glyph glyph-name="z" unicode="z" horiz-adv-x="446" 
d="M429 225q-12 -40 -44 -61t-69 -32q59 -21 87 -62t28 -87q0 -6 -0.5 -12t-1.5 -12q-6 -38 -29.5 -74t-63.5 -63q-32 -21 -80.5 -37t-100.5 -21q-9 0 -17.5 -0.5t-16.5 -0.5q-41 0 -78.5 10.5t-63.5 33.5q-17 16 -25 34t-8 37q1 43 34 78t79 35h7.5t7.5 -1q3 0 6.5 -1
t7.5 -2q28 -8 41 -26t14 -38v-2v-2q0 -26 -18 -48t-48 -21q-5 0 -10.5 0.5t-10.5 2.5q-16 4 -28 15t-17 26q0 -3 -0.5 -5.5t-0.5 -4.5q-1 -2 -1 -4.5v-5.5q0 -19 10 -33t33 -18q3 -1 6.5 -1.5t7.5 -0.5q4 -1 7.5 -1h6.5q58 0 104 44.5t63 97.5q4 13 6 25.5t2 23.5
q0 31 -15 54.5t-50 32.5q-3 1 -6.5 1.5t-6.5 0.5q-3 1 -6.5 1h-6.5q-7 0 -14 -1l-14 -2l-14 -4t-14 -5l-15 53q12 2 25.5 5.5t27.5 7.5q38 12 69 34.5t31 64.5q0 13 -6 22.5t-19 13.5q-3 1 -5.5 1.5t-4.5 0.5q-2 1 -4.5 1h-5.5h-3.5h-2.5q-30 -4 -59 -29t-52 -54
q-8 -11 -15 -21t-13 -19l-51 24q44 72 111 119.5t149 46.5q17 0 35 -2.5t37 -7.5q37 -10 66.5 -36t29.5 -64q0 -6 -1 -12t-3 -13v0z" />
    <glyph glyph-name="braceleft" unicode="{" 
 />
    <glyph glyph-name="bar" unicode="|" 
 />
    <glyph glyph-name="braceright" unicode="}" 
 />
    <glyph glyph-name="asciitilde" unicode="~" 
 />
    <glyph glyph-name="Adieresis" unicode="&#xc4;" horiz-adv-x="843" 
d="M931 209q-6 -77 -71.5 -137t-142.5 -70q-6 0 -12.5 -0.5t-12.5 -0.5q-26 0 -50.5 7.5t-47.5 23.5q-36 27 -46.5 64t-15.5 77q-1 3 -1.5 6.5t-0.5 6.5h-168q-11 -15 -24 -31.5t-28 -33.5q-38 -45 -86.5 -82t-100.5 -37h-3.5h-3.5t-3.5 0.5t-3.5 0.5q-47 5 -73 39t-26 77
v3.5t1 2.5v3.5v2.5h0.5h1.5q3 0 7.5 0.5t10.5 1.5v0v0q6 1 10.5 1.5t7.5 0.5q1 -17 14 -26t29 -12q4 0 8 -0.5t8 -0.5q32 0 58.5 14.5t48.5 34.5q74 69 136.5 148t122.5 160q3 4 6.5 9t6.5 9q-1 21 -14 35.5t-33 21.5q-8 3 -17 4.5t-19 0.5q-7 0 -14.5 -1t-15.5 -2
q-46 -10 -85.5 -43.5t-44.5 -77.5v-2.5v-3.5q-1 -1 -1 -2.5v-2.5q1 -34 25 -46.5t52 -16.5l12 -2t12 -1q1 -1 2.5 -1h2.5q-3 -2 -6 -4.5t-6 -5.5q-24 -21 -50.5 -38.5t-61.5 -18.5q-48 -1 -72.5 32t-24.5 75q0 11 2 22.5t6 22.5q24 70 89 108t138 53q32 7 63 10t59 3
q116 0 185 -56.5t77 -175.5q1 -9 1 -18.5t1 -18.5q0 -10 0.5 -21t1.5 -22q2 -33 6 -66t13 -65q4 -14 11.5 -20t16.5 -6q4 0 8 1.5t8 2.5q3 2 7 4.5t8 5.5q16 12 30 32.5t21 48.5l51 -7v0zM519 251q-3 19 -5.5 38t-4.5 38q-3 18 -5 37l-4 38q-19 -33 -42.5 -71.5t-49.5 -79.5
h111v0zM514 665q0 -24 -18 -36t-39 -14q-3 -1 -6 -1h-6q-25 0 -44 11.5t-19 39.5q0 24 19.5 36.5t43.5 13.5h2.5h2.5q14 0 26.5 -3.5t20.5 -10.5q9 -7 13 -16t4 -20v0zM668 665q0 -25 -19 -37t-41 -14h-5.5h-4.5q-25 0 -43.5 11.5t-18.5 39.5q0 26 21.5 38t46.5 12
q14 0 26 -3.5t21 -10.5q8 -7 12.5 -16t4.5 -20v0z" />
    <glyph glyph-name="Aring" unicode="&#xc5;" horiz-adv-x="843" 
d="M931 209q-6 -77 -71.5 -137t-142.5 -70q-6 0 -12.5 -0.5t-12.5 -0.5q-26 0 -50.5 7.5t-47.5 23.5q-36 27 -46.5 64t-15.5 77q-1 3 -1.5 6.5t-0.5 6.5h-168q-11 -15 -24 -31.5t-28 -33.5q-38 -45 -86.5 -82t-100.5 -37h-3.5h-3.5t-3.5 0.5t-3.5 0.5q-47 5 -73 39t-26 77
v3.5t1 2.5v3.5v2.5h0.5h1.5q3 0 7.5 0.5t10.5 1.5v0v0q6 1 10.5 1.5t7.5 0.5q1 -17 14 -26t29 -12q4 0 8 -0.5t8 -0.5q32 0 58.5 14.5t48.5 34.5q74 69 136.5 148t122.5 160q3 4 6.5 9t6.5 9q-1 21 -14 35.5t-33 21.5q-8 3 -17 4.5t-19 0.5q-7 0 -14.5 -1t-15.5 -2
q-46 -10 -85.5 -43.5t-44.5 -77.5v-2.5v-3.5q-1 -1 -1 -2.5v-2.5q1 -34 25 -46.5t52 -16.5l12 -2t12 -1q1 -1 2.5 -1h2.5q-3 -2 -6 -4.5t-6 -5.5q-24 -21 -50.5 -38.5t-61.5 -18.5q-48 -1 -72.5 32t-24.5 75q0 11 2 22.5t6 22.5q24 70 89 108t138 53q32 7 63 10t59 3
q116 0 185 -56.5t77 -175.5q1 -9 1 -18.5t1 -18.5q0 -10 0.5 -21t1.5 -22q2 -33 6 -66t13 -65q4 -14 11.5 -20t16.5 -6q4 0 8 1.5t8 2.5q3 2 7 4.5t8 5.5q16 12 30 32.5t21 48.5l51 -7v0zM519 251q-3 19 -5.5 38t-4.5 38q-3 18 -5 37l-4 38q-19 -33 -42.5 -71.5t-49.5 -79.5
h111v0zM641 684q0 -32 -23.5 -56t-55.5 -24q-33 0 -56.5 24t-23.5 56q0 33 23.5 56t56.5 23q32 0 55.5 -23t23.5 -56v0zM600 684q0 16 -11 27t-27 11t-27 -11t-11 -27t11 -27t27 -11t27 11t11 27v0z" />
    <glyph glyph-name="Ccedilla" unicode="&#xc7;" horiz-adv-x="563" 
d="M450 -102q-4 -22 -22.5 -36.5t-40.5 -22.5q-2 -1 -5 -1.5t-6 -1.5q-20 -5 -43.5 -6.5t-48.5 -1.5q-7 0 -14.5 0.5t-14.5 0.5q-23 2 -44.5 7.5t-41.5 14.5q-4 1 -9.5 3.5t-10.5 4.5q3 4 6 8.5t6 8.5q2 4 5 8l6 8q24 -7 48 -11t49 -4q8 0 19 0.5t23 1.5q17 2 31.5 7.5
t20.5 17.5v1.5t1 0.5v1.5v1.5v0.5t-1 0.5v1v0l-1.5 1.5l-1.5 1.5q-4 4 -11.5 6t-15.5 4q-15 3 -29.5 3.5t-29.5 -0.5q-11 0 -21.5 -1t-20.5 -2q-4 0 -8.5 -0.5t-8.5 -0.5q10 13 19.5 27t19.5 28q9 13 18.5 26.5t19.5 27.5l46 -24q-2 -3 -4 -5.5t-4 -5.5q-1 -1 -2 -2.5
t-2 -3.5q-3 -4 -6 -8.5t-6 -8.5q8 -1 17 -1.5t18 -1.5q8 -1 17 -2.5t17 -3.5q4 -1 9 -2.5t10 -2.5q18 -7 33.5 -19.5t15.5 -33.5v-2v-2q-1 -1 -1 -2v-2v-1zM661 201q-61 -109 -149.5 -155t-212.5 -46q-113 0 -200 71.5t-87 192.5q0 80 41.5 147t106.5 110q53 37 121 57
t141 20q12 0 23.5 -0.5t23.5 -1.5q41 -3 80.5 -14.5t70.5 -39.5q16 -14 23 -31.5t7 -35.5q0 -37 -27 -67.5t-70 -31.5q-25 -1 -44 8.5t-36 23.5q-4 3 -8 6.5t-8 7.5q3 1 5.5 2.5t5.5 2.5q20 11 35 23.5t24 36.5q2 4 2.5 7.5t0.5 7.5q0 17 -14 26t-34 9q-54 0 -96 -43
t-71 -95q-12 -22 -21.5 -44t-16.5 -40q-8 -22 -15 -50t-8 -56v-5.5v-5.5q0 -37 14.5 -69t53.5 -46q14 -5 28.5 -7.5t29.5 -2.5h7.5t6.5 1q62 4 118 43.5t83 91.5q1 2 2 3.5t2 3.5q1 1 2 3l2 4l38 -14l20 -8v0z" />
    <glyph glyph-name="Eacute" unicode="&#xc9;" horiz-adv-x="566" 
d="M662 195q-49 -114 -134 -157t-203 -43q-26 0 -58 2.5t-65 10.5q-72 16 -132 56t-60 114q0 68 52.5 112t115.5 59q15 3 29.5 5t28.5 2q-25 15 -41 38.5t-16 52.5q0 5 0.5 9.5t1.5 9.5q13 56 62 84t105 39q27 6 53.5 8t48.5 2q17 0 41.5 -2.5t50.5 -8.5q45 -10 81.5 -33
t36.5 -65v-3.5v-4.5q-4 -32 -26.5 -45.5t-50.5 -12.5h-6.5t-7.5 1q-10 1 -20 3.5t-19 6.5l-16.5 7.5t-7.5 4.5t3.5 6t17.5 13q10 8 14.5 16.5t3.5 15.5q0 17 -17 29.5t-40 12.5q-47 0 -84.5 -29.5t-38.5 -79.5q-1 -41 29 -51.5t65 -10.5h13h13q6 1 12.5 1h12.5h13.5h12.5
l-18 -53h-12.5h-13.5q-31 1 -60.5 -0.5t-58.5 -12.5q-11 -3 -21 -8.5t-21 -12.5q-25 -18 -40 -41.5t-18 -48.5q-1 -4 -1 -7.5v-7.5q0 -34 22 -61.5t67 -35.5q10 -1 19.5 -2.5t18.5 -1.5q68 0 126.5 41t83.5 103l53 -26v0zM586 705q2 -4 2.5 -7.5t0.5 -7.5q-1 -18 -12 -33
t-25 -23q-9 -4 -21 -6.5t-26 -4.5q-14 -1 -28.5 -2t-29.5 -2q-7 -1 -14.5 -1t-14.5 -1q2 3 4.5 6.5t4.5 6.5q12 16 24.5 32t26.5 30q10 10 18.5 17t15.5 11t15 6t17 2h2h2q12 -1 22.5 -6.5t15.5 -16.5v0z" />
    <glyph glyph-name="Ntilde" unicode="&#xd1;" horiz-adv-x="800" 
d="M1028 564q-85 0 -125.5 -60t-66.5 -134l-129 -379q-26 38 -51 78t-49 80q-2 2 -3.5 5t-3.5 6q-39 65 -80 129t-89 121q-9 -50 -25 -99.5t-33 -98.5q-4 -10 -7.5 -19.5t-6.5 -19.5l-4 -10l-4 -10q-28 -60 -87 -109.5t-126 -49.5q-17 0 -33.5 3.5t-33.5 11.5
q-31 15 -44.5 36t-13.5 45q0 15 4.5 30.5t12.5 31.5q9 -7 17 -13t15 -11q14 -9 29 -14t38 -5q63 -1 115 46t71 104q10 28 20.5 55t20.5 54q9 22 17.5 43.5t16.5 42.5q-19 18 -45.5 30t-54.5 16q-6 1 -12.5 1.5t-12.5 0.5q-43 0 -75.5 -25t-28.5 -81q2 -34 26.5 -46t53.5 -14
h22t21 1q-17 -36 -42.5 -64.5t-71.5 -27.5q-46 2 -67.5 37t-22.5 76v3.5v2.5q0 14 2.5 27.5t6.5 25.5q35 102 125 146.5t200 44.5q112 0 198.5 -79.5t132.5 -174.5q4 -8 8 -16.5t7 -16.5l85 230v-1q12 36 42.5 59.5t67.5 24.5q38 0 52.5 -18.5t20.5 -51.5v0zM870 704
q-4 -16 -17 -32t-36 -30q-22 -15 -45.5 -22t-49.5 -7q-16 0 -36.5 4.5t-45.5 12.5q-4 1 -8 2.5t-8 2.5q-9 3 -18.5 5.5t-19.5 4.5q-6 1 -11.5 1.5t-10.5 0.5q-6 0 -12 -1t-12 -3q-5 -1 -14 -5.5t-23 -12.5q22 45 60.5 67.5t91.5 22.5q17 0 37.5 -4t43.5 -12q3 -1 6.5 -2
t6.5 -2q9 -2 18.5 -4.5t19.5 -3.5q6 -1 11.5 -1.5t11.5 -0.5q8 0 15 1t14 4q6 3 13.5 6.5t17.5 7.5v0z" />
    <glyph glyph-name="Odieresis" unicode="&#xd6;" horiz-adv-x="770" 
d="M804 346q0 -140 -107 -225t-236 -110q-26 -6 -52.5 -8.5t-52.5 -2.5q-13 0 -26.5 0.5t-27.5 1.5q-107 9 -196 63.5t-89 180.5q0 135 104 220t229 112q27 6 54 9t53 3q12 0 23.5 -0.5t23.5 -0.5q112 -7 206 -59.5t94 -183.5v0zM549 445q0 8 -0.5 17t-2.5 19q-4 23 -16 42
t-38 19q-45 0 -84 -43.5t-67 -96.5q-16 -31 -28 -60.5t-18 -49.5q-12 -40 -18.5 -76t-6.5 -67q0 -52 16.5 -77t41.5 -25q19 1 42.5 15t47.5 40q3 3 6 6.5t6 7.5q33 41 59.5 96.5t42.5 114.5q8 30 12.5 60t4.5 58v0zM474 665q0 -24 -18 -36t-39 -14q-3 -1 -6 -1h-6
q-25 0 -44 11.5t-19 39.5q0 24 19.5 36.5t43.5 13.5h2.5h2.5q14 0 26.5 -3.5t20.5 -10.5q9 -7 13 -16t4 -20v0zM628 665q0 -25 -19 -37t-41 -14h-5.5h-4.5q-25 0 -43.5 11.5t-18.5 39.5q0 26 21.5 38t46.5 12q14 0 26 -3.5t21 -10.5q8 -7 12.5 -16t4.5 -20v0z" />
    <glyph glyph-name="Udieresis" unicode="&#xdc;" horiz-adv-x="929" 
d="M1030 204q-20 -41 -44 -80.5t-61 -68.5q-25 -20 -61 -33t-75 -17q-6 0 -12.5 -0.5t-12.5 -0.5q-55 1 -99.5 27.5t-50.5 89.5q-39 -49 -100 -86t-127 -39h-3.5h-3.5q-16 0 -32.5 2.5t-32.5 8.5q-49 19 -72 59t-23 86q0 18 3 36t10 36q10 25 21.5 49t23.5 48q1 3 3 6.5
t3 6.5q14 27 26.5 54t21.5 55q4 11 6 21t2 19q0 23 -14.5 38.5t-46.5 15.5q-55 0 -94.5 -38t-44.5 -91q-1 -4 -1 -7.5v-6.5q0 -35 21.5 -44t51.5 -12q3 0 5.5 -0.5t4.5 -0.5q-3 -3 -6 -6.5t-5 -6.5q-1 -1 -2 -2.5t-2 -2.5q-2 -2 -4 -4.5t-4 -4.5q-17 -20 -35.5 -30.5
t-36.5 -13.5q-5 -1 -9.5 -1.5t-9.5 -0.5q-40 0 -70 30t-30 76q0 14 3 28t10 29q30 70 105.5 111.5t160.5 52.5q16 2 31.5 3t30.5 1q32 0 62.5 -5t56.5 -14q52 -18 83 -54.5t31 -85.5q0 -13 -2.5 -26.5t-7.5 -27.5q-10 -26 -22 -51.5t-25 -50.5q-3 -4 -5 -8l-4 -8
q-2 -5 -9.5 -18.5t-15.5 -30.5q-3 -7 -6.5 -15t-6.5 -15q-6 -15 -9.5 -29.5t-3.5 -25.5q0 -13 6 -20.5t20 -7.5t37.5 15.5t48.5 46.5q3 3 5.5 6t4.5 6q20 25 39.5 58t34.5 75q14 39 27.5 78t27.5 79q1 4 2.5 8.5t2.5 9.5q8 21 15.5 43t14.5 44h127.5h127.5
q-37 -106 -73.5 -212t-73.5 -213q0 -1 -1 -2.5t-1 -2.5q-3 -7 -5 -13t-2 -10q0 -5 4 -8t14 -3q22 0 43 21.5t37 47.5q9 15 16 29t11 24l55 -25v0zM648 645q0 -24 -18 -36t-39 -14q-3 -1 -6 -1h-6q-25 0 -44 11.5t-19 39.5q0 24 19.5 36.5t43.5 13.5h2.5h2.5q14 0 26.5 -3.5
t20.5 -10.5q9 -7 13 -16t4 -20v0zM802 645q0 -25 -19 -37t-41 -14h-5.5h-4.5q-25 0 -43.5 11.5t-18.5 39.5q0 26 21.5 38t46.5 12q14 0 26 -3.5t21 -10.5q8 -7 12.5 -16t4.5 -20v0z" />
    <glyph glyph-name="aacute" unicode="&#xe1;" horiz-adv-x="593" 
d="M669 175q-37 -79 -88.5 -131.5t-147.5 -52.5h-2.5h-2.5q-32 1 -60.5 14.5t-42.5 44.5q-27 -25 -61.5 -40.5t-70.5 -18.5q-4 -1 -8.5 -1h-9.5q-35 1 -67.5 14t-57.5 44q-19 23 -27.5 48t-8.5 51q0 46 24.5 89t62.5 72q29 22 67 36.5t78 16.5q4 1 8.5 1h8.5q32 0 62 -9.5
t54 -29.5l10 30h97.5h97.5q-6 -18 -12.5 -36.5t-12.5 -36.5q-13 -36 -25.5 -72.5t-24.5 -73.5q0 -1 -1 -2.5t-1 -4.5q-1 -2 -2 -5.5t-1 -6.5q-1 -2 -1 -4v-4q0 -4 1.5 -8t5.5 -5q2 -1 4.5 -1.5t5.5 0.5q6 0 11.5 2.5t11.5 5.5q11 7 22 18t20 23q9 11 15.5 22t9.5 18l2 4l2 4
q0 2 1 4l2 4l52 -23v0zM352 274q0 12 -3.5 19t-17.5 7q-5 0 -10 -1t-10 -3q-19 -8 -38 -28t-34 -43q-11 -16 -19.5 -31.5t-12.5 -26.5q-1 -3 -3.5 -10t-4.5 -16q-2 -7 -4 -14.5t-3 -15.5q-2 -6 -2.5 -13t-0.5 -13q0 -15 5 -25t18 -10q29 0 51.5 24t38.5 53q9 15 15 29t11 25
q12 31 18 54t6 39v0zM509 465q2 -4 2.5 -7.5t0.5 -7.5q-1 -18 -12 -33t-25 -23q-9 -4 -21 -6.5t-26 -4.5q-14 -1 -28.5 -2t-29.5 -2q-7 -1 -14.5 -1t-14.5 -1q2 3 4.5 6.5t4.5 6.5q12 16 24.5 32t26.5 30q10 10 18.5 17t15.5 11t15 6t17 2h2h2q12 -1 22.5 -6.5t15.5 -16.5v0
z" />
    <glyph glyph-name="agrave" unicode="&#xe0;" horiz-adv-x="593" 
d="M669 175q-37 -79 -88.5 -131.5t-147.5 -52.5h-2.5h-2.5q-32 1 -60.5 14.5t-42.5 44.5q-27 -25 -61.5 -40.5t-70.5 -18.5q-4 -1 -8.5 -1h-9.5q-35 1 -67.5 14t-57.5 44q-19 23 -27.5 48t-8.5 51q0 46 24.5 89t62.5 72q29 22 67 36.5t78 16.5q4 1 8.5 1h8.5q32 0 62 -9.5
t54 -29.5l10 30h97.5h97.5q-6 -18 -12.5 -36.5t-12.5 -36.5q-13 -36 -25.5 -72.5t-24.5 -73.5q0 -1 -1 -2.5t-1 -4.5q-1 -2 -2 -5.5t-1 -6.5q-1 -2 -1 -4v-4q0 -4 1.5 -8t5.5 -5q2 -1 4.5 -1.5t5.5 0.5q6 0 11.5 2.5t11.5 5.5q11 7 22 18t20 23q9 11 15.5 22t9.5 18l2 4l2 4
q0 2 1 4l2 4l52 -23v0zM352 274q0 12 -3.5 19t-17.5 7q-5 0 -10 -1t-10 -3q-19 -8 -38 -28t-34 -43q-11 -16 -19.5 -31.5t-12.5 -26.5q-1 -3 -3.5 -10t-4.5 -16q-2 -7 -4 -14.5t-3 -15.5q-2 -6 -2.5 -13t-0.5 -13q0 -15 5 -25t18 -10q29 0 51.5 24t38.5 53q9 15 15 29t11 25
q12 31 18 54t6 39v0zM399 391q-7 1 -14.5 1t-14.5 1q-15 1 -29 2t-29 2q-13 2 -25.5 4.5t-21.5 6.5q-14 8 -25.5 23.5t-11.5 32.5q0 4 1 7.5t2 7.5q5 12 17.5 17.5t25.5 5.5q9 0 17 -2t14 -6q8 -4 16 -11t18 -17q14 -14 26.5 -30t24.5 -32q2 -3 4.5 -6.5t4.5 -6.5v0z" />
    <glyph glyph-name="acircumflex" unicode="&#xe2;" horiz-adv-x="593" 
d="M669 175q-37 -79 -88.5 -131.5t-147.5 -52.5h-2.5h-2.5q-32 1 -60.5 14.5t-42.5 44.5q-27 -25 -61.5 -40.5t-70.5 -18.5q-4 -1 -8.5 -1h-9.5q-35 1 -67.5 14t-57.5 44q-19 23 -27.5 48t-8.5 51q0 46 24.5 89t62.5 72q29 22 67 36.5t78 16.5q4 1 8.5 1h8.5q32 0 62 -9.5
t54 -29.5l10 30h97.5h97.5q-6 -18 -12.5 -36.5t-12.5 -36.5q-13 -36 -25.5 -72.5t-24.5 -73.5q0 -1 -1 -2.5t-1 -4.5q-1 -2 -2 -5.5t-1 -6.5q-1 -2 -1 -4v-4q0 -4 1.5 -8t5.5 -5q2 -1 4.5 -1.5t5.5 0.5q6 0 11.5 2.5t11.5 5.5q11 7 22 18t20 23q9 11 15.5 22t9.5 18l2 4l2 4
q0 2 1 4l2 4l52 -23v0zM352 274q0 12 -3.5 19t-17.5 7q-5 0 -10 -1t-10 -3q-19 -8 -38 -28t-34 -43q-11 -16 -19.5 -31.5t-12.5 -26.5q-1 -3 -3.5 -10t-4.5 -16q-2 -7 -4 -14.5t-3 -15.5q-2 -6 -2.5 -13t-0.5 -13q0 -15 5 -25t18 -10q29 0 51.5 24t38.5 53q9 15 15 29t11 25
q12 31 18 54t6 39v0zM540 372l-151 52l-195 -45l225 148l121 -155v0z" />
    <glyph glyph-name="adieresis" unicode="&#xe4;" horiz-adv-x="593" 
d="M669 175q-37 -79 -88.5 -131.5t-147.5 -52.5h-2.5h-2.5q-32 1 -60.5 14.5t-42.5 44.5q-27 -25 -61.5 -40.5t-70.5 -18.5q-4 -1 -8.5 -1h-9.5q-35 1 -67.5 14t-57.5 44q-19 23 -27.5 48t-8.5 51q0 46 24.5 89t62.5 72q29 22 67 36.5t78 16.5q4 1 8.5 1h8.5q32 0 62 -9.5
t54 -29.5l10 30h97.5h97.5q-6 -18 -12.5 -36.5t-12.5 -36.5q-13 -36 -25.5 -72.5t-24.5 -73.5q0 -1 -1 -2.5t-1 -4.5q-1 -2 -2 -5.5t-1 -6.5q-1 -2 -1 -4v-4q0 -4 1.5 -8t5.5 -5q2 -1 4.5 -1.5t5.5 0.5q6 0 11.5 2.5t11.5 5.5q11 7 22 18t20 23q9 11 15.5 22t9.5 18l2 4l2 4
q0 2 1 4l2 4l52 -23v0zM352 274q0 12 -3.5 19t-17.5 7q-5 0 -10 -1t-10 -3q-19 -8 -38 -28t-34 -43q-11 -16 -19.5 -31.5t-12.5 -26.5q-1 -3 -3.5 -10t-4.5 -16q-2 -7 -4 -14.5t-3 -15.5q-2 -6 -2.5 -13t-0.5 -13q0 -15 5 -25t18 -10q29 0 51.5 24t38.5 53q9 15 15 29t11 25
q12 31 18 54t6 39v0zM353 441q0 -22 -16.5 -32.5t-36.5 -12.5h-4h-4q-22 0 -38.5 10t-16.5 35q0 21 17 32t38 12h2.5h2.5q12 0 23.5 -3t18.5 -9q8 -6 11 -14t3 -18v0zM489 441q0 -21 -15.5 -31.5t-34.5 -12.5q-3 -1 -5.5 -1h-5.5q-22 0 -38.5 10t-16.5 35q0 22 17.5 32.5
t38.5 11.5h1.5h1.5h3.5h2.5q10 -1 19.5 -4t15.5 -8q8 -6 12 -14t4 -18v0z" />
    <glyph glyph-name="atilde" unicode="&#xe3;" horiz-adv-x="593" 
d="M669 175q-37 -79 -88.5 -131.5t-147.5 -52.5h-2.5h-2.5q-32 1 -60.5 14.5t-42.5 44.5q-27 -25 -61.5 -40.5t-70.5 -18.5q-4 -1 -8.5 -1h-9.5q-35 1 -67.5 14t-57.5 44q-19 23 -27.5 48t-8.5 51q0 46 24.5 89t62.5 72q29 22 67 36.5t78 16.5q4 1 8.5 1h8.5q32 0 62 -9.5
t54 -29.5l10 30h97.5h97.5q-6 -18 -12.5 -36.5t-12.5 -36.5q-13 -36 -25.5 -72.5t-24.5 -73.5q0 -1 -1 -2.5t-1 -4.5q-1 -2 -2 -5.5t-1 -6.5q-1 -2 -1 -4v-4q0 -4 1.5 -8t5.5 -5q2 -1 4.5 -1.5t5.5 0.5q6 0 11.5 2.5t11.5 5.5q11 7 22 18t20 23q9 11 15.5 22t9.5 18l2 4l2 4
q0 2 1 4l2 4l52 -23v0zM352 274q0 12 -3.5 19t-17.5 7q-5 0 -10 -1t-10 -3q-19 -8 -38 -28t-34 -43q-11 -16 -19.5 -31.5t-12.5 -26.5q-1 -3 -3.5 -10t-4.5 -16q-2 -7 -4 -14.5t-3 -15.5q-2 -6 -2.5 -13t-0.5 -13q0 -15 5 -25t18 -10q29 0 51.5 24t38.5 53q9 15 15 29t11 25
q12 31 18 54t6 39v0zM553 478q-4 -16 -17 -32t-36 -30q-22 -15 -45.5 -22t-49.5 -7q-16 0 -36.5 4.5t-45.5 12.5q-4 1 -8 2.5t-8 2.5q-9 3 -18.5 5.5t-19.5 4.5q-6 1 -11.5 1.5t-10.5 0.5q-6 0 -12 -1t-12 -3q-5 -1 -14 -5.5t-23 -12.5q22 45 60.5 67.5t91.5 22.5
q17 0 37.5 -4t43.5 -12q3 -1 6.5 -2t6.5 -2q9 -2 18.5 -4.5t19.5 -3.5q6 -1 11.5 -1.5t11.5 -0.5q8 0 15 1t14 4q6 3 13.5 6.5t17.5 7.5v0z" />
    <glyph glyph-name="aring" unicode="&#xe5;" horiz-adv-x="593" 
d="M669 175q-37 -79 -88.5 -131.5t-147.5 -52.5h-2.5h-2.5q-32 1 -60.5 14.5t-42.5 44.5q-27 -25 -61.5 -40.5t-70.5 -18.5q-4 -1 -8.5 -1h-9.5q-35 1 -67.5 14t-57.5 44q-19 23 -27.5 48t-8.5 51q0 46 24.5 89t62.5 72q29 22 67 36.5t78 16.5q4 1 8.5 1h8.5q32 0 62 -9.5
t54 -29.5l10 30h97.5h97.5q-6 -18 -12.5 -36.5t-12.5 -36.5q-13 -36 -25.5 -72.5t-24.5 -73.5q0 -1 -1 -2.5t-1 -4.5q-1 -2 -2 -5.5t-1 -6.5q-1 -2 -1 -4v-4q0 -4 1.5 -8t5.5 -5q2 -1 4.5 -1.5t5.5 0.5q6 0 11.5 2.5t11.5 5.5q11 7 22 18t20 23q9 11 15.5 22t9.5 18l2 4l2 4
q0 2 1 4l2 4l52 -23v0zM352 274q0 12 -3.5 19t-17.5 7q-5 0 -10 -1t-10 -3q-19 -8 -38 -28t-34 -43q-11 -16 -19.5 -31.5t-12.5 -26.5q-1 -3 -3.5 -10t-4.5 -16q-2 -7 -4 -14.5t-3 -15.5q-2 -6 -2.5 -13t-0.5 -13q0 -15 5 -25t18 -10q29 0 51.5 24t38.5 53q9 15 15 29t11 25
q12 31 18 54t6 39v0zM484 453q0 -32 -23.5 -56t-55.5 -24q-33 0 -56.5 24t-23.5 56q0 33 23.5 56t56.5 23q32 0 55.5 -23t23.5 -56v0zM443 453q0 16 -11 27t-27 11t-27 -11t-11 -27t11 -27t27 -11t27 11t11 27v0z" />
    <glyph glyph-name="ccedilla" unicode="&#xe7;" horiz-adv-x="467" 
d="M355 -98q-3 -20 -19 -32.5t-35 -18.5q-3 -1 -5.5 -1.5t-5.5 -1.5q-17 -5 -38 -6.5t-43 -1.5q-7 0 -14.5 0.5t-14.5 1.5q-19 2 -37 6.5t-35 11.5q-2 1 -4.5 2t-4.5 2t-4.5 2t-4.5 2q5 7 10.5 14.5t9.5 14.5q11 -3 21.5 -5.5t21.5 -4.5q11 -1 21.5 -2t21.5 -1h16.5t20.5 2
q14 1 27 6t18 15q1 1 1 2v2v1.5t-1 0.5q0 1 -1 1.5t-2 1.5q-4 3 -10 5t-13 4q-10 1 -19.5 2t-19.5 1q-16 0 -32 -1.5t-32 -2.5q9 14 19 28.5t21 29.5q6 10 13 19t14 19l40 -22q-3 -4 -6.5 -9t-6.5 -10q-2 -2 -4 -5t-4 -5q9 0 18 -1t18 -3q7 -1 13 -2l12 -2l8 -2t7 -3
q17 -6 31 -16.5t14 -29.5v-1.5v-1.5q-1 -1 -1 -2v-2v-1zM541 175q-2 -3 -3.5 -6.5t-2.5 -6.5q-23 -47 -51 -83.5t-80 -61.5q-31 -14 -68.5 -21.5t-76.5 -7.5h-6.5h-6.5q-58 3 -111.5 22.5t-87.5 62.5q-18 23 -26.5 46.5t-8.5 47.5q0 46 28 87.5t72 66.5q29 16 71 27.5
t86 13.5q6 1 11 1h10q38 0 72 -9t59 -31q12 -12 20 -28.5t10 -34.5v-3.5v-3.5q0 -13 -4.5 -26t-13.5 -23q-11 -13 -26 -19t-32 -6h-4.5t-5.5 1q-9 1 -18.5 4.5t-17.5 8.5q-13 8 -21 20.5t-10 26.5v2v3q-1 1 -1 2v2q0 23 15 40t37 23q-6 2 -12 3.5t-13 0.5h-5.5t-5.5 -1
q-3 0 -5.5 -1t-5.5 -2q-35 -12 -60.5 -49.5t-34.5 -80.5q-2 -9 -3 -19t-1 -19q1 -39 21 -67.5t66 -28.5q77 0 125 42.5t79 105.5l47 -21v0z" />
    <glyph glyph-name="eacute" unicode="&#xe9;" horiz-adv-x="459" 
d="M544 175q-25 -50 -56 -91t-86 -67q-33 -15 -69.5 -22t-74.5 -7h-12t-11 1q-24 1 -47 5.5t-45 11.5q-58 20 -95.5 61t-37.5 97q0 14 2.5 28.5t7.5 29.5q20 60 81 93.5t130 42.5q15 2 29.5 3t28.5 1q21 0 41 -2t37 -7q3 -1 5.5 -1.5t5.5 -1.5q29 -8 54.5 -28t26.5 -54
q2 -54 -45 -85t-103 -45q-31 -8 -60 -11t-50 -2q5 -36 27.5 -55.5t59.5 -19.5q75 0 126 42t80 106l50 -23v0zM361 288q0 17 -9 24t-26 8q-37 1 -64 -28t-41 -64q-5 -12 -8 -24t-5 -22q12 1 25 3t26 6q38 10 69.5 33t32.5 64v0zM426 471q2 -4 2.5 -7.5t0.5 -7.5
q-1 -18 -12 -33t-25 -23q-9 -4 -21 -6.5t-26 -4.5q-14 -1 -28.5 -2t-29.5 -2q-7 -1 -14.5 -1t-14.5 -1q2 3 4.5 6.5t4.5 6.5q12 16 24.5 32t26.5 30q10 10 18.5 17t15.5 11t15 6t17 2h2h2q12 -1 22.5 -6.5t15.5 -16.5v0z" />
    <glyph glyph-name="egrave" unicode="&#xe8;" horiz-adv-x="459" 
d="M544 175q-25 -50 -56 -91t-86 -67q-33 -15 -69.5 -22t-74.5 -7h-12t-11 1q-24 1 -47 5.5t-45 11.5q-58 20 -95.5 61t-37.5 97q0 14 2.5 28.5t7.5 29.5q20 60 81 93.5t130 42.5q15 2 29.5 3t28.5 1q21 0 41 -2t37 -7q3 -1 5.5 -1.5t5.5 -1.5q29 -8 54.5 -28t26.5 -54
q2 -54 -45 -85t-103 -45q-31 -8 -60 -11t-50 -2q5 -36 27.5 -55.5t59.5 -19.5q75 0 126 42t80 106l50 -23v0zM361 288q0 17 -9 24t-26 8q-37 1 -64 -28t-41 -64q-5 -12 -8 -24t-5 -22q12 1 25 3t26 6q38 10 69.5 33t32.5 64v0zM334 394q-7 1 -14.5 1t-14.5 1q-15 1 -29 2
t-29 2q-13 2 -25.5 4.5t-21.5 6.5q-14 8 -25.5 23.5t-11.5 32.5q0 4 1 7.5t2 7.5q5 12 17.5 17.5t25.5 5.5q9 0 17 -2t14 -6q8 -4 16 -11t18 -17q14 -14 26.5 -30t24.5 -32q2 -3 4.5 -6.5t4.5 -6.5v0z" />
    <glyph glyph-name="ecircumflex" unicode="&#xea;" horiz-adv-x="459" 
d="M544 175q-25 -50 -56 -91t-86 -67q-33 -15 -69.5 -22t-74.5 -7h-12t-11 1q-24 1 -47 5.5t-45 11.5q-58 20 -95.5 61t-37.5 97q0 14 2.5 28.5t7.5 29.5q20 60 81 93.5t130 42.5q15 2 29.5 3t28.5 1q21 0 41 -2t37 -7q3 -1 5.5 -1.5t5.5 -1.5q29 -8 54.5 -28t26.5 -54
q2 -54 -45 -85t-103 -45q-31 -8 -60 -11t-50 -2q5 -36 27.5 -55.5t59.5 -19.5q75 0 126 42t80 106l50 -23v0zM361 288q0 17 -9 24t-26 8q-37 1 -64 -28t-41 -64q-5 -12 -8 -24t-5 -22q12 1 25 3t26 6q38 10 69.5 33t32.5 64v0zM454 355l-151 52l-195 -45l225 148l121 -155v0
z" />
    <glyph glyph-name="edieresis" unicode="&#xeb;" horiz-adv-x="459" 
d="M544 175q-25 -50 -56 -91t-86 -67q-33 -15 -69.5 -22t-74.5 -7h-12t-11 1q-24 1 -47 5.5t-45 11.5q-58 20 -95.5 61t-37.5 97q0 14 2.5 28.5t7.5 29.5q20 60 81 93.5t130 42.5q15 2 29.5 3t28.5 1q21 0 41 -2t37 -7q3 -1 5.5 -1.5t5.5 -1.5q29 -8 54.5 -28t26.5 -54
q2 -54 -45 -85t-103 -45q-31 -8 -60 -11t-50 -2q5 -36 27.5 -55.5t59.5 -19.5q75 0 126 42t80 106l50 -23v0zM361 288q0 17 -9 24t-26 8q-37 1 -64 -28t-41 -64q-5 -12 -8 -24t-5 -22q12 1 25 3t26 6q38 10 69.5 33t32.5 64v0zM273 441q0 -22 -16.5 -32.5t-36.5 -12.5h-4h-4
q-22 0 -38.5 10t-16.5 35q0 21 17 32t38 12h2.5h2.5q12 0 23.5 -3t18.5 -9q8 -6 11 -14t3 -18v0zM409 441q0 -21 -15.5 -31.5t-34.5 -12.5q-3 -1 -5.5 -1h-5.5q-22 0 -38.5 10t-16.5 35q0 22 17.5 32.5t38.5 11.5h1.5h1.5h3.5h2.5q10 -1 19.5 -4t15.5 -8q8 -6 12 -14t4 -18
v0z" />
    <glyph glyph-name="iacute" unicode="&#xed;" horiz-adv-x="391" 
d="M374 174q-2 -5 -4.5 -9.5t-5.5 -9.5q-15 -32 -34 -62t-46 -54q-26 -22 -59.5 -34t-68.5 -14h-4.5h-5.5q-15 0 -29.5 2t-28.5 7q-39 13 -54.5 41t-15.5 61q0 17 3.5 34.5t8.5 33.5q16 46 31.5 91.5t31.5 91.5h99h98q-9 -27 -18.5 -54.5t-19.5 -54.5q-10 -28 -19.5 -55.5
t-18.5 -54.5q0 -1 -0.5 -2.5t-1.5 -3.5q-2 -6 -3.5 -11.5t-1.5 -10.5q1 -6 5.5 -10t15.5 -3q8 0 19.5 6.5t24.5 18.5q17 17 28 35t21 38q1 2 1.5 3.5t1.5 3.5q4 -2 8.5 -4t8.5 -4l4 -2l4 -2q6 -3 12.5 -6t12.5 -6v0zM340 468q2 -4 2.5 -7.5t0.5 -7.5q-1 -18 -12 -33t-25 -23
q-9 -4 -21 -6.5t-26 -4.5q-14 -1 -29 -2t-29 -2q-7 -1 -14.5 -1t-14.5 -1q2 3 4.5 6.5t4.5 6.5q12 16 24.5 32t26.5 30q10 10 18.5 17t15.5 11t15 6t17 2h2h2q12 -1 22.5 -6.5t15.5 -16.5v0z" />
    <glyph glyph-name="igrave" unicode="&#xec;" horiz-adv-x="391" 
d="M374 174q-2 -5 -4.5 -9.5t-5.5 -9.5q-15 -32 -34 -62t-46 -54q-26 -22 -59.5 -34t-68.5 -14h-4.5h-5.5q-15 0 -29.5 2t-28.5 7q-39 13 -54.5 41t-15.5 61q0 17 3.5 34.5t8.5 33.5q16 46 31.5 91.5t31.5 91.5h99h98q-9 -27 -18.5 -54.5t-19.5 -54.5q-10 -28 -19.5 -55.5
t-18.5 -54.5q0 -1 -0.5 -2.5t-1.5 -3.5q-2 -6 -3.5 -11.5t-1.5 -10.5q1 -6 5.5 -10t15.5 -3q8 0 19.5 6.5t24.5 18.5q17 17 28 35t21 38q1 2 1.5 3.5t1.5 3.5q4 -2 8.5 -4t8.5 -4l4 -2l4 -2q6 -3 12.5 -6t12.5 -6v0zM265 380q-7 1 -14.5 1t-14.5 1q-14 1 -28.5 2t-29.5 2
q-13 2 -25.5 4.5t-21.5 6.5q-14 8 -25.5 23.5t-11.5 32.5q0 4 1 7.5t2 7.5q5 12 17.5 17.5t25.5 5.5q9 0 17 -2t14 -6q8 -4 16 -11t18 -17q14 -14 26.5 -30t24.5 -32q2 -3 4.5 -6.5t4.5 -6.5v0z" />
    <glyph glyph-name="icircumflex" unicode="&#xee;" horiz-adv-x="391" 
d="M374 174q-2 -5 -4.5 -9.5t-5.5 -9.5q-15 -32 -34 -62t-46 -54q-26 -22 -59.5 -34t-68.5 -14h-4.5h-5.5q-15 0 -29.5 2t-28.5 7q-39 13 -54.5 41t-15.5 61q0 17 3.5 34.5t8.5 33.5q16 46 31.5 91.5t31.5 91.5h99h98q-9 -27 -18.5 -54.5t-19.5 -54.5q-10 -28 -19.5 -55.5
t-18.5 -54.5q0 -1 -0.5 -2.5t-1.5 -3.5q-2 -6 -3.5 -11.5t-1.5 -10.5q1 -6 5.5 -10t15.5 -3q8 0 19.5 6.5t24.5 18.5q17 17 28 35t21 38q1 2 1.5 3.5t1.5 3.5q4 -2 8.5 -4t8.5 -4l4 -2l4 -2q6 -3 12.5 -6t12.5 -6v0zM363 361l-151 52l-195 -45l225 148l121 -155v0z" />
    <glyph glyph-name="idieresis" unicode="&#xef;" horiz-adv-x="391" 
d="M374 174q-2 -5 -4.5 -9.5t-5.5 -9.5q-15 -32 -34 -62t-46 -54q-26 -22 -59.5 -34t-68.5 -14h-4.5h-5.5q-15 0 -29.5 2t-28.5 7q-39 13 -54.5 41t-15.5 61q0 17 3.5 34.5t8.5 33.5q16 46 31.5 91.5t31.5 91.5h99h98q-9 -27 -18.5 -54.5t-19.5 -54.5q-10 -28 -19.5 -55.5
t-18.5 -54.5q0 -1 -0.5 -2.5t-1.5 -3.5q-2 -6 -3.5 -11.5t-1.5 -10.5q1 -6 5.5 -10t15.5 -3q8 0 19.5 6.5t24.5 18.5q17 17 28 35t21 38q1 2 1.5 3.5t1.5 3.5q4 -2 8.5 -4t8.5 -4l4 -2l4 -2q6 -3 12.5 -6t12.5 -6v0zM168 444q0 -21 -15.5 -31.5t-34.5 -12.5q-3 -1 -5.5 -1
h-5.5q-22 0 -39 10t-17 35q0 22 18 32.5t40 11.5h1.5h1.5q12 0 23 -3t18 -9q8 -6 11.5 -14t3.5 -18v0zM303 444q0 -21 -15.5 -31.5t-34.5 -12.5q-3 -1 -5.5 -1h-5.5q-22 0 -38 10t-16 35q0 22 17.5 32.5t38.5 11.5h1.5h1.5h3.5h2.5q10 -1 19.5 -4t15.5 -8q8 -6 11.5 -14
t3.5 -18v0z" />
    <glyph glyph-name="ntilde" unicode="&#xf1;" horiz-adv-x="595" 
d="M680 174q-36 -76 -88.5 -129.5t-144.5 -53.5q-6 0 -12 0.5t-12 0.5q-25 3 -48 12t-38 29q-10 14 -14.5 29.5t-4.5 31.5q0 8 1 16t2 15q3 16 8.5 32t10.5 30q1 3 4 10t7 16q1 5 2.5 9.5t3.5 9.5q2 8 3.5 15.5t1.5 13.5q0 8 -3.5 13.5t-11.5 5.5q-10 0 -23 -9.5t-30 -32.5
q-24 -34 -41 -73.5t-32 -80.5q-6 -19 -12 -37.5t-12 -36.5q-1 -2 -2 -4.5t-2 -5.5h-186q30 88 60 175.5t61 175.5h186l-2 -6l-2 -6q-2 -4 -3 -7l-2 -6q23 13 51.5 22.5t58.5 12.5q5 1 10 1h10q29 0 55.5 -9.5t46.5 -31.5q13 -14 19 -31t6 -35q0 -4 -0.5 -9t-1.5 -9
q-1 -5 -2 -9.5t-3 -9.5q-3 -10 -7 -20.5t-7 -21.5q-4 -10 -8 -20.5t-7 -21.5q-1 -2 -2 -5t-2 -7q-1 -2 -2 -4.5t-1 -5.5q-1 -2 -1.5 -5t-0.5 -5q0 -5 3 -8.5t10 -3.5q6 0 11.5 2t11.5 5q12 8 24.5 20.5t22.5 25.5q8 10 14 20t9 18l2 4t2 5q0 2 1 4l2 4l50 -24v0zM564 481
q-4 -16 -17 -32t-36 -30q-22 -15 -45.5 -22t-49.5 -7q-16 0 -36.5 4.5t-45.5 12.5q-4 1 -8 2.5t-8 2.5q-9 3 -18.5 5.5t-19.5 4.5q-6 1 -11.5 1.5t-10.5 0.5q-6 0 -12 -1t-12 -3q-5 -1 -14 -5.5t-23 -12.5q22 45 60.5 67.5t91.5 22.5q17 0 37.5 -4t43.5 -12q3 -1 6.5 -2
t6.5 -2q9 -2 18.5 -4.5t19.5 -3.5q6 -1 11.5 -1.5t11.5 -0.5q8 0 15 1t14 4q6 3 13.5 6.5t17.5 7.5v0z" />
    <glyph glyph-name="oacute" unicode="&#xf3;" horiz-adv-x="577" 
d="M668 173q-6 -12 -14 -28.5t-18 -33.5q-19 -33 -46.5 -60.5t-64.5 -27.5q-15 0 -28.5 4.5t-25.5 11.5q-39 -32 -91.5 -50t-107.5 -21h-8.5h-9.5q-52 0 -100 15.5t-84 46.5q-29 26 -42 55.5t-13 59.5q0 47 28 90t74 73q40 26 90 41t103 15q8 0 15.5 -0.5t15.5 -0.5
q43 -4 84 -18.5t72 -43.5q27 -24 41 -54.5t14 -63.5q0 -12 -2 -24t-6 -24q14 2 24.5 7.5t20.5 17.5q6 6 12 15.5t13 21.5l54 -24v0zM383 256q-1 31 -11.5 44.5t-26.5 13.5q-10 0 -22 -5.5t-24 -15.5q-5 -4 -9.5 -9t-9.5 -10q-23 -27 -37 -61.5t-20 -70.5q-1 -12 -2 -23.5
t-1 -22.5q0 -6 0.5 -15t2.5 -18q3 -17 10.5 -30.5t23.5 -13.5q25 0 44.5 17.5t31.5 39.5q3 5 6 9.5t5 9.5q-16 11 -24.5 27.5t-8.5 35.5v4v3q3 30 22.5 56.5t49.5 34.5v0zM454 474q2 -4 2.5 -7.5t0.5 -7.5q-1 -18 -12 -33t-25 -23q-9 -4 -21 -6.5t-26 -4.5q-14 -1 -28.5 -2
t-29.5 -2q-7 -1 -14.5 -1t-14.5 -1q2 3 4.5 6.5t4.5 6.5q12 16 24.5 32t26.5 30q10 10 18.5 17t15.5 11t15 6t17 2h2h2q12 -1 22.5 -6.5t15.5 -16.5v0z" />
    <glyph glyph-name="ograve" unicode="&#xf2;" horiz-adv-x="577" 
d="M668 173q-6 -12 -14 -28.5t-18 -33.5q-19 -33 -46.5 -60.5t-64.5 -27.5q-15 0 -28.5 4.5t-25.5 11.5q-39 -32 -91.5 -50t-107.5 -21h-8.5h-9.5q-52 0 -100 15.5t-84 46.5q-29 26 -42 55.5t-13 59.5q0 47 28 90t74 73q40 26 90 41t103 15q8 0 15.5 -0.5t15.5 -0.5
q43 -4 84 -18.5t72 -43.5q27 -24 41 -54.5t14 -63.5q0 -12 -2 -24t-6 -24q14 2 24.5 7.5t20.5 17.5q6 6 12 15.5t13 21.5l54 -24v0zM383 256q-1 31 -11.5 44.5t-26.5 13.5q-10 0 -22 -5.5t-24 -15.5q-5 -4 -9.5 -9t-9.5 -10q-23 -27 -37 -61.5t-20 -70.5q-1 -12 -2 -23.5
t-1 -22.5q0 -6 0.5 -15t2.5 -18q3 -17 10.5 -30.5t23.5 -13.5q25 0 44.5 17.5t31.5 39.5q3 5 6 9.5t5 9.5q-16 11 -24.5 27.5t-8.5 35.5v4v3q3 30 22.5 56.5t49.5 34.5v0zM374 388q-7 1 -14.5 1t-14.5 1q-15 1 -29 2t-29 2q-13 2 -25.5 4.5t-21.5 6.5q-14 8 -25.5 23.5
t-11.5 32.5q0 4 1 7.5t2 7.5q5 12 17.5 17.5t25.5 5.5q9 0 17 -2t14 -6q8 -4 16 -11t18 -17q14 -14 26.5 -30t24.5 -32q2 -3 4.5 -6.5t4.5 -6.5v0z" />
    <glyph glyph-name="ocircumflex" unicode="&#xf4;" horiz-adv-x="577" 
d="M668 173q-6 -12 -14 -28.5t-18 -33.5q-19 -33 -46.5 -60.5t-64.5 -27.5q-15 0 -28.5 4.5t-25.5 11.5q-39 -32 -91.5 -50t-107.5 -21h-8.5h-9.5q-52 0 -100 15.5t-84 46.5q-29 26 -42 55.5t-13 59.5q0 47 28 90t74 73q40 26 90 41t103 15q8 0 15.5 -0.5t15.5 -0.5
q43 -4 84 -18.5t72 -43.5q27 -24 41 -54.5t14 -63.5q0 -12 -2 -24t-6 -24q14 2 24.5 7.5t20.5 17.5q6 6 12 15.5t13 21.5l54 -24v0zM383 256q-1 31 -11.5 44.5t-26.5 13.5q-10 0 -22 -5.5t-24 -15.5q-5 -4 -9.5 -9t-9.5 -10q-23 -27 -37 -61.5t-20 -70.5q-1 -12 -2 -23.5
t-1 -22.5q0 -6 0.5 -15t2.5 -18q3 -17 10.5 -30.5t23.5 -13.5q25 0 44.5 17.5t31.5 39.5q3 5 6 9.5t5 9.5q-16 11 -24.5 27.5t-8.5 35.5v4v3q3 30 22.5 56.5t49.5 34.5v0zM477 361l-151 52l-195 -45l225 148l121 -155v0z" />
    <glyph glyph-name="odieresis" unicode="&#xf6;" horiz-adv-x="577" 
d="M668 173q-6 -12 -14 -28.5t-18 -33.5q-19 -33 -46.5 -60.5t-64.5 -27.5q-15 0 -28.5 4.5t-25.5 11.5q-39 -32 -91.5 -50t-107.5 -21h-8.5h-9.5q-52 0 -100 15.5t-84 46.5q-29 26 -42 55.5t-13 59.5q0 47 28 90t74 73q40 26 90 41t103 15q8 0 15.5 -0.5t15.5 -0.5
q43 -4 84 -18.5t72 -43.5q27 -24 41 -54.5t14 -63.5q0 -12 -2 -24t-6 -24q14 2 24.5 7.5t20.5 17.5q6 6 12 15.5t13 21.5l54 -24v0zM383 256q-1 31 -11.5 44.5t-26.5 13.5q-10 0 -22 -5.5t-24 -15.5q-5 -4 -9.5 -9t-9.5 -10q-23 -27 -37 -61.5t-20 -70.5q-1 -12 -2 -23.5
t-1 -22.5q0 -6 0.5 -15t2.5 -18q3 -17 10.5 -30.5t23.5 -13.5q25 0 44.5 17.5t31.5 39.5q3 5 6 9.5t5 9.5q-16 11 -24.5 27.5t-8.5 35.5v4v3q3 30 22.5 56.5t49.5 34.5v0zM302 441q0 -22 -16.5 -32.5t-36.5 -12.5h-4h-4q-22 0 -38.5 10t-16.5 35q0 23 19 33.5t41 10.5
q12 0 23 -3t19 -9q7 -6 10.5 -14t3.5 -18v0zM437 441q0 -22 -16.5 -32.5t-36.5 -12.5h-4h-4q-22 0 -38 10t-16 35q0 23 18 33.5t40 10.5q12 0 23 -3t19 -9t11.5 -14t3.5 -18v0z" />
    <glyph glyph-name="otilde" unicode="&#xf5;" horiz-adv-x="577" 
d="M668 173q-6 -12 -14 -28.5t-18 -33.5q-19 -33 -46.5 -60.5t-64.5 -27.5q-15 0 -28.5 4.5t-25.5 11.5q-39 -32 -91.5 -50t-107.5 -21h-8.5h-9.5q-52 0 -100 15.5t-84 46.5q-29 26 -42 55.5t-13 59.5q0 47 28 90t74 73q40 26 90 41t103 15q8 0 15.5 -0.5t15.5 -0.5
q43 -4 84 -18.5t72 -43.5q27 -24 41 -54.5t14 -63.5q0 -12 -2 -24t-6 -24q14 2 24.5 7.5t20.5 17.5q6 6 12 15.5t13 21.5l54 -24v0zM383 256q-1 31 -11.5 44.5t-26.5 13.5q-10 0 -22 -5.5t-24 -15.5q-5 -4 -9.5 -9t-9.5 -10q-23 -27 -37 -61.5t-20 -70.5q-1 -12 -2 -23.5
t-1 -22.5q0 -6 0.5 -15t2.5 -18q3 -17 10.5 -30.5t23.5 -13.5q25 0 44.5 17.5t31.5 39.5q3 5 6 9.5t5 9.5q-16 11 -24.5 27.5t-8.5 35.5v4v3q3 30 22.5 56.5t49.5 34.5v0zM533 484q-4 -16 -17 -32t-36 -30q-22 -15 -45.5 -22t-49.5 -7q-16 0 -36.5 4.5t-45.5 12.5
q-4 1 -8 2.5t-8 2.5q-9 3 -18.5 5.5t-19.5 4.5q-6 1 -11.5 1.5t-10.5 0.5q-6 0 -12 -1t-12 -3q-5 -1 -14 -5.5t-23 -12.5q22 45 60.5 67.5t91.5 22.5q17 0 37.5 -4t43.5 -12q3 -1 6.5 -2t6.5 -2q9 -2 18.5 -4.5t19.5 -3.5q6 -1 11.5 -1.5t11.5 -0.5q8 0 15 1t14 4
q6 3 13.5 6.5t17.5 7.5v0z" />
    <glyph glyph-name="uacute" unicode="&#xfa;" horiz-adv-x="553" 
d="M640 178q-1 -2 -2.5 -4.5t-2.5 -5.5q-17 -34 -37.5 -67t-49.5 -58q-28 -23 -62.5 -35.5t-79.5 -12.5q-43 0 -75 20t-39 65q-34 -36 -79.5 -61t-97.5 -25q-54 0 -79.5 32.5t-25.5 75.5q0 15 3 30t8 29q9 25 17.5 49.5t16.5 48.5q8 25 16.5 49.5t17.5 48.5h190
q-10 -28 -19.5 -56t-18.5 -56q-10 -28 -19.5 -56t-19.5 -56q-1 -4 -2.5 -8.5t-1.5 -8.5q0 -6 3.5 -10t12.5 -4q10 0 24.5 7.5t31.5 28.5q22 25 37.5 58.5t28.5 68.5q5 16 10.5 32.5t11.5 32.5q1 4 2.5 7.5t2.5 7.5q0 2 0.5 3.5t1.5 2.5q0 1 0.5 1.5l0.5 0.5q0 1 0.5 2t0.5 2
h31.5h31.5h62.5h63.5q-10 -27 -19.5 -54.5t-18.5 -54.5q-9 -28 -18.5 -55.5t-19.5 -54.5q-3 -8 -4 -14.5t-1 -11.5q0 -8 3.5 -11.5t9.5 -3.5t13 3t15 7l10 8l10 8q19 17 31 36.5t22 42.5l51 -24v0zM463 468q2 -4 2.5 -7.5t0.5 -7.5q-1 -18 -12 -33t-25 -23q-9 -4 -21 -6.5
t-26 -4.5q-14 -1 -28.5 -2t-29.5 -2q-7 -1 -14.5 -1t-14.5 -1q2 3 4.5 6.5t4.5 6.5q12 16 24.5 32t26.5 30q10 10 18.5 17t15.5 11t15 6t17 2h2h2q12 -1 22.5 -6.5t15.5 -16.5v0z" />
    <glyph glyph-name="ugrave" unicode="&#xf9;" horiz-adv-x="553" 
d="M640 178q-1 -2 -2.5 -4.5t-2.5 -5.5q-17 -34 -37.5 -67t-49.5 -58q-28 -23 -62.5 -35.5t-79.5 -12.5q-43 0 -75 20t-39 65q-34 -36 -79.5 -61t-97.5 -25q-54 0 -79.5 32.5t-25.5 75.5q0 15 3 30t8 29q9 25 17.5 49.5t16.5 48.5q8 25 16.5 49.5t17.5 48.5h190
q-10 -28 -19.5 -56t-18.5 -56q-10 -28 -19.5 -56t-19.5 -56q-1 -4 -2.5 -8.5t-1.5 -8.5q0 -6 3.5 -10t12.5 -4q10 0 24.5 7.5t31.5 28.5q22 25 37.5 58.5t28.5 68.5q5 16 10.5 32.5t11.5 32.5q1 4 2.5 7.5t2.5 7.5q0 2 0.5 3.5t1.5 2.5q0 1 0.5 1.5l0.5 0.5q0 1 0.5 2t0.5 2
h31.5h31.5h62.5h63.5q-10 -27 -19.5 -54.5t-18.5 -54.5q-9 -28 -18.5 -55.5t-19.5 -54.5q-3 -8 -4 -14.5t-1 -11.5q0 -8 3.5 -11.5t9.5 -3.5t13 3t15 7l10 8l10 8q19 17 31 36.5t22 42.5l51 -24v0zM376 383q-7 1 -14.5 1t-14.5 1q-15 1 -29 2t-29 2q-13 2 -25.5 4.5
t-21.5 6.5q-14 8 -25.5 23.5t-11.5 32.5q0 4 1 7.5t2 7.5q5 12 17.5 17.5t25.5 5.5q9 0 17 -2t14 -6q8 -4 16 -11t18 -17q14 -14 26.5 -30t24.5 -32q2 -3 4.5 -6.5t4.5 -6.5v0z" />
    <glyph glyph-name="ucircumflex" unicode="&#xfb;" horiz-adv-x="553" 
d="M640 178q-1 -2 -2.5 -4.5t-2.5 -5.5q-17 -34 -37.5 -67t-49.5 -58q-28 -23 -62.5 -35.5t-79.5 -12.5q-43 0 -75 20t-39 65q-34 -36 -79.5 -61t-97.5 -25q-54 0 -79.5 32.5t-25.5 75.5q0 15 3 30t8 29q9 25 17.5 49.5t16.5 48.5q8 25 16.5 49.5t17.5 48.5h190
q-10 -28 -19.5 -56t-18.5 -56q-10 -28 -19.5 -56t-19.5 -56q-1 -4 -2.5 -8.5t-1.5 -8.5q0 -6 3.5 -10t12.5 -4q10 0 24.5 7.5t31.5 28.5q22 25 37.5 58.5t28.5 68.5q5 16 10.5 32.5t11.5 32.5q1 4 2.5 7.5t2.5 7.5q0 2 0.5 3.5t1.5 2.5q0 1 0.5 1.5l0.5 0.5q0 1 0.5 2t0.5 2
h31.5h31.5h62.5h63.5q-10 -27 -19.5 -54.5t-18.5 -54.5q-9 -28 -18.5 -55.5t-19.5 -54.5q-3 -8 -4 -14.5t-1 -11.5q0 -8 3.5 -11.5t9.5 -3.5t13 3t15 7l10 8l10 8q19 17 31 36.5t22 42.5l51 -24v0zM500 369l-151 52l-195 -45l225 148l121 -155v0z" />
    <glyph glyph-name="udieresis" unicode="&#xfc;" horiz-adv-x="553" 
d="M640 178q-1 -2 -2.5 -4.5t-2.5 -5.5q-17 -34 -37.5 -67t-49.5 -58q-28 -23 -62.5 -35.5t-79.5 -12.5q-43 0 -75 20t-39 65q-34 -36 -79.5 -61t-97.5 -25q-54 0 -79.5 32.5t-25.5 75.5q0 15 3 30t8 29q9 25 17.5 49.5t16.5 48.5q8 25 16.5 49.5t17.5 48.5h190
q-10 -28 -19.5 -56t-18.5 -56q-10 -28 -19.5 -56t-19.5 -56q-1 -4 -2.5 -8.5t-1.5 -8.5q0 -6 3.5 -10t12.5 -4q10 0 24.5 7.5t31.5 28.5q22 25 37.5 58.5t28.5 68.5q5 16 10.5 32.5t11.5 32.5q1 4 2.5 7.5t2.5 7.5q0 2 0.5 3.5t1.5 2.5q0 1 0.5 1.5l0.5 0.5q0 1 0.5 2t0.5 2
h31.5h31.5h62.5h63.5q-10 -27 -19.5 -54.5t-18.5 -54.5q-9 -28 -18.5 -55.5t-19.5 -54.5q-3 -8 -4 -14.5t-1 -11.5q0 -8 3.5 -11.5t9.5 -3.5t13 3t15 7l10 8l10 8q19 17 31 36.5t22 42.5l51 -24v0zM302 441q0 -22 -16.5 -32.5t-36.5 -12.5h-4h-4q-22 0 -38.5 10t-16.5 35
q0 23 19 33.5t41 10.5q12 0 23 -3t19 -9q7 -6 10.5 -14t3.5 -18v0zM437 441q0 -22 -16.5 -32.5t-36.5 -12.5h-4h-4q-22 0 -38 10t-16 35q0 23 18 33.5t40 10.5q12 0 23 -3t19 -9t11.5 -14t3.5 -18v0z" />
    <glyph glyph-name="dagger" unicode="&#x2020;" 
d="M468 446l-183 62l69 -182q-19 -63 -33 -131t-21 -138q-6 -52 -9 -103t-2 -100l-73 -1q1 50 -2 101t-9 103q-7 70 -21 138t-33 131l68 182l-183 -62v183l182 -59l-59 227h188l-61 -227l182 59v-183v0z" />
    <glyph glyph-name="cent" unicode="&#xa2;" horiz-adv-x="549" 
d="M524 169q-2 -5 -4 -9.5t-4 -9.5q-33 -79 -103.5 -118t-150.5 -38q-19 0 -38.5 2t-38.5 6l-50 -76l-51 32l42 65q-44 22 -73 59.5t-28 86.5v6.5t1 6.5q0 3 0.5 6.5t0.5 6.5q12 76 75 118.5t137 52.5q11 1 22.5 2t22.5 1q14 0 26.5 -1t24.5 -3l41 63l52 -34l-33 -49
q24 -14 37 -35.5t13 -48.5q0 -4 -0.5 -9t-1.5 -10q-5 -27 -26 -42t-46 -15q-12 0 -23 3.5t-22 10.5q-13 9 -20 21.5t-9 25.5v4v4q0 21 13 39.5t38 25.5q-5 2 -10.5 3t-11.5 1q-19 0 -37 -11.5t-31 -25.5q-17 -18 -30.5 -48t-18.5 -62q-1 -7 -1.5 -14t-0.5 -14q1 -17 4.5 -33
t12.5 -29q11 -18 30 -25.5t41 -7.5h6.5t7.5 1q21 2 40.5 8.5t33.5 14.5q33 18 54 46.5t37 60.5l50 -15v0z" />
    <glyph glyph-name="sterling" unicode="&#xa3;" horiz-adv-x="802" 
d="M734 167q11 -10 18 -20.5t10 -21.5q1 -5 2 -10.5t1 -10.5q0 -28 -20 -53t-51 -40q-28 -13 -59.5 -18.5t-64.5 -5.5q-10 0 -20.5 0.5t-20.5 1.5q-52 5 -102 19.5t-91 34.5q-10 -4 -20 -8.5t-20 -8.5q-29 -11 -59 -18.5t-61 -7.5q-17 0 -34.5 2.5t-35.5 8.5q-1 0 -2.5 0.5
t-2.5 1.5q-25 10 -45 29t-20 47q0 37 33 53.5t72 18.5h5.5h5.5q23 0 43 -3.5t34 -10.5l38 109h-133l17 51h133q4 12 8 23.5t8 23.5t8 23.5t8 23.5q24 68 92 109.5t145 50.5q11 1 21 1.5t20 0.5q30 0 58.5 -5.5t53.5 -17.5q23 -11 36 -28.5t17 -37.5q0 -3 0.5 -6.5t0.5 -7.5
q0 -25 -18 -44.5t-54 -19.5q-4 0 -8.5 1t-9.5 2q-12 4 -21.5 11.5t-9.5 17.5q0 3 1.5 6.5t5.5 7.5q5 5 10 12.5t8 15.5q1 3 1.5 6.5t0.5 6.5q0 8 -4 15t-15 11q-4 2 -8.5 2.5t-9.5 0.5q-32 0 -54.5 -34t-37.5 -74q-11 -29 -18.5 -56t-11.5 -41h116l-18 -51h-115
q-1 -5 -2.5 -9.5t-3.5 -8.5q-13 -44 -30.5 -82.5t-54.5 -71.5q2 -1 3.5 -1.5t3.5 -1.5q20 -7 47 -13t55 -8q5 -1 10 -1h10q38 0 69 13.5t41 48.5q1 4 1.5 7.5t0.5 6.5q0 6 -1.5 11.5t-3.5 10.5q-3 7 -7 13.5t-9 14.5q14 4 27 6.5t25 2.5q11 0 21.5 -2.5t20.5 -8.5
q5 -3 10.5 -7t10.5 -9v0zM219 98q-2 1 -5 2l-6 2q-10 3 -24 6t-28 4h-5.5h-4.5q-19 0 -35 -6t-21 -21q0 -1 -0.5 -2l-0.5 -1v-2v-2q1 -9 8.5 -14t16.5 -7q4 -1 8.5 -2t7.5 -1q30 -2 51.5 8.5t37.5 35.5v0z" />
    <glyph glyph-name="section" unicode="&#xa7;" 
 />
    <glyph glyph-name="paragraph" unicode="&#xb6;" 
 />
    <glyph glyph-name="germandbls" unicode="&#xdf;" horiz-adv-x="664" 
d="M673 481q0 -31 -22.5 -51t-50.5 -35q-9 -5 -18.5 -9.5t-18.5 -8.5q-2 0 -9.5 -3t-15.5 -8q-3 -2 -7 -4.5t-7 -5.5q-5 -4 -8 -7.5t-3 -6.5q0 -1 0.5 -1.5l1.5 -1.5q29 -25 55.5 -50t47.5 -52l-4 -4l4 4q11 -15 18 -31t10 -33q2 -8 3 -16t1 -16q0 -40 -21.5 -75.5
t-63.5 -56.5q-25 -12 -50.5 -18t-49.5 -6q-43 0 -85.5 16.5t-83.5 44.5l38 46q13 -9 24 -16t21 -10q3 -1 6.5 -1.5t7.5 -0.5q8 0 17 3t19 10q12 8 17 16t4 17q0 6 -2 11.5t-5 11.5q-4 8 -9 15t-11 14q-3 4 -6.5 8.5t-6.5 8.5q-1 2 -2.5 4t-2.5 3q-14 19 -25 38t-13 44
q-2 44 27.5 79.5t65.5 63.5l26 20t24 19q7 6 12 12.5t8 13.5q1 3 2 6.5t1 6.5q0 8 -7 13.5t-24 5.5q-41 0 -68.5 -31.5t-45.5 -68.5q-7 -14 -12.5 -28.5t-9.5 -26.5q-35 -100 -69.5 -201t-69.5 -201q-17 -48 -60 -69.5t-91 -21.5q-21 0 -41.5 3.5t-37.5 11.5q-6 3 -14 6
t-21 7q11 13 21 26t18 25q8 13 15.5 25.5t12.5 26.5q24 70 48 140.5t48 140.5q12 35 24 70.5t24 70.5q24 72 96 111t154 49q14 1 27.5 2t27.5 1q34 -1 66 -5.5t58 -14.5l6 -2l6 -2q22 -10 40.5 -27t18.5 -44v0z" />
    <glyph glyph-name="registered" unicode="&#xae;" 
 />
    <glyph glyph-name="copyright" unicode="&#xa9;" 
 />
    <glyph glyph-name="trademark" unicode="&#x2122;" 
 />
    <glyph glyph-name="acute" unicode="&#xb4;" horiz-adv-x="199" 
d="M182 705q2 -4 2.5 -7.5t0.5 -7.5q-1 -18 -12 -33t-25 -23q-9 -4 -21 -6.5t-26 -4.5q-14 -1 -28.5 -2t-29.5 -2q-7 -1 -14.5 -1t-14.5 -1q2 3 4.5 6.5t4.5 6.5q12 16 24.5 32t26.5 30q10 10 18.5 17t15.5 11t15 6t17 2h2h2q12 -1 22.5 -6.5t15.5 -16.5v0z" />
    <glyph glyph-name="dieresis" unicode="&#xa8;" horiz-adv-x="406" 
d="M172 679q0 -24 -18 -36t-39 -14q-3 -1 -6 -1h-6q-25 0 -44 11.5t-19 39.5q0 24 19.5 36.5t43.5 13.5h2.5h2.5q14 0 26.5 -3.5t20.5 -10.5q9 -7 13 -16t4 -20v0zM326 679q0 -25 -19 -37t-41 -14h-5.5h-4.5q-25 0 -43.5 11.5t-18.5 39.5q0 26 21.5 38t46.5 12q14 0 26 -3.5
t21 -10.5q8 -7 12.5 -16t4.5 -20v0z" />
    <glyph glyph-name="AE" unicode="&#xc6;" horiz-adv-x="1030" 
d="M1126 194q-49 -114 -134 -157t-203 -43h-13.5t-12.5 1q-87 3 -158.5 41.5t-63.5 148.5v8v8h-153q-14 -16 -36 -39.5t-49 -48.5q-25 -24 -54 -46.5t-58 -38.5q-23 -13 -45.5 -20.5t-43.5 -7.5q-15 0 -28.5 4.5t-26.5 13.5q-17 13 -25.5 31t-8.5 37v4.5t1 5.5q1 15 8 29
t19 26q3 -31 19 -43.5t38 -12.5q9 0 18.5 2t18.5 5q16 4 31 11t28 15q7 4 14 8.5t12 8.5q81 66 154.5 141.5t143.5 152.5q8 9 15.5 17t14.5 16v2t1 3v2v2q0 28 -19 38.5t-45 10.5q-7 0 -14 -0.5t-14 -1.5q-18 -3 -35 -8t-30 -10q-5 -2 -9 -4t-7 -4q-7 -4 -15.5 -10.5
t-17.5 -14.5q-17 -15 -31.5 -34.5t-19.5 -39.5q-1 -4 -1.5 -8t-0.5 -8t1 -9.5t3 -10.5q9 -20 28.5 -27.5t40.5 -12.5q1 0 2 -0.5t2 -0.5l-6.5 -6.5l-6.5 -6.5q-16 -13 -36.5 -25t-41.5 -19q-9 -2 -17.5 -3.5t-16.5 -1.5q-16 0 -29.5 6t-24.5 20q-10 14 -14.5 28t-4.5 29v6.5
t1 6.5q3 33 22 64.5t41 52.5l1.5 1.5l1.5 1.5q44 41 113.5 70t144.5 39q16 2 32 3t32 1q44 0 84.5 -9.5t72.5 -29.5q33 19 83.5 31t105.5 14h6.5h6.5q59 0 111.5 -15t79.5 -50q6 -8 9.5 -17t5.5 -18q0 -3 0.5 -6t0.5 -6q0 -14 -6.5 -27.5t-20.5 -23.5q-11 -7 -23 -10.5
t-24 -3.5q-5 0 -10.5 0.5t-10.5 1.5q-16 3 -31.5 9t-30.5 13q3 2 6 4.5t6 5.5q11 8 20 18.5t9 24.5q0 2 -0.5 5t-1.5 6q-5 16 -20 22.5t-33 6.5h-5.5t-4.5 -1q-20 -2 -37.5 -7.5t-28.5 -12.5q-21 -14 -34.5 -37.5t-13.5 -50.5q-1 -23 11 -41.5t38 -18.5h30.5h30.5h30.5h30.5
l-18 -55l-86 1q-7 -1 -14.5 -2t-14.5 -2q-50 -11 -91 -45t-41 -89q0 -52 38.5 -76.5t84.5 -24.5q72 0 129.5 38.5t84.5 104.5l54 -26v0zM549 400q-10 -12 -19.5 -24.5t-19.5 -25.5q-19 -25 -38.5 -49.5t-39.5 -49.5h111q0 19 0.5 37.5t1.5 37.5q1 18 2 36.5t2 37.5v0z" />
    <glyph glyph-name="Oslash" unicode="&#xd8;" horiz-adv-x="770" 
d="M755 617l-640 -691l-38 38l640 691l38 -38v0zM804 346q0 -140 -107 -225t-236 -110q-26 -6 -52.5 -8.5t-52.5 -2.5q-13 0 -26.5 0.5t-27.5 1.5q-107 9 -196 63.5t-89 180.5q0 135 104 220t229 112q27 6 54 9t53 3q12 0 23.5 -0.5t23.5 -0.5q112 -7 206 -59.5t94 -183.5v0
zM549 445q0 8 -0.5 17t-2.5 19q-4 23 -16 42t-38 19q-45 0 -84 -43.5t-67 -96.5q-16 -31 -28 -60.5t-18 -49.5q-12 -40 -18.5 -76t-6.5 -67q0 -52 16.5 -77t41.5 -25q19 1 42.5 15t47.5 40q3 3 6 6.5t6 7.5q33 41 59.5 96.5t42.5 114.5q8 30 12.5 60t4.5 58v0z" />
    <glyph glyph-name="plusminus" unicode="&#xb1;" 
 />
    <glyph glyph-name="yen" unicode="&#xa5;" horiz-adv-x="912" 
d="M873 390q-4 -4 -9.5 -8t-10.5 -9l-2 6l-2 6q-8 20 -18.5 30t-38.5 10q-9 0 -18 -1.5t-18 -4.5q-35 -11 -67.5 -37.5t-58.5 -56.5q-11 -12 -20.5 -23.5t-16.5 -22.5h92l-15 -45h-104q-7 -13 -14 -27t-13 -29h112l-15 -45h-112l-47 -133h-233l46 133h-103l16 45h101
q5 15 7.5 29t3.5 27h-94l15 45h83v12t-1 12q-2 23 -9 46t-20 43q-15 23 -36 35t-43 15q-4 1 -7.5 1h-7.5q-39 0 -69 -25.5t-30 -71.5v-4v-4t0.5 -4t0.5 -4q5 -31 22 -41t39 -10q10 0 20 1.5t20 2.5q0 -1 -0.5 -1.5t-0.5 -1.5q-11 -31 -30.5 -56.5t-57.5 -26.5
q-51 -1 -73.5 30.5t-22.5 71.5q0 8 1 16l2 16l4 16t5 16q28 76 99.5 114.5t150.5 38.5h3h2q98 0 178.5 -56.5t75.5 -168.5q12 18 26.5 38t31.5 41q44 53 100 97.5t119 43.5q35 -1 61 -22.5t26 -50.5q0 -4 -0.5 -8t-1.5 -8q-3 -8 -8.5 -16t-14.5 -16v0z" />
    <glyph glyph-name="mu" unicode="&#xb5;" 
 />
    <glyph glyph-name="ordfeminine" unicode="&#xaa;" horiz-adv-x="397" 
d="M448 479q-25 -52 -59 -88t-99 -36q-22 0 -42.5 9.5t-30.5 31.5q-19 -18 -43 -28.5t-50 -12.5h-4.5h-4.5h-4h-4q-21 2 -40.5 11t-33.5 27q-12 16 -17.5 33t-5.5 34q0 31 16 60t42 48q18 14 42.5 24t49.5 12q4 1 8 1h8q22 -1 42 -7t36 -20l6 21h66.5h64.5
q-6 -18 -12.5 -36.5t-12.5 -37.5q-7 -19 -13 -37.5t-12 -36.5q0 -1 -0.5 -2.5t-1.5 -3.5q0 -2 -0.5 -4t-1.5 -4v-2v-2q0 -3 1 -5t3 -3t3.5 -1h3.5q4 0 7.5 1.5t7.5 3.5q8 5 15.5 12.5t13.5 15.5t10.5 15t6.5 12q0 1 0.5 2l1.5 3q1 1 1.5 2.5t0.5 2.5l35 -15v0zM236 546
q0 8 -3 12.5t-11 4.5q-3 0 -6.5 -1t-7.5 -2q-13 -6 -25.5 -19.5t-22.5 -28.5q-7 -11 -13 -21.5t-9 -17.5q-1 -2 -2.5 -7t-3.5 -11q-1 -5 -2 -9.5t-2 -9.5q-1 -4 -1.5 -8.5t-0.5 -8.5q0 -10 3.5 -16.5t12.5 -6.5q20 0 35 16t26 36q5 9 9 18.5t7 16.5q8 20 12.5 36t4.5 27v0z
" />
    <glyph glyph-name="ordmasculine" unicode="&#xba;" horiz-adv-x="387" 
d="M448 478l-9.5 -19t-12.5 -23q-13 -22 -31.5 -40.5t-43.5 -18.5q-10 0 -18.5 3t-16.5 8q-27 -22 -63 -34t-73 -14h-5.5h-4.5q-34 0 -66 10t-56 32q-19 18 -28.5 38t-9.5 40q0 31 18.5 60t49.5 48q27 17 60.5 27.5t69.5 10.5q7 0 14 -0.5t14 -1.5q27 -3 52 -13t45 -27
q18 -16 27.5 -37t9.5 -44q0 -4 -0.5 -8t-0.5 -7l-2 -8l-2 -8q9 1 16 5t13 11q4 5 8 11.5t9 14.5l37 -16v0zM256 533q-1 21 -7.5 30.5t-17.5 9.5q-10 0 -21 -7t-22 -20q-16 -19 -25 -41.5t-13 -46.5q-1 -8 -1.5 -15.5t-0.5 -15.5q0 -4 0.5 -10t1.5 -13q1 -11 6 -20.5t16 -9.5
q17 0 29 11.5t21 25.5l4 8t4 7q-11 6 -16 17.5t-5 24.5v3.5v3.5q3 19 15.5 36t31.5 22v0z" />
    <glyph glyph-name="ae" unicode="&#xe6;" horiz-adv-x="649" 
d="M736 176q-2 -5 -4.5 -10l-4.5 -9q-22 -43 -55 -82t-75 -61q-30 -14 -65.5 -22t-72.5 -8q-53 1 -103 18t-84 56q-22 -24 -54.5 -40.5t-66.5 -19.5q-5 0 -9.5 -0.5t-9.5 -0.5q-11 0 -22 1.5t-22 4.5q-31 11 -52.5 36t-21.5 56q0 4 0.5 8.5t1.5 9.5q1 2 1.5 4.5t1.5 4.5
q13 39 54.5 59t89.5 28q28 5 54.5 7t47.5 3q1 4 1.5 8t0.5 8q1 3 1 7v8q0 13 -4.5 24t-18.5 18q-8 4 -17.5 5.5t-19.5 1.5t-20 -1.5t-21 -4.5q-16 -4 -31.5 -10t-29.5 -13q-7 -3 -14 -6.5l-13 -6.5l-18 45q43 23 89 35.5t95 12.5q9 0 17.5 -0.5t17.5 -1.5q20 -1 40 -6
t38 -14q33 14 70 22t74 8q17 0 34.5 -2t33.5 -6q1 0 2.5 -0.5t3.5 -0.5q29 -9 54 -29t26 -54q3 -54 -42.5 -86.5t-99.5 -46.5q-27 -7 -53 -10t-46 -2q3 -33 22 -54t53 -21q63 0 107 42.5t77 92.5q3 5 5.5 9.5t5.5 8.5l51 -23v0zM254 170h-10h-11q-2 -1 -4 -1h-4q-3 0 -6 -1
t-6 -1q-26 -8 -48.5 -30t-21.5 -50v-2.5v-3.5q2 -13 9 -21t19 -7h1.5h1.5h0.5h1.5q29 3 43.5 25.5t22.5 48.5q3 11 6 21t5 19q0 1 0.5 1.5t0.5 1.5v0zM558 258q3 8 4.5 15.5t1.5 14.5q0 11 -6.5 19t-23.5 9q-33 1 -57.5 -26t-37.5 -60q-6 -14 -10 -27.5t-6 -24.5
q10 1 20 2.5t20 4.5q30 8 57 26t38 47v0z" />
    <glyph glyph-name="oslash" unicode="&#xf8;" horiz-adv-x="577" 
d="M553 390l-468 -468l-38 38l468 469l38 -39v0zM668 173q-6 -12 -14 -28.5t-18 -33.5q-19 -33 -46.5 -60.5t-64.5 -27.5q-15 0 -28.5 4.5t-25.5 11.5q-39 -32 -91.5 -50t-107.5 -21h-8.5h-9.5q-52 0 -100 15.5t-84 46.5q-29 26 -42 55.5t-13 59.5q0 47 28 90t74 73
q40 26 90 41t103 15q8 0 15.5 -0.5t15.5 -0.5q43 -4 84 -18.5t72 -43.5q27 -24 41 -54.5t14 -63.5q0 -12 -2 -24t-6 -24q14 2 24.5 7.5t20.5 17.5q6 6 12 15.5t13 21.5l54 -24v0zM383 256q-1 31 -11.5 44.5t-26.5 13.5q-10 0 -22 -5.5t-24 -15.5q-5 -4 -9.5 -9t-9.5 -10
q-23 -27 -37 -61.5t-20 -70.5q-1 -12 -2 -23.5t-1 -22.5q0 -6 0.5 -15t2.5 -18q3 -17 10.5 -30.5t23.5 -13.5q25 0 44.5 17.5t31.5 39.5q3 5 6 9.5t5 9.5q-16 11 -24.5 27.5t-8.5 35.5v4v3q3 30 22.5 56.5t49.5 34.5v0z" />
    <glyph glyph-name="questiondown" unicode="&#xbf;" horiz-adv-x="677" 
d="M14 -53q13 77 81.5 96.5t150.5 26.5q5 1 10.5 1.5t11.5 0.5q68 7 128.5 25.5t79.5 76.5l4 13h59q-1 -5 -1.5 -10.5t-1.5 -10.5q-7 -48 -43.5 -75t-81.5 -51q-2 -1 -4.5 -2.5t-5.5 -2.5q-10 -5 -21.5 -10.5t-23.5 -12.5q-33 -18 -61 -45t-28 -66q0 -30 22 -45t48 -20
q7 -1 13.5 -1.5t12.5 -0.5q8 0 16 1t17 2q28 6 54 23t36 44q2 5 3 9.5t1 9.5q-1 13 -10 21t-22 15q-3 2 -6 3.5t-6 3.5l4.5 4.5t5.5 4.5q18 15 38 26t47 13h9.5h9.5q35 -4 65 -28t30 -63q0 -7 -1.5 -14.5t-4.5 -15.5q-16 -40 -89 -74t-239 -34q-33 0 -63.5 2.5t-57.5 6.5
q-15 3 -33 7t-36 10q-44 16 -81.5 45t-37.5 75q0 2 0.5 4t0.5 4q0 3 0.5 5t0.5 4v-1zM419 302q2 37 35.5 55t73.5 18q43 -1 78 -22t33 -62q-2 -33 -27.5 -49.5t-55.5 -20.5q-7 -1 -13.5 -1.5t-12.5 -0.5q-8 0 -17.5 1.5t-19.5 3.5q-28 8 -52 27.5t-22 50.5v0z" />
    <glyph glyph-name="exclamdown" unicode="&#xa1;" horiz-adv-x="413" 
d="M17 -119q0 42 23 73t51 57q2 3 5 5.5t5 4.5q38 38 70.5 78t60.5 87h52q-2 -24 -3.5 -48t-2.5 -47q0 -24 1 -48t5 -47q0 -2 0.5 -3.5t0.5 -2.5q3 -17 4.5 -35.5t0.5 -47.5q-1 -51 -41.5 -83t-88.5 -38q-6 -1 -12 -1.5t-12 -0.5h-1.5h-1.5q-43 1 -79.5 25t-36.5 73v-1z
M173 302q2 31 25.5 47.5t52.5 21.5q9 2 18 3t17 1q7 0 14 -1l14 -2q31 -6 55.5 -26t22.5 -55q-1 -32 -25 -48.5t-53 -21.5q-7 -1 -14.5 -1.5t-14.5 -0.5q-8 0 -17 1t-17 3q-30 7 -55 27t-23 52v0z" />
    <glyph glyph-name="logicalnot" unicode="&#xac;" 
 />
    <glyph glyph-name="florin" unicode="&#x192;" 
 />
    <glyph glyph-name="guillemotleft" unicode="&#xab;" horiz-adv-x="530" 
d="M223 204l-96 -70l-107 163l219 163l49 -70l-117 -93l52 -93v0zM454 204l-95 -70l-108 163l220 163l48 -70l-115 -93l50 -93v0z" />
    <glyph glyph-name="guillemotright" unicode="&#xbb;" horiz-adv-x="530" 
d="M265 297l-219 -163l-48 70l115 93l-50 93l95 70l107 -163v0zM502 297l-219 -163l-49 70l116 93l-51 93l96 70l107 -163v0z" />
    <glyph glyph-name="ellipsis" unicode="&#x2026;" horiz-adv-x="733" 
d="M225 75q0 -37 -31.5 -62.5t-75.5 -25.5t-75.5 25.5t-31.5 62.5t31.5 63t75.5 26t75.5 -26t31.5 -63v0zM475 75q0 -37 -31.5 -62.5t-75.5 -25.5t-75.5 25.5t-31.5 62.5t31.5 63t75.5 26t75.5 -26t31.5 -63v0zM725 75q0 -37 -31.5 -62.5t-75.5 -25.5t-75.5 25.5t-31.5 62.5
t31.5 63t75.5 26t75.5 -26t31.5 -63v0z" />
    <glyph glyph-name="Agrave" unicode="&#xc0;" horiz-adv-x="843" 
d="M931 209q-6 -77 -71.5 -137t-142.5 -70q-6 0 -12.5 -0.5t-12.5 -0.5q-26 0 -50.5 7.5t-47.5 23.5q-36 27 -46.5 64t-15.5 77q-1 3 -1.5 6.5t-0.5 6.5h-168q-11 -15 -24 -31.5t-28 -33.5q-38 -45 -86.5 -82t-100.5 -37h-3.5h-3.5t-3.5 0.5t-3.5 0.5q-47 5 -73 39t-26 77
v3.5t1 2.5v3.5v2.5h0.5h1.5q3 0 7.5 0.5t10.5 1.5v0v0q6 1 10.5 1.5t7.5 0.5q1 -17 14 -26t29 -12q4 0 8 -0.5t8 -0.5q32 0 58.5 14.5t48.5 34.5q74 69 136.5 148t122.5 160q3 4 6.5 9t6.5 9q-1 21 -14 35.5t-33 21.5q-8 3 -17 4.5t-19 0.5q-7 0 -14.5 -1t-15.5 -2
q-46 -10 -85.5 -43.5t-44.5 -77.5v-2.5v-3.5q-1 -1 -1 -2.5v-2.5q1 -34 25 -46.5t52 -16.5l12 -2t12 -1q1 -1 2.5 -1h2.5q-3 -2 -6 -4.5t-6 -5.5q-24 -21 -50.5 -38.5t-61.5 -18.5q-48 -1 -72.5 32t-24.5 75q0 11 2 22.5t6 22.5q24 70 89 108t138 53q32 7 63 10t59 3
q116 0 185 -56.5t77 -175.5q1 -9 1 -18.5t1 -18.5q0 -10 0.5 -21t1.5 -22q2 -33 6 -66t13 -65q4 -14 11.5 -20t16.5 -6q4 0 8 1.5t8 2.5q3 2 7 4.5t8 5.5q16 12 30 32.5t21 48.5l51 -7v0zM519 251q-3 19 -5.5 38t-4.5 38q-3 18 -5 37l-4 38q-19 -33 -42.5 -71.5t-49.5 -79.5
h111v0zM548 611q-7 1 -14.5 1t-14.5 1q-14 1 -28.5 2t-29.5 2q-13 2 -25.5 4.5t-21.5 6.5q-14 8 -25.5 23.5t-11.5 32.5q0 4 1 7.5t2 7.5q5 12 17.5 17.5t25.5 5.5q9 0 17 -2t14 -6q8 -4 16 -11t18 -17q14 -14 26.5 -30t24.5 -32q2 -3 4.5 -6.5t4.5 -6.5v0z" />
    <glyph glyph-name="Atilde" unicode="&#xc3;" horiz-adv-x="843" 
d="M931 209q-6 -77 -71.5 -137t-142.5 -70q-6 0 -12.5 -0.5t-12.5 -0.5q-26 0 -50.5 7.5t-47.5 23.5q-36 27 -46.5 64t-15.5 77q-1 3 -1.5 6.5t-0.5 6.5h-168q-11 -15 -24 -31.5t-28 -33.5q-38 -45 -86.5 -82t-100.5 -37h-3.5h-3.5t-3.5 0.5t-3.5 0.5q-47 5 -73 39t-26 77
v3.5t1 2.5v3.5v2.5h0.5h1.5q3 0 7.5 0.5t10.5 1.5v0v0q6 1 10.5 1.5t7.5 0.5q1 -17 14 -26t29 -12q4 0 8 -0.5t8 -0.5q32 0 58.5 14.5t48.5 34.5q74 69 136.5 148t122.5 160q3 4 6.5 9t6.5 9q-1 21 -14 35.5t-33 21.5q-8 3 -17 4.5t-19 0.5q-7 0 -14.5 -1t-15.5 -2
q-46 -10 -85.5 -43.5t-44.5 -77.5v-2.5v-3.5q-1 -1 -1 -2.5v-2.5q1 -34 25 -46.5t52 -16.5l12 -2t12 -1q1 -1 2.5 -1h2.5q-3 -2 -6 -4.5t-6 -5.5q-24 -21 -50.5 -38.5t-61.5 -18.5q-48 -1 -72.5 32t-24.5 75q0 11 2 22.5t6 22.5q24 70 89 108t138 53q32 7 63 10t59 3
q116 0 185 -56.5t77 -175.5q1 -9 1 -18.5t1 -18.5q0 -10 0.5 -21t1.5 -22q2 -33 6 -66t13 -65q4 -14 11.5 -20t16.5 -6q4 0 8 1.5t8 2.5q3 2 7 4.5t8 5.5q16 12 30 32.5t21 48.5l51 -7v0zM519 251q-3 19 -5.5 38t-4.5 38q-3 18 -5 37l-4 38q-19 -33 -42.5 -71.5t-49.5 -79.5
h111v0zM719 698q-4 -16 -17 -32t-36 -30q-22 -15 -45.5 -22t-49.5 -7q-16 0 -36.5 4.5t-45.5 12.5q-4 1 -8 2.5t-8 2.5q-9 3 -18.5 5.5t-19.5 4.5q-6 1 -11.5 1.5t-10.5 0.5q-6 0 -12 -1t-12 -3q-5 -1 -14 -5.5t-23 -12.5q22 45 60.5 67.5t91.5 22.5q17 0 37.5 -4t43.5 -12
q3 -1 6.5 -2t6.5 -2q9 -2 18.5 -4.5t19.5 -3.5q6 -1 11.5 -1.5t11.5 -0.5q8 0 15 1t14 4q6 3 13.5 6.5t17.5 7.5v0z" />
    <glyph glyph-name="Otilde" unicode="&#xd5;" horiz-adv-x="770" 
d="M804 346q0 -140 -107 -225t-236 -110q-26 -6 -52.5 -8.5t-52.5 -2.5q-13 0 -26.5 0.5t-27.5 1.5q-107 9 -196 63.5t-89 180.5q0 135 104 220t229 112q27 6 54 9t53 3q12 0 23.5 -0.5t23.5 -0.5q112 -7 206 -59.5t94 -183.5v0zM549 445q0 8 -0.5 17t-2.5 19q-4 23 -16 42
t-38 19q-45 0 -84 -43.5t-67 -96.5q-16 -31 -28 -60.5t-18 -49.5q-12 -40 -18.5 -76t-6.5 -67q0 -52 16.5 -77t41.5 -25q19 1 42.5 15t47.5 40q3 3 6 6.5t6 7.5q33 41 59.5 96.5t42.5 114.5q8 30 12.5 60t4.5 58v0zM716 701q-4 -16 -17 -32t-36 -30q-22 -15 -45.5 -22
t-49.5 -7q-16 0 -36.5 4.5t-45.5 12.5q-4 1 -8 2.5t-8 2.5q-9 3 -18.5 5.5t-19.5 4.5q-6 1 -11.5 1.5t-10.5 0.5q-6 0 -12 -1t-12 -3q-5 -1 -14 -5.5t-23 -12.5q22 45 60.5 67.5t91.5 22.5q17 0 37.5 -4t43.5 -12q3 -1 6.5 -2t6.5 -2q9 -2 18.5 -4.5t19.5 -3.5
q6 -1 11.5 -1.5t11.5 -0.5q8 0 15 1t14 4q6 3 13.5 6.5t17.5 7.5v0z" />
    <glyph glyph-name="OE" unicode="&#x152;" horiz-adv-x="1001" 
d="M1092 190q-48 -115 -133.5 -157.5t-203.5 -42.5q-17 0 -34.5 1t-34.5 3q-44 5 -86 17t-78 35q-41 -23 -91.5 -37t-103.5 -18q-7 0 -15 -0.5t-16 -0.5q-108 0 -194 55.5t-86 184.5q0 152 121.5 250t266.5 98q15 0 29.5 -0.5t29.5 -2.5q47 -5 91.5 -20t79.5 -46
q25 33 65.5 50.5t84.5 25.5q26 4 50.5 6t46.5 2q17 0 41.5 -2.5t50.5 -8.5q44 -10 81 -33t37 -64v-2v-2q-1 -2 -1 -3v-2q-3 -31 -25 -44t-50 -13q-14 0 -28 3t-26 8q-10 4 -15.5 6t-7.5 4q-1 1 -1 1.5v1.5q0 2 5 6t15 11q10 8 14.5 16.5t4.5 16.5q-1 17 -18 29t-40 12
q-47 0 -85 -29t-38 -79q-1 -46 29 -55t65 -8q5 1 9.5 1h9.5q9 1 17 1.5t16 0.5h6.5h6.5h6.5h6.5l-18 -55h-13h-13q-31 1 -59.5 -0.5t-56.5 -10.5q-11 -4 -22.5 -9.5t-22.5 -13.5q-25 -16 -39.5 -39t-18.5 -47q-1 -5 -1.5 -9.5t-0.5 -9.5q0 -33 22 -60.5t67 -36.5
q10 -1 19.5 -2.5t18.5 -1.5q68 0 126.5 41t83.5 104l53 -26v0zM478 438q0 7 -0.5 18t-2.5 22q-4 20 -13 36t-28 16q-37 0 -70 -41.5t-57 -91.5q-17 -35 -28.5 -66.5t-16.5 -49.5q-1 -5 -2.5 -11t-3.5 -12q-5 -18 -9 -39t-7 -43l-2 -22t-1 -22q1 -19 3.5 -36.5t8.5 -32.5
t15 -21.5t19 -6.5q6 0 13 2.5t14 6.5q10 6 19.5 14.5t18.5 17.5q7 7 12.5 14t9.5 13q29 41 52 94.5t38 109.5q8 34 13 67.5t5 63.5v0z" />
    <glyph glyph-name="oe" unicode="&#x153;" horiz-adv-x="757" 
d="M840 176q-21 -47 -53 -87t-79 -63q-27 -13 -58.5 -20.5t-63.5 -9.5h-8h-8q-42 0 -82.5 11t-73.5 34q-34 -20 -76 -31t-86 -13h-6h-6q-48 0 -93.5 14t-80.5 45q-28 25 -40.5 52.5t-12.5 55.5q0 44 27 86t70 70q38 25 86 39t99 14h12.5t12.5 -1q34 -2 67.5 -12t62.5 -30
q28 16 61.5 26t68.5 13q8 0 15.5 0.5t14.5 0.5q18 0 36 -1.5t34 -6.5q1 0 1.5 -0.5t1.5 -0.5q31 -8 57 -27.5t28 -55.5q2 -54 -43.5 -86.5t-100.5 -46.5q-27 -7 -52.5 -10t-45.5 -2q3 -33 21.5 -54t53.5 -22q68 -1 112.5 41.5t75.5 100.5l51 -23v0zM353 192q1 4 2 9t2 12
q2 9 3.5 19t1.5 20q1 4 1 7.5v7.5q0 24 -7 42t-28 18q-11 0 -23.5 -7t-24.5 -18l-6.5 -6.5l-6.5 -6.5q-22 -26 -35.5 -58t-18.5 -66q-2 -12 -3 -24t-1 -23q0 -6 0.5 -14t1.5 -17q3 -15 10.5 -28t22.5 -13q31 0 53 26.5t36 58.5q7 17 12 33t8 28v0zM669 270q2 7 4 14.5
t2 14.5q-1 12 -7 20.5t-23 8.5q-33 1 -57.5 -26t-38.5 -59q-6 -14 -10 -28t-6 -25q9 1 19 2.5t20 3.5q31 8 58.5 26t38.5 48v0z" />
    <glyph glyph-name="emdash" unicode="&#x2014;" horiz-adv-x="674" 
d="M668 267h-663v91h663v-91v0z" />
    <glyph glyph-name="quotedblleft" unicode="&#x201c;" horiz-adv-x="451" 
d="M461 663h-2h-2h-10t-10 -1q-25 -1 -48 -6t-42 -22q-5 -4 -7.5 -8t-2.5 -7q1 -7 10.5 -11.5t21.5 -7.5q1 0 2.5 -0.5t2.5 -0.5q2 -1 4.5 -1.5t4.5 -1.5q25 -7 45.5 -23.5t18.5 -46.5q-2 -40 -35.5 -57t-74.5 -17q-25 1 -49 7t-40 17l-8 6t-7 7q-15 -19 -41 -27.5t-55 -8.5
q-25 0 -49 6t-40 17q-22 15 -31.5 34.5t-9.5 40.5q0 4 0.5 8.5t0.5 8.5q5 28 23.5 54.5t44.5 43.5q35 23 75 34t81 13l29 -50h-2h-2h-10t-10 -1q-25 -1 -48 -6t-42 -22q-5 -4 -7.5 -8t-2.5 -7q1 -7 10.5 -11.5t21.5 -7.5q1 0 2.5 -0.5t2.5 -0.5q11 -3 20.5 -6.5t17.5 -8.5
q8 24 25 45.5t39 36.5q35 23 75 34t81 13l29 -50v0z" />
    <glyph glyph-name="quotedblright" unicode="&#x201d;" horiz-adv-x="467" 
d="M419 672q22 -15 31.5 -34.5t9.5 -39.5q0 -4 -0.5 -8.5t-1.5 -8.5q-5 -28 -23.5 -54.5t-44.5 -43.5q-34 -24 -74 -34.5t-82 -13.5l-28 51h2h2h10t10 1q25 1 48 6t42 21q5 5 7.5 8.5t1.5 6.5q0 7 -9.5 11.5t-20.5 7.5q-2 1 -3.5 1.5t-3.5 0.5q-10 2 -19.5 6t-18.5 9
q-7 -25 -24 -46t-40 -36q-34 -24 -74 -34.5t-82 -13.5l-28 51h2h2h10t10 1q25 1 48 6t42 21q5 5 7.5 8.5t1.5 6.5q0 7 -9.5 11.5t-20.5 7.5q-2 1 -3.5 1.5t-3.5 0.5t-3.5 0.5t-3.5 1.5q-26 7 -46.5 24t-18.5 47q2 39 35 56t73 17q26 0 50.5 -6.5t40.5 -17.5q5 -2 8.5 -5
t5.5 -7q15 19 41 27.5t55 8.5q26 0 50 -6.5t40 -17.5v0z" />
    <glyph glyph-name="quoteleft" unicode="&#x2018;" horiz-adv-x="280" 
d="M269 661h-2h-2q-6 0 -11.5 -0.5t-10.5 -0.5q-24 -1 -47 -6t-42 -22q-5 -4 -7 -8t-2 -7q1 -7 10.5 -11.5t21.5 -7.5q1 0 2.5 -0.5t2.5 -0.5q2 0 3.5 -0.5t3.5 -1.5q26 -7 46.5 -24t18.5 -47q-1 -39 -34 -56t-72 -18h-1.5h-1.5h-3.5h-3.5q-24 2 -46 8t-37 16
q-22 15 -31.5 34.5t-9.5 40.5q0 4 0.5 8.5t1.5 8.5q5 28 23.5 54.5t44.5 43.5q35 23 75 34t81 13l29 -50v0z" />
    <glyph glyph-name="quoteright" unicode="&#x2019;" horiz-adv-x="280" 
d="M219 672q22 -15 31.5 -34.5t9.5 -39.5q0 -4 -0.5 -8.5t-1.5 -8.5q-5 -28 -23.5 -54.5t-44.5 -43.5q-34 -24 -74 -34.5t-82 -13.5l-28 51h2h2h10t10 1q25 1 48 6t42 21q5 5 7.5 8.5t1.5 6.5q0 7 -9.5 11.5t-20.5 7.5q-2 1 -3.5 1.5t-3.5 0.5t-3.5 0.5t-3.5 1.5
q-26 7 -46.5 24t-18.5 47q2 39 35 56t73 17q26 0 50.5 -6.5t40.5 -17.5v0z" />
    <glyph glyph-name="divide" unicode="&#xf7;" 
 />
    <glyph glyph-name="ydieresis" unicode="&#xff;" horiz-adv-x="514" 
d="M554 354l-36 -106l-36 -106q-19 -53 -37 -105.5t-36 -105.5q-23 -68 -91.5 -112t-144.5 -54q-10 -1 -19.5 -1.5t-18.5 -0.5q-31 0 -60.5 7t-54.5 22q-24 15 -37.5 35t-19.5 48q0 2 -0.5 4t-0.5 4q-1 2 -1 4v4q1 27 20 46.5t46 24.5q5 1 9.5 1.5t8.5 0.5q36 -1 58 -24
t22 -51v-1.5v-1.5q0 -20 -12.5 -38.5t-39.5 -27.5q2 -1 4.5 -2t5.5 -1q2 -1 4.5 -1h4.5q53 -1 83.5 40.5t49.5 92.5q9 25 16.5 49t13.5 43q-22 -17 -51.5 -30t-61.5 -18q-6 -1 -12.5 -1.5t-13.5 -0.5q-25 0 -47.5 9.5t-38.5 33.5q-9 14 -13 30.5t-4 32.5t3 31.5t8 29.5
q9 24 17.5 48.5t16.5 49.5t16.5 49.5t16.5 48.5h191q-10 -28 -19.5 -56t-19.5 -56t-19.5 -56t-18.5 -56q-1 -2 -2 -5t-1 -7q-1 -1 -1 -2.5v-3.5q0 -4 2 -7.5t6 -5.5q3 -1 6 -1.5t6 -0.5q29 0 55 41.5t45 90.5q16 40 26.5 75.5t15.5 49.5h191v0zM316 435q0 -22 -16.5 -32.5
t-36.5 -12.5h-4h-4q-22 0 -38.5 10t-16.5 35q0 22 17 33t38 12h2.5h2.5q12 0 23.5 -3t18.5 -9q7 -7 10.5 -14.5t3.5 -18.5v0zM451 435q0 -22 -16.5 -32.5t-36.5 -12.5h-4h-4q-22 0 -38 10t-16 35q0 23 17.5 33.5t38.5 11.5h1.5h1.5q12 0 23 -3t18 -9q8 -7 11.5 -14.5
t3.5 -18.5v0z" />
    <glyph glyph-name="Ydieresis" unicode="&#x178;" horiz-adv-x="874" 
d="M996 600q-22 -63 -43.5 -126.5t-43.5 -126.5t-43.5 -126.5t-43.5 -126.5q-47 -139 -169 -210t-262 -70q-28 0 -56.5 3t-56.5 9q-11 2 -24 5.5t-26 8.5q-38 14 -69.5 39t-31.5 68q0 45 32.5 70t71.5 25q22 0 42.5 -8.5t36.5 -27.5l17 -18q-3 -1 -6.5 -2.5t-6.5 -2.5
q-20 -10 -36.5 -23t-16.5 -35v-5t1 -6q3 -19 19 -28.5t34 -11.5q1 -1 2.5 -1h3.5q106 -5 167 68t93 163q1 2 1.5 4t1.5 4q-36 -34 -83.5 -57.5t-97.5 -26.5h-5.5h-4.5q-5 0 -10.5 0.5t-10.5 0.5q-11 2 -21.5 4.5t-20.5 5.5q-51 18 -76 59t-25 88q0 9 1 17.5t3 17.5
q1 9 3.5 17.5t5.5 17.5q9 26 20.5 51t23.5 50q0 1 1 2.5t1 2.5q13 28 26 56.5t23 57.5q3 10 4.5 19.5t1.5 17.5q0 25 -14.5 41t-47.5 16q-54 0 -92.5 -37t-43.5 -89q-4 -49 20 -60t61 -14h0.5h1.5q-6 -7 -11.5 -13.5t-10.5 -12.5q-17 -20 -35.5 -31.5t-36.5 -14.5
q-5 -1 -9.5 -1.5t-9.5 -0.5q-40 1 -70.5 31.5t-30.5 76.5q0 14 3 27.5t9 28.5q30 72 108 113.5t166 50.5q13 1 25 1.5t24 0.5q94 0 165.5 -38.5t71.5 -116.5q0 -13 -2.5 -27.5t-7.5 -29.5q-10 -31 -24.5 -60t-29.5 -58q-3 -5 -9.5 -17t-13.5 -28q-4 -7 -7.5 -15t-6.5 -16
q-5 -13 -8 -25.5t-3 -23.5q0 -13 6.5 -21.5t22.5 -8.5q3 0 5.5 0.5t5.5 0.5q28 6 55 38t49 69q16 28 28 54.5t17 40.5l14 40t31 88l26.5 79.5t16.5 48.5h245v0zM665 674q0 -24 -18 -36t-39 -14q-3 -1 -6 -1h-6q-25 0 -44 11.5t-19 39.5q0 24 19.5 36.5t43.5 13.5h2.5h2.5
q14 0 26.5 -3.5t20.5 -10.5q9 -7 13 -16t4 -20v0zM819 674q0 -25 -19 -37t-41 -14h-5.5h-4.5q-25 0 -43.5 11.5t-18.5 39.5q0 26 21.5 38t46.5 12q14 0 26 -3.5t21 -10.5q8 -7 12.5 -16t4.5 -20v0z" />
    <glyph glyph-name="currency" unicode="&#xa4;" horiz-adv-x="796" 
d="M790 483l-57 -56q-13 42 -50.5 70.5t-91.5 27.5q-15 0 -30.5 -2.5t-32.5 -7.5q-44 -13 -74.5 -52t-51.5 -83q-1 -1 -1.5 -2t-0.5 -2h283l-40 -40l-16 -16h-251v-1.5v-0.5q-1 -1 -1 -1.5v-1.5q-2 -4 -3.5 -10t-3.5 -12h251l-57 -56h-207q-1 -10 -2 -19.5t-1 -19.5
q0 -37 14.5 -69t53.5 -46q7 -3 14.5 -4.5t14.5 -3.5q7 -1 14.5 -1.5t14.5 -0.5h4.5h4.5q45 2 88 23.5t75 53.5l42 -40q-56 -58 -129 -84t-166 -26q-108 0 -191.5 64t-94.5 173h-112l57 56h56q0 5 0.5 9.5t1.5 8.5q1 2 1.5 4.5t0.5 4.5h-83l57 56h43q38 91 127 146t188 70
q18 3 36 4.5t36 1.5q87 0 162 -20t108 -95v0z" />
    <glyph glyph-name="guilsinglleft" unicode="&#x2039;" horiz-adv-x="300" 
d="M227 204l-97 -70l-106 163l219 163l48 -70l-116 -93l52 -93v0z" />
    <glyph glyph-name="guilsinglright" unicode="&#x203a;" horiz-adv-x="300" 
d="M283 297l-219 -163l-48 70l115 93l-50 93l95 70l107 -163v0z" />
    <glyph glyph-name="daggerdbl" unicode="&#x2021;" 
d="M468 446l-183 62l69 -182q-19 -63 -33 -131t-21 -138q-6 -52 -9 -103t-2 -100l-73 -1q1 50 -2 101t-9 103q-7 70 -21 138t-33 131l68 182l-183 -62v183l182 -59l-59 227h188l-61 -227l182 59v-183v0z" />
    <glyph glyph-name="quotesinglbase" unicode="&#x201a;" horiz-adv-x="280" 
d="M219 110q22 -15 31.5 -34.5t9.5 -39.5q0 -4 -0.5 -8.5t-1.5 -8.5q-5 -27 -23.5 -53.5t-44.5 -43.5q-34 -23 -74 -34t-82 -14l-28 50q1 1 2 1h2h10t10 1q25 1 48 6t42 21q5 4 7.5 8t1.5 7q0 7 -9.5 11.5t-20.5 7.5q-2 1 -3.5 1.5t-3.5 0.5t-3.5 0.5t-3.5 1.5
q-26 7 -46.5 23.5t-18.5 46.5q2 39 35.5 56t73.5 17q26 0 50 -6.5t40 -17.5v0z" />
    <glyph glyph-name="quotedblbase" unicode="&#x201e;" horiz-adv-x="512" 
d="M219 110q22 -15 31.5 -34.5t9.5 -39.5q0 -4 -0.5 -8.5t-1.5 -8.5q-5 -27 -23.5 -53.5t-44.5 -43.5q-34 -23 -74 -34t-82 -14l-28 50q1 1 2 1h2h10t10 1q25 1 48 6t42 21q5 4 7.5 8t1.5 7q0 7 -9.5 11.5t-20.5 7.5q-2 1 -3.5 1.5t-3.5 0.5t-3.5 0.5t-3.5 1.5
q-26 7 -46.5 23.5t-18.5 46.5q2 39 35.5 56t73.5 17q26 0 50 -6.5t40 -17.5v0zM467 110q22 -15 31.5 -34.5t9.5 -39.5q0 -4 -0.5 -8.5t-1.5 -8.5q-5 -27 -23.5 -53.5t-44.5 -43.5q-35 -23 -75 -34t-81 -14l-29 50q1 1 2 1h2q6 0 11.5 0.5t10.5 0.5q24 1 47 6t42 21q5 4 7 8
t2 7q-1 7 -10.5 12t-21.5 8q-1 0 -2.5 0.5t-2.5 0.5q-2 0 -3.5 0.5t-3.5 1.5q-26 7 -46.5 23.5t-18.5 46.5q2 39 35 56t73 17h3.5h3.5q24 -1 46.5 -7.5t37.5 -16.5v0z" />
    <glyph glyph-name="perthousand" unicode="&#x2030;" 
 />
    <glyph glyph-name="Acircumflex" unicode="&#xc2;" horiz-adv-x="843" 
d="M931 209q-6 -77 -71.5 -137t-142.5 -70q-6 0 -12.5 -0.5t-12.5 -0.5q-26 0 -50.5 7.5t-47.5 23.5q-36 27 -46.5 64t-15.5 77q-1 3 -1.5 6.5t-0.5 6.5h-168q-11 -15 -24 -31.5t-28 -33.5q-38 -45 -86.5 -82t-100.5 -37h-3.5h-3.5t-3.5 0.5t-3.5 0.5q-47 5 -73 39t-26 77
v3.5t1 2.5v3.5v2.5h0.5h1.5q3 0 7.5 0.5t10.5 1.5v0v0q6 1 10.5 1.5t7.5 0.5q1 -17 14 -26t29 -12q4 0 8 -0.5t8 -0.5q32 0 58.5 14.5t48.5 34.5q74 69 136.5 148t122.5 160q3 4 6.5 9t6.5 9q-1 21 -14 35.5t-33 21.5q-8 3 -17 4.5t-19 0.5q-7 0 -14.5 -1t-15.5 -2
q-46 -10 -85.5 -43.5t-44.5 -77.5v-2.5v-3.5q-1 -1 -1 -2.5v-2.5q1 -34 25 -46.5t52 -16.5l12 -2t12 -1q1 -1 2.5 -1h2.5q-3 -2 -6 -4.5t-6 -5.5q-24 -21 -50.5 -38.5t-61.5 -18.5q-48 -1 -72.5 32t-24.5 75q0 11 2 22.5t6 22.5q24 70 89 108t138 53q32 7 63 10t59 3
q116 0 185 -56.5t77 -175.5q1 -9 1 -18.5t1 -18.5q0 -10 0.5 -21t1.5 -22q2 -33 6 -66t13 -65q4 -14 11.5 -20t16.5 -6q4 0 8 1.5t8 2.5q3 2 7 4.5t8 5.5q16 12 30 32.5t21 48.5l51 -7v0zM519 251q-3 19 -5.5 38t-4.5 38q-3 18 -5 37l-4 38q-19 -33 -42.5 -71.5t-49.5 -79.5
h111v0zM660 581l-151 52l-195 -45l225 148l121 -155v0z" />
    <glyph glyph-name="Ecircumflex" unicode="&#xca;" horiz-adv-x="566" 
d="M662 195q-49 -114 -134 -157t-203 -43q-26 0 -58 2.5t-65 10.5q-72 16 -132 56t-60 114q0 68 52.5 112t115.5 59q15 3 29.5 5t28.5 2q-25 15 -41 38.5t-16 52.5q0 5 0.5 9.5t1.5 9.5q13 56 62 84t105 39q27 6 53.5 8t48.5 2q17 0 41.5 -2.5t50.5 -8.5q45 -10 81.5 -33
t36.5 -65v-3.5v-4.5q-4 -32 -26.5 -45.5t-50.5 -12.5h-6.5t-7.5 1q-10 1 -20 3.5t-19 6.5l-16.5 7.5t-7.5 4.5t3.5 6t17.5 13q10 8 14.5 16.5t3.5 15.5q0 17 -17 29.5t-40 12.5q-47 0 -84.5 -29.5t-38.5 -79.5q-1 -41 29 -51.5t65 -10.5h13h13q6 1 12.5 1h12.5h13.5h12.5
l-18 -53h-12.5h-13.5q-31 1 -60.5 -0.5t-58.5 -12.5q-11 -3 -21 -8.5t-21 -12.5q-25 -18 -40 -41.5t-18 -48.5q-1 -4 -1 -7.5v-7.5q0 -34 22 -61.5t67 -35.5q10 -1 19.5 -2.5t18.5 -1.5q68 0 126.5 41t83.5 103l53 -26v0zM625 598l-151 52l-195 -45l225 148l121 -155v0z" />
    <glyph glyph-name="Aacute" unicode="&#xc1;" horiz-adv-x="843" 
d="M931 209q-6 -77 -71.5 -137t-142.5 -70q-6 0 -12.5 -0.5t-12.5 -0.5q-26 0 -50.5 7.5t-47.5 23.5q-36 27 -46.5 64t-15.5 77q-1 3 -1.5 6.5t-0.5 6.5h-168q-11 -15 -24 -31.5t-28 -33.5q-38 -45 -86.5 -82t-100.5 -37h-3.5h-3.5t-3.5 0.5t-3.5 0.5q-47 5 -73 39t-26 77
v3.5t1 2.5v3.5v2.5h0.5h1.5q3 0 7.5 0.5t10.5 1.5v0v0q6 1 10.5 1.5t7.5 0.5q1 -17 14 -26t29 -12q4 0 8 -0.5t8 -0.5q32 0 58.5 14.5t48.5 34.5q74 69 136.5 148t122.5 160q3 4 6.5 9t6.5 9q-1 21 -14 35.5t-33 21.5q-8 3 -17 4.5t-19 0.5q-7 0 -14.5 -1t-15.5 -2
q-46 -10 -85.5 -43.5t-44.5 -77.5v-2.5v-3.5q-1 -1 -1 -2.5v-2.5q1 -34 25 -46.5t52 -16.5l12 -2t12 -1q1 -1 2.5 -1h2.5q-3 -2 -6 -4.5t-6 -5.5q-24 -21 -50.5 -38.5t-61.5 -18.5q-48 -1 -72.5 32t-24.5 75q0 11 2 22.5t6 22.5q24 70 89 108t138 53q32 7 63 10t59 3
q116 0 185 -56.5t77 -175.5q1 -9 1 -18.5t1 -18.5q0 -10 0.5 -21t1.5 -22q2 -33 6 -66t13 -65q4 -14 11.5 -20t16.5 -6q4 0 8 1.5t8 2.5q3 2 7 4.5t8 5.5q16 12 30 32.5t21 48.5l51 -7v0zM519 251q-3 19 -5.5 38t-4.5 38q-3 18 -5 37l-4 38q-19 -33 -42.5 -71.5t-49.5 -79.5
h111v0zM643 696q2 -4 2.5 -7.5t0.5 -7.5q-1 -18 -12 -33t-25 -23q-9 -4 -21 -6.5t-26 -4.5q-14 -1 -29 -2t-29 -2q-7 -1 -14.5 -1t-14.5 -1q2 3 4.5 6.5t4.5 6.5q12 16 24.5 32t26.5 30q10 10 18.5 17t15.5 11t15 6t17 2h2h2q12 -1 22.5 -6.5t15.5 -16.5v0z" />
    <glyph glyph-name="Edieresis" unicode="&#xcb;" horiz-adv-x="566" 
d="M662 195q-49 -114 -134 -157t-203 -43q-26 0 -58 2.5t-65 10.5q-72 16 -132 56t-60 114q0 68 52.5 112t115.5 59q15 3 29.5 5t28.5 2q-25 15 -41 38.5t-16 52.5q0 5 0.5 9.5t1.5 9.5q13 56 62 84t105 39q27 6 53.5 8t48.5 2q17 0 41.5 -2.5t50.5 -8.5q45 -10 81.5 -33
t36.5 -65v-3.5v-4.5q-4 -32 -26.5 -45.5t-50.5 -12.5h-6.5t-7.5 1q-10 1 -20 3.5t-19 6.5l-16.5 7.5t-7.5 4.5t3.5 6t17.5 13q10 8 14.5 16.5t3.5 15.5q0 17 -17 29.5t-40 12.5q-47 0 -84.5 -29.5t-38.5 -79.5q-1 -41 29 -51.5t65 -10.5h13h13q6 1 12.5 1h12.5h13.5h12.5
l-18 -53h-12.5h-13.5q-31 1 -60.5 -0.5t-58.5 -12.5q-11 -3 -21 -8.5t-21 -12.5q-25 -18 -40 -41.5t-18 -48.5q-1 -4 -1 -7.5v-7.5q0 -34 22 -61.5t67 -35.5q10 -1 19.5 -2.5t18.5 -1.5q68 0 126.5 41t83.5 103l53 -26v0zM454 670q0 -24 -18 -36t-39 -14q-3 -1 -6 -1h-6
q-25 0 -44 11.5t-19 39.5q0 24 19.5 36.5t43.5 13.5h2.5h2.5q14 0 26.5 -3.5t20.5 -10.5q9 -7 13 -16t4 -20v0zM608 670q0 -25 -19 -37t-41 -14h-5.5h-4.5q-25 0 -43.5 11.5t-18.5 39.5q0 26 21.5 38t46.5 12q14 0 26 -3.5t21 -10.5q8 -7 12.5 -16t4.5 -20v0z" />
    <glyph glyph-name="Egrave" unicode="&#xc8;" horiz-adv-x="566" 
d="M662 195q-49 -114 -134 -157t-203 -43q-26 0 -58 2.5t-65 10.5q-72 16 -132 56t-60 114q0 68 52.5 112t115.5 59q15 3 29.5 5t28.5 2q-25 15 -41 38.5t-16 52.5q0 5 0.5 9.5t1.5 9.5q13 56 62 84t105 39q27 6 53.5 8t48.5 2q17 0 41.5 -2.5t50.5 -8.5q45 -10 81.5 -33
t36.5 -65v-3.5v-4.5q-4 -32 -26.5 -45.5t-50.5 -12.5h-6.5t-7.5 1q-10 1 -20 3.5t-19 6.5l-16.5 7.5t-7.5 4.5t3.5 6t17.5 13q10 8 14.5 16.5t3.5 15.5q0 17 -17 29.5t-40 12.5q-47 0 -84.5 -29.5t-38.5 -79.5q-1 -41 29 -51.5t65 -10.5h13h13q6 1 12.5 1h12.5h13.5h12.5
l-18 -53h-12.5h-13.5q-31 1 -60.5 -0.5t-58.5 -12.5q-11 -3 -21 -8.5t-21 -12.5q-25 -18 -40 -41.5t-18 -48.5q-1 -4 -1 -7.5v-7.5q0 -34 22 -61.5t67 -35.5q10 -1 19.5 -2.5t18.5 -1.5q68 0 126.5 41t83.5 103l53 -26v0zM491 614q-7 1 -14.5 1t-14.5 1q-15 1 -29 2t-29 2
q-13 2 -25.5 4.5t-21.5 6.5q-14 8 -25.5 23.5t-11.5 32.5q0 4 1 7.5t2 7.5q5 12 17.5 17.5t25.5 5.5q9 0 17 -2t14 -6q8 -4 16 -11t18 -17q14 -14 26.5 -30t24.5 -32q2 -3 4.5 -6.5t4.5 -6.5v0z" />
    <glyph glyph-name="Iacute" unicode="&#xcd;" horiz-adv-x="634" 
d="M749 565q-15 -43 -30 -87l-30 -88t-30 -87.5t-30 -87.5q-31 -87 -110.5 -138.5t-169.5 -68.5q-22 -4 -44 -6t-43 -2t-45.5 1.5t-50.5 5.5q-59 9 -108.5 35.5t-49.5 84.5q0 11 2.5 22.5t6.5 24.5q9 26 33 41.5t52 15.5h2h2h4h5q13 -2 25 -6.5t22 -14.5q8 -7 11 -9.5
t3 -4.5t-3.5 -5t-11.5 -8q-13 -11 -21.5 -26t-11.5 -30q0 -4 -0.5 -7t-0.5 -6q0 -18 9.5 -33.5t30.5 -23.5q9 -3 18 -4.5t17 -1.5q47 0 84.5 35t59.5 76q5 10 9.5 20t7.5 19q14 38 26.5 75.5t25.5 74.5q7 19 13.5 38t12.5 38q1 3 2 5.5t2 5.5q2 8 4.5 17t3.5 19q1 5 1.5 10
t0.5 10q0 17 -8 29t-30 12q-48 0 -88.5 -42t-48.5 -93q-1 -6 -1.5 -11.5t-0.5 -10.5q0 -10 1.5 -19.5t5.5 -18.5q9 -22 24.5 -29.5t34.5 -12.5q3 -1 6.5 -1.5t6.5 -1.5q-3 -3 -5.5 -6t-4.5 -6q-19 -20 -40 -34.5t-53 -15.5q-52 -1 -77 36.5t-25 83.5q0 17 3 32.5t9 29.5
q41 100 138.5 140t206.5 42h7.5h6.5q62 0 120.5 -9t105.5 -23v0zM712 699q2 -4 2.5 -7.5t0.5 -7.5q-1 -18 -12 -33t-25 -23q-9 -4 -21 -6.5t-26 -4.5q-14 -1 -29 -2t-29 -2q-7 -1 -14.5 -1t-14.5 -1q2 3 4.5 6.5t4.5 6.5q12 16 24.5 32t26.5 30q10 10 18.5 17t15.5 11t15 6
t17 2h2h2q12 -1 22.5 -6.5t15.5 -16.5v0z" />
    <glyph glyph-name="Icircumflex" unicode="&#xce;" horiz-adv-x="634" 
d="M749 565q-15 -43 -30 -87l-30 -88t-30 -87.5t-30 -87.5q-31 -87 -110.5 -138.5t-169.5 -68.5q-22 -4 -44 -6t-43 -2t-45.5 1.5t-50.5 5.5q-59 9 -108.5 35.5t-49.5 84.5q0 11 2.5 22.5t6.5 24.5q9 26 33 41.5t52 15.5h2h2h4h5q13 -2 25 -6.5t22 -14.5q8 -7 11 -9.5
t3 -4.5t-3.5 -5t-11.5 -8q-13 -11 -21.5 -26t-11.5 -30q0 -4 -0.5 -7t-0.5 -6q0 -18 9.5 -33.5t30.5 -23.5q9 -3 18 -4.5t17 -1.5q47 0 84.5 35t59.5 76q5 10 9.5 20t7.5 19q14 38 26.5 75.5t25.5 74.5q7 19 13.5 38t12.5 38q1 3 2 5.5t2 5.5q2 8 4.5 17t3.5 19q1 5 1.5 10
t0.5 10q0 17 -8 29t-30 12q-48 0 -88.5 -42t-48.5 -93q-1 -6 -1.5 -11.5t-0.5 -10.5q0 -10 1.5 -19.5t5.5 -18.5q9 -22 24.5 -29.5t34.5 -12.5q3 -1 6.5 -1.5t6.5 -1.5q-3 -3 -5.5 -6t-4.5 -6q-19 -20 -40 -34.5t-53 -15.5q-52 -1 -77 36.5t-25 83.5q0 17 3 32.5t9 29.5
q41 100 138.5 140t206.5 42h7.5h6.5q62 0 120.5 -9t105.5 -23v0zM717 598l-151 52l-195 -45l225 148l121 -155v0z" />
    <glyph glyph-name="Idieresis" unicode="&#xcf;" horiz-adv-x="634" 
d="M749 565q-15 -43 -30 -87l-30 -88t-30 -87.5t-30 -87.5q-31 -87 -110.5 -138.5t-169.5 -68.5q-22 -4 -44 -6t-43 -2t-45.5 1.5t-50.5 5.5q-59 9 -108.5 35.5t-49.5 84.5q0 11 2.5 22.5t6.5 24.5q9 26 33 41.5t52 15.5h2h2h4h5q13 -2 25 -6.5t22 -14.5q8 -7 11 -9.5
t3 -4.5t-3.5 -5t-11.5 -8q-13 -11 -21.5 -26t-11.5 -30q0 -4 -0.5 -7t-0.5 -6q0 -18 9.5 -33.5t30.5 -23.5q9 -3 18 -4.5t17 -1.5q47 0 84.5 35t59.5 76q5 10 9.5 20t7.5 19q14 38 26.5 75.5t25.5 74.5q7 19 13.5 38t12.5 38q1 3 2 5.5t2 5.5q2 8 4.5 17t3.5 19q1 5 1.5 10
t0.5 10q0 17 -8 29t-30 12q-48 0 -88.5 -42t-48.5 -93q-1 -6 -1.5 -11.5t-0.5 -10.5q0 -10 1.5 -19.5t5.5 -18.5q9 -22 24.5 -29.5t34.5 -12.5q3 -1 6.5 -1.5t6.5 -1.5q-3 -3 -5.5 -6t-4.5 -6q-19 -20 -40 -34.5t-53 -15.5q-52 -1 -77 36.5t-25 83.5q0 17 3 32.5t9 29.5
q41 100 138.5 140t206.5 42h7.5h6.5q62 0 120.5 -9t105.5 -23v0zM585 676q0 -24 -18 -36t-39 -14q-3 -1 -6 -1h-6q-25 0 -44 11.5t-19 39.5q0 24 19.5 36.5t43.5 13.5h2.5h2.5q14 0 26.5 -3.5t20.5 -10.5q9 -7 13 -16t4 -20v0zM739 676q0 -25 -19 -37t-41 -14h-5.5h-4.5
q-25 0 -43.5 11.5t-18.5 39.5q0 26 21.5 38t46.5 12q14 0 26 -3.5t21 -10.5q8 -7 12.5 -16t4.5 -20v0z" />
    <glyph glyph-name="Igrave" unicode="&#xcc;" horiz-adv-x="634" 
d="M749 565q-15 -43 -30 -87l-30 -88t-30 -87.5t-30 -87.5q-31 -87 -110.5 -138.5t-169.5 -68.5q-22 -4 -44 -6t-43 -2t-45.5 1.5t-50.5 5.5q-59 9 -108.5 35.5t-49.5 84.5q0 11 2.5 22.5t6.5 24.5q9 26 33 41.5t52 15.5h2h2h4h5q13 -2 25 -6.5t22 -14.5q8 -7 11 -9.5
t3 -4.5t-3.5 -5t-11.5 -8q-13 -11 -21.5 -26t-11.5 -30q0 -4 -0.5 -7t-0.5 -6q0 -18 9.5 -33.5t30.5 -23.5q9 -3 18 -4.5t17 -1.5q47 0 84.5 35t59.5 76q5 10 9.5 20t7.5 19q14 38 26.5 75.5t25.5 74.5q7 19 13.5 38t12.5 38q1 3 2 5.5t2 5.5q2 8 4.5 17t3.5 19q1 5 1.5 10
t0.5 10q0 17 -8 29t-30 12q-48 0 -88.5 -42t-48.5 -93q-1 -6 -1.5 -11.5t-0.5 -10.5q0 -10 1.5 -19.5t5.5 -18.5q9 -22 24.5 -29.5t34.5 -12.5q3 -1 6.5 -1.5t6.5 -1.5q-3 -3 -5.5 -6t-4.5 -6q-19 -20 -40 -34.5t-53 -15.5q-52 -1 -77 36.5t-25 83.5q0 17 3 32.5t9 29.5
q41 100 138.5 140t206.5 42h7.5h6.5q62 0 120.5 -9t105.5 -23v0zM611 614q-7 1 -14.5 1t-14.5 1q-14 1 -28.5 2t-29.5 2q-13 2 -25.5 4.5t-21.5 6.5q-14 8 -25.5 23.5t-11.5 32.5q0 4 1 7.5t2 7.5q5 12 17.5 17.5t25.5 5.5q9 0 17 -2t14 -6q8 -4 16 -11t18 -17
q14 -14 26.5 -30t24.5 -32q2 -3 4.5 -6.5t4.5 -6.5v0z" />
    <glyph glyph-name="Oacute" unicode="&#xd3;" horiz-adv-x="770" 
d="M804 346q0 -140 -107 -225t-236 -110q-26 -6 -52.5 -8.5t-52.5 -2.5q-13 0 -26.5 0.5t-27.5 1.5q-107 9 -196 63.5t-89 180.5q0 135 104 220t229 112q27 6 54 9t53 3q12 0 23.5 -0.5t23.5 -0.5q112 -7 206 -59.5t94 -183.5v0zM549 445q0 8 -0.5 17t-2.5 19q-4 23 -16 42
t-38 19q-45 0 -84 -43.5t-67 -96.5q-16 -31 -28 -60.5t-18 -49.5q-12 -40 -18.5 -76t-6.5 -67q0 -52 16.5 -77t41.5 -25q19 1 42.5 15t47.5 40q3 3 6 6.5t6 7.5q33 41 59.5 96.5t42.5 114.5q8 30 12.5 60t4.5 58v0zM634 696q2 -4 2.5 -7.5t0.5 -7.5q-1 -18 -12 -33t-25 -23
q-9 -4 -21 -6.5t-26 -4.5q-14 -1 -28.5 -2t-29.5 -2q-7 -1 -14.5 -1t-14.5 -1q2 3 4.5 6.5t4.5 6.5q12 16 24.5 32t26.5 30q10 10 18.5 17t15.5 11t15 6t17 2h2h2q12 -1 22.5 -6.5t15.5 -16.5v0z" />
    <glyph glyph-name="Ocircumflex" unicode="&#xd4;" horiz-adv-x="770" 
d="M804 346q0 -140 -107 -225t-236 -110q-26 -6 -52.5 -8.5t-52.5 -2.5q-13 0 -26.5 0.5t-27.5 1.5q-107 9 -196 63.5t-89 180.5q0 135 104 220t229 112q27 6 54 9t53 3q12 0 23.5 -0.5t23.5 -0.5q112 -7 206 -59.5t94 -183.5v0zM549 445q0 8 -0.5 17t-2.5 19q-4 23 -16 42
t-38 19q-45 0 -84 -43.5t-67 -96.5q-16 -31 -28 -60.5t-18 -49.5q-12 -40 -18.5 -76t-6.5 -67q0 -52 16.5 -77t41.5 -25q19 1 42.5 15t47.5 40q3 3 6 6.5t6 7.5q33 41 59.5 96.5t42.5 114.5q8 30 12.5 60t4.5 58v0zM663 589l-151 52l-195 -45l225 148l121 -155v0z" />
    <glyph glyph-name="Ograve" unicode="&#xd2;" horiz-adv-x="317" 
 />
    <glyph glyph-name="Uacute" unicode="&#xda;" horiz-adv-x="929" 
d="M1030 204q-20 -41 -44 -80.5t-61 -68.5q-25 -20 -61 -33t-75 -17q-6 0 -12.5 -0.5t-12.5 -0.5q-55 1 -99.5 27.5t-50.5 89.5q-39 -49 -100 -86t-127 -39h-3.5h-3.5q-16 0 -32.5 2.5t-32.5 8.5q-49 19 -72 59t-23 86q0 18 3 36t10 36q10 25 21.5 49t23.5 48q1 3 3 6.5
t3 6.5q14 27 26.5 54t21.5 55q4 11 6 21t2 19q0 23 -14.5 38.5t-46.5 15.5q-55 0 -94.5 -38t-44.5 -91q-1 -4 -1 -7.5v-6.5q0 -35 21.5 -44t51.5 -12q3 0 5.5 -0.5t4.5 -0.5q-3 -3 -6 -6.5t-5 -6.5q-1 -1 -2 -2.5t-2 -2.5q-2 -2 -4 -4.5t-4 -4.5q-17 -20 -35.5 -30.5
t-36.5 -13.5q-5 -1 -9.5 -1.5t-9.5 -0.5q-40 0 -70 30t-30 76q0 14 3 28t10 29q30 70 105.5 111.5t160.5 52.5q16 2 31.5 3t30.5 1q32 0 62.5 -5t56.5 -14q52 -18 83 -54.5t31 -85.5q0 -13 -2.5 -26.5t-7.5 -27.5q-10 -26 -22 -51.5t-25 -50.5q-3 -4 -5 -8l-4 -8
q-2 -5 -9.5 -18.5t-15.5 -30.5q-3 -7 -6.5 -15t-6.5 -15q-6 -15 -9.5 -29.5t-3.5 -25.5q0 -13 6 -20.5t20 -7.5t37.5 15.5t48.5 46.5q3 3 5.5 6t4.5 6q20 25 39.5 58t34.5 75q14 39 27.5 78t27.5 79q1 4 2.5 8.5t2.5 9.5q8 21 15.5 43t14.5 44h127.5h127.5
q-37 -106 -73.5 -212t-73.5 -213q0 -1 -1 -2.5t-1 -2.5q-3 -7 -5 -13t-2 -10q0 -5 4 -8t14 -3q22 0 43 21.5t37 47.5q9 15 16 29t11 24l55 -25v0zM794 685q2 -4 2.5 -7.5t0.5 -7.5q-1 -18 -12 -33t-25 -23q-9 -4 -21 -6.5t-26 -4.5q-14 -1 -29 -2t-29 -2q-7 -1 -14.5 -1
t-14.5 -1q2 3 4.5 6.5t4.5 6.5q12 16 24.5 32t26.5 30q10 10 18.5 17t15.5 11t15 6t17 2h2h2q12 -1 22.5 -6.5t15.5 -16.5v0z" />
    <glyph glyph-name="Ucircumflex" unicode="&#xdb;" horiz-adv-x="929" 
d="M1030 204q-20 -41 -44 -80.5t-61 -68.5q-25 -20 -61 -33t-75 -17q-6 0 -12.5 -0.5t-12.5 -0.5q-55 1 -99.5 27.5t-50.5 89.5q-39 -49 -100 -86t-127 -39h-3.5h-3.5q-16 0 -32.5 2.5t-32.5 8.5q-49 19 -72 59t-23 86q0 18 3 36t10 36q10 25 21.5 49t23.5 48q1 3 3 6.5
t3 6.5q14 27 26.5 54t21.5 55q4 11 6 21t2 19q0 23 -14.5 38.5t-46.5 15.5q-55 0 -94.5 -38t-44.5 -91q-1 -4 -1 -7.5v-6.5q0 -35 21.5 -44t51.5 -12q3 0 5.5 -0.5t4.5 -0.5q-3 -3 -6 -6.5t-5 -6.5q-1 -1 -2 -2.5t-2 -2.5q-2 -2 -4 -4.5t-4 -4.5q-17 -20 -35.5 -30.5
t-36.5 -13.5q-5 -1 -9.5 -1.5t-9.5 -0.5q-40 0 -70 30t-30 76q0 14 3 28t10 29q30 70 105.5 111.5t160.5 52.5q16 2 31.5 3t30.5 1q32 0 62.5 -5t56.5 -14q52 -18 83 -54.5t31 -85.5q0 -13 -2.5 -26.5t-7.5 -27.5q-10 -26 -22 -51.5t-25 -50.5q-3 -4 -5 -8l-4 -8
q-2 -5 -9.5 -18.5t-15.5 -30.5q-3 -7 -6.5 -15t-6.5 -15q-6 -15 -9.5 -29.5t-3.5 -25.5q0 -13 6 -20.5t20 -7.5t37.5 15.5t48.5 46.5q3 3 5.5 6t4.5 6q20 25 39.5 58t34.5 75q14 39 27.5 78t27.5 79q1 4 2.5 8.5t2.5 9.5q8 21 15.5 43t14.5 44h127.5h127.5
q-37 -106 -73.5 -212t-73.5 -213q0 -1 -1 -2.5t-1 -2.5q-3 -7 -5 -13t-2 -10q0 -5 4 -8t14 -3q22 0 43 21.5t37 47.5q9 15 16 29t11 24l55 -25v0zM820 589l-151 52l-195 -45l225 148l121 -155v0z" />
    <glyph glyph-name="Ugrave" unicode="&#xd9;" horiz-adv-x="929" 
d="M1030 204q-20 -41 -44 -80.5t-61 -68.5q-25 -20 -61 -33t-75 -17q-6 0 -12.5 -0.5t-12.5 -0.5q-55 1 -99.5 27.5t-50.5 89.5q-39 -49 -100 -86t-127 -39h-3.5h-3.5q-16 0 -32.5 2.5t-32.5 8.5q-49 19 -72 59t-23 86q0 18 3 36t10 36q10 25 21.5 49t23.5 48q1 3 3 6.5
t3 6.5q14 27 26.5 54t21.5 55q4 11 6 21t2 19q0 23 -14.5 38.5t-46.5 15.5q-55 0 -94.5 -38t-44.5 -91q-1 -4 -1 -7.5v-6.5q0 -35 21.5 -44t51.5 -12q3 0 5.5 -0.5t4.5 -0.5q-3 -3 -6 -6.5t-5 -6.5q-1 -1 -2 -2.5t-2 -2.5q-2 -2 -4 -4.5t-4 -4.5q-17 -20 -35.5 -30.5
t-36.5 -13.5q-5 -1 -9.5 -1.5t-9.5 -0.5q-40 0 -70 30t-30 76q0 14 3 28t10 29q30 70 105.5 111.5t160.5 52.5q16 2 31.5 3t30.5 1q32 0 62.5 -5t56.5 -14q52 -18 83 -54.5t31 -85.5q0 -13 -2.5 -26.5t-7.5 -27.5q-10 -26 -22 -51.5t-25 -50.5q-3 -4 -5 -8l-4 -8
q-2 -5 -9.5 -18.5t-15.5 -30.5q-3 -7 -6.5 -15t-6.5 -15q-6 -15 -9.5 -29.5t-3.5 -25.5q0 -13 6 -20.5t20 -7.5t37.5 15.5t48.5 46.5q3 3 5.5 6t4.5 6q20 25 39.5 58t34.5 75q14 39 27.5 78t27.5 79q1 4 2.5 8.5t2.5 9.5q8 21 15.5 43t14.5 44h127.5h127.5
q-37 -106 -73.5 -212t-73.5 -213q0 -1 -1 -2.5t-1 -2.5q-3 -7 -5 -13t-2 -10q0 -5 4 -8t14 -3q22 0 43 21.5t37 47.5q9 15 16 29t11 24l55 -25v0zM716 597q-7 1 -14.5 1t-14.5 1q-14 1 -28.5 2t-29.5 2q-13 2 -25.5 4.5t-21.5 6.5q-14 8 -25.5 23.5t-11.5 32.5q0 4 1 7.5
t2 7.5q5 12 17.5 17.5t25.5 5.5q9 0 17 -2t14 -6q8 -4 16 -11t18 -17q14 -14 26.5 -30t24.5 -32q2 -3 4.5 -6.5t4.5 -6.5v0z" />
    <glyph glyph-name="circumflex" unicode="&#x2dc;" horiz-adv-x="461" 
d="M392 595l-151 52l-195 -45l225 148l121 -155v0z" />
    <glyph glyph-name="tilde" unicode="&#x2c6;" horiz-adv-x="404" 
d="M389 715q-4 -16 -17 -32t-36 -30q-22 -15 -45.5 -22t-49.5 -7q-16 0 -36.5 4.5t-45.5 12.5q-4 1 -8 2.5t-8 2.5q-9 3 -18.5 5.5t-19.5 4.5q-6 1 -11.5 1.5t-10.5 0.5q-6 0 -12 -1t-12 -3q-5 -1 -14 -5.5t-23 -12.5q22 45 60.5 67.5t91.5 22.5q17 0 37.5 -4t43.5 -12
q3 -1 6.5 -2t6.5 -2q9 -2 18.5 -4.5t19.5 -3.5q6 -1 11.5 -1.5t11.5 -0.5q8 0 15 1t14 4q6 3 13.5 6.5t17.5 7.5v0z" />
    <glyph glyph-name="cedilla" unicode="&#xb8;" horiz-adv-x="332" 
d="M316 -102q-4 -22 -22.5 -36.5t-40.5 -22.5q-2 -1 -5 -1.5t-6 -1.5q-20 -5 -43.5 -6.5t-48.5 -1.5q-7 0 -14.5 0.5t-14.5 0.5q-23 2 -44.5 7.5t-41.5 14.5q-4 1 -9.5 3.5t-10.5 4.5q3 4 6 8.5t6 8.5q2 4 5 8l6 8q24 -7 48 -11t49 -4q8 0 19 0.5t23 1.5q17 2 31.5 7.5
t20.5 17.5v1.5t1 0.5v1.5v1.5v0.5t-1 0.5v1v0l-1.5 1.5l-1.5 1.5q-4 4 -11.5 6t-15.5 4q-15 3 -29.5 3.5t-29.5 -0.5q-11 0 -21.5 -1t-20.5 -2q-4 0 -8.5 -0.5t-8.5 -0.5q10 13 19.5 27t19.5 28q9 13 18.5 26.5t19.5 27.5l46 -24q-2 -3 -4 -5.5t-4 -5.5q-1 -1 -2 -2.5
t-2 -3.5q-3 -4 -6 -8.5t-6 -8.5q8 -1 17 -1.5t18 -1.5q8 -1 17 -2.5t17 -3.5q4 -1 9 -2.5t10 -2.5q18 -7 33.5 -19.5t15.5 -33.5v-2v-2q-1 -1 -1 -2v-2v-1z" />
    <glyph glyph-name="Scaron" unicode="&#x160;" horiz-adv-x="685" 
d="M722 462q-7 -25 -28.5 -37t-46.5 -14h-3.5h-3.5q-7 0 -13.5 1t-12.5 2q-7 2 -14 5.5t-14 7.5q-4 2 -7 4t-7 4l10.5 7t8.5 6q6 4 10 10t7 18q1 4 1.5 7.5t0.5 6.5q0 25 -24.5 38.5t-53.5 14.5h-1.5h-1.5q-25 0 -47.5 -10.5t-30.5 -33.5q-1 -4 -2 -7.5t-1 -7.5
q1 -19 15 -35t30 -29q8 -6 15 -11t13 -9t12.5 -9t13.5 -9q48 -36 88.5 -81t40.5 -111q0 -16 -3 -32.5t-9 -35.5q-29 -84 -123 -132t-201 -56q-11 -1 -22 -1.5t-22 -0.5q-61 0 -116.5 14t-96.5 42q-30 20 -47.5 50t-20.5 62q-1 3 -1 6.5v7.5q0 38 22.5 70t68.5 43q8 2 16 2.5
t16 0.5q21 0 40.5 -6.5t32.5 -22.5q6 -7 8.5 -10t2.5 -5v-0.5t-1 -1.5t-4.5 -3t-8.5 -6q-1 -1 -2.5 -2t-3.5 -2q-10 -8 -19.5 -19.5t-11.5 -24.5q-1 -8 -2.5 -16t-1.5 -15q1 -55 42 -82t92 -27h4h4q47 2 88 26t54 72q2 8 3 14.5t1 13.5q0 40 -29.5 70.5t-64.5 58.5
q-1 0 -1.5 0.5l-1.5 1.5l-1.5 1.5t-1.5 0.5q-42 33 -77 70.5t-35 92.5q1 14 3.5 28t7.5 30q19 56 80 86t129 39q17 2 33 3t32 1q20 -1 39.5 -2.5t35.5 -4.5q7 -1 14 -3l14 -4q36 -12 66 -34.5t29 -61.5q0 -5 -0.5 -11t-2.5 -13v0zM783 729l-226 -149l-121 156l152 -52
l195 45v0z" />
    <glyph glyph-name="scaron" unicode="&#x161;" horiz-adv-x="419" 
d="M403 175q5 -83 -54 -126.5t-130 -50.5q-9 -1 -17.5 -1.5t-16.5 -0.5q-10 0 -21 0.5t-22 2.5q-29 3 -56.5 14t-47.5 32q-14 17 -20.5 36t-6.5 39q0 11 1.5 22t4.5 22q7 26 28 40.5t46 13.5h5.5h4.5t4.5 -0.5t5.5 -1.5l89 124l189 48q3 -53 6.5 -106.5t7.5 -106.5v0z
M218 263l-60 -80q6 -8 8.5 -17.5t2.5 -19.5t-3 -19t-9 -17q-10 -15 -27 -23.5t-35 -8.5h-2.5h-2.5t-2.5 0.5t-2.5 0.5q7 -10 18 -17.5t24 -7.5q41 0 65.5 22t24.5 65q1 31 1 61.5v60.5v0zM506 523l-226 -149l-121 156l152 -52l195 45v0z" />
    <glyph glyph-name="Zcaron" unicode="&#x17d;" 
 />
    <glyph glyph-name="zcaron" unicode="&#x17e;" 
 />
    <glyph glyph-name="brokenbar" unicode="&#xa6;" 
 />
    <glyph glyph-name="Eth" unicode="&#xd0;" horiz-adv-x="1062" 
d="M1020 214q-44 -106 -143 -156t-210 -56q-8 -1 -16.5 -1h-17.5q-33 0 -65.5 3.5t-62.5 10.5q-19 4 -35 9t-30 10q-9 -4 -18.5 -8t-19.5 -9q-34 -13 -75 -22t-84 -12q-8 0 -16 -0.5t-16 -0.5q-37 0 -71.5 7t-63.5 22q-25 14 -39 32t-16 37q-1 2 -1 4.5v4.5q0 27 22 49.5
t65 31.5q14 3 28 4.5t29 1.5q9 0 17.5 -0.5t17.5 -1.5q23 -3 46 -9t43 -15q9 27 22.5 66t28.5 84h-67l20 46h62l64 181q1 1 1.5 2.5t0.5 2.5q1 3 2 5.5t2 5.5l2 8t1 8q0 9 -6 18.5t-22 19.5h48.5h44.5h37.5h40.5h12h12q91 0 174.5 -6.5t160.5 -47.5q63 -33 90.5 -86.5
t27.5 -113.5q0 -11 -1 -21.5t-2 -21.5q-3 -22 -9 -43.5t-15 -42.5v0zM259 101q-17 5 -36 9t-39 5q-5 1 -9.5 1h-9.5q-13 0 -26.5 -2t-26.5 -7q-11 -5 -19 -12t-11 -16q0 -1 -0.5 -2l-0.5 -1v-2v-2q0 -10 10 -15t22 -7q7 -2 14 -2.5t12 -0.5h9.5t9.5 1q29 3 55.5 17.5
t45.5 35.5v0zM807 515q-7 17 -20 24.5t-28 7.5q-3 0 -6 -0.5t-5 -0.5q-12 -2 -23 -8.5t-21 -15.5q-17 -16 -34.5 -48t-36.5 -84q-2 -8 -4.5 -16.5t-5.5 -16.5q-1 -3 -2 -5.5t-2 -5.5h53l-19 -46h-50q-13 -37 -25.5 -74.5t-26.5 -75.5q-7 -21 -19 -39t-28 -34q14 -4 28 -6.5
t27 -2.5q71 0 124 56t85 123q8 17 15 34.5t12 33.5q7 22 14 50.5t9 57.5q0 6 0.5 12.5t0.5 12.5q0 18 -3 35t-9 32v0z" />
    <glyph glyph-name="eth" unicode="&#xf0;" horiz-adv-x="588" 
d="M610 325q0 -71 -25.5 -131t-75.5 -108q-50 -47 -116 -70.5t-148 -24.5q-49 0 -87.5 11.5t-68.5 35.5q-29 24 -44 55t-15 68q0 55 23.5 98t71.5 74q47 31 107.5 46t134.5 16h8t8 -1q15 -1 30.5 -5t29.5 -11q3 10 4.5 18t2.5 14q0 29 -4.5 51.5t-14.5 41.5l-82 -44l-8 48
l64 33q-16 15 -37.5 22.5t-47.5 7.5l20 56q41 0 77 -11t67 -33l10.5 5.5t23.5 11.5q13 7 23.5 12.5l10.5 5.5v-49l-31 -18q3 -2 5.5 -5t4.5 -6q39 -43 58.5 -96.5t20.5 -117.5v0zM410 254q0 19 -3 34t-11 26q-6 12 -16.5 17.5t-24.5 5.5q-30 0 -57 -18.5t-52 -56.5
q-25 -37 -37 -73.5t-12 -72.5q0 -38 15 -57.5t46 -19.5q29 0 54.5 18t49.5 53q23 36 35 72t13 72v0z" />
    <glyph glyph-name="Yacute" unicode="&#xdd;" horiz-adv-x="317" 
 />
    <glyph glyph-name="yacute" unicode="&#xfd;" horiz-adv-x="317" 
 />
    <glyph glyph-name="Thorn" unicode="&#xde;" horiz-adv-x="845" 
d="M883 301q-24 -70 -91 -101.5t-142 -40.5q-20 -2 -40 -3t-39 -1t-38 1.5t-36 2.5q-7 -19 -9 -25.5t-3 -9.5q-2 -4 -4 -10.5t-9 -25.5q-13 -40 -60 -61.5t-101 -25.5q-6 -1 -12.5 -1h-12.5q-31 0 -58.5 6t-47.5 17q-3 2 -5.5 3t-4.5 3q-3 1 -5.5 2.5t-5.5 2.5l6 6l6 6
q15 16 27.5 33.5t20.5 39.5l107 304q-10 -3 -20.5 -7.5t-21.5 -9.5q-39 -20 -73.5 -50t-45.5 -66q-2 -9 -3.5 -16t-1.5 -13q0 -13 6 -21.5t17 -16.5q6 -4 12.5 -7.5t14.5 -8.5q-22 -26 -47 -42.5t-63 -14.5q-45 2 -68.5 29.5t-23.5 64.5q0 14 3.5 28.5t9.5 28.5q20 45 69 83
t118 66q32 14 68.5 24t74.5 17q2 9 3.5 17t1.5 15q-1 13 -3.5 24.5t-5.5 22.5q3 1 6.5 2.5t7.5 2.5q4 2 7.5 3.5t6.5 2.5q17 7 35 11.5t36 7.5q12 2 24 3t24 1q54 0 93 -19.5t39 -59.5q0 -1 -0.5 -2t-0.5 -2v-2v-2q-1 -1 -1.5 -2.5t-0.5 -2.5l-1.5 -3t-0.5 -3
q76 -5 128 -18.5t83 -33.5q32 -20 46.5 -45t14.5 -55q0 -13 -2.5 -26t-7.5 -27v0zM724 367q5 11 7.5 21.5t2.5 18.5q0 20 -15 31t-45 11q-42 0 -69 -27.5t-39 -65.5q-13 -35 -25.5 -71t-24.5 -72q80 8 128 43.5t80 110.5v0z" />
    <glyph glyph-name="thorn" unicode="&#xfe;" horiz-adv-x="595" 
d="M679 173q-37 -76 -88.5 -129t-144.5 -53q-6 0 -12.5 0.5t-12.5 0.5q-25 3 -48 11.5t-38 28.5q-10 14 -14 29t-4 31v8t1 9q2 18 7.5 36.5t11.5 35.5q1 2 1.5 3.5t1.5 3.5q1 3 4 9.5t6 14.5q2 5 3.5 9.5t3.5 9.5q2 7 3 14t1 13q0 8 -3.5 13t-11.5 5q-20 0 -39 -23t-33 -51
q-10 -19 -17.5 -37t-10.5 -28q-16 -46 -32.5 -91.5t-31.5 -91.5q-4 -9 -7 -18.5t-6 -18.5q-13 -37 -25.5 -73.5t-25.5 -73.5l-187 -1q31 86 68 194t76 221t76.5 222t67.5 194h187l-95 -271q23 12 52.5 21t59.5 11h5.5h5.5q29 0 56 -9.5t46 -31.5q13 -14 18.5 -30.5
t5.5 -33.5q0 -10 -1.5 -19.5t-5.5 -19.5q-3 -10 -6.5 -20.5t-7.5 -21.5q-1 -3 -2.5 -6.5t-2.5 -7.5q-2 -7 -4.5 -14t-4.5 -14l-2 -4t-2 -5q-1 -2 -1.5 -4.5t-1.5 -5.5t-1.5 -6t-0.5 -6q0 -5 2.5 -8.5t9.5 -3.5q5 0 10 1.5t10 3.5q14 7 27 20t24 27q7 11 13 21t9 17l2 4l2 4
l2 4l2 4l50 -23v0z" />
    <glyph glyph-name="multiply" unicode="&#xd7;" 
 />
    <glyph glyph-name="onesuperior" unicode="&#xb9;" 
 />
    <glyph glyph-name="twosuperior" unicode="&#xb2;" 
 />
    <glyph glyph-name="threesuperior" unicode="&#xb3;" 
 />
    <glyph glyph-name="onehalf" unicode="&#xbd;" 
 />
    <glyph glyph-name="onequarter" unicode="&#xbc;" 
 />
    <glyph glyph-name="threequarters" unicode="&#xbe;" 
 />
    <glyph glyph-name="endash" unicode="&#x2013;" horiz-adv-x="339" 
d="M338 267h-331v91h331v-91v0z" />
    <glyph glyph-name="sfthyphen" unicode="&#xad;" 
 />
    <glyph glyph-name="filledbox" unicode="&#x25a0;" 
 />
    <glyph glyph-name="bullet" unicode="&#x2022;" horiz-adv-x="359" 
d="M331 297q0 -61 -43 -104.5t-105 -43.5q-61 0 -105 43.5t-44 104.5q0 62 44 105.5t105 43.5q62 0 105 -43.5t43 -105.5v0z" />
    <glyph glyph-name="overstore" unicode="&#xaf;" horiz-adv-x="317" 
 />
    <glyph glyph-name="degree" unicode="&#xb0;" 
 />
    <glyph glyph-name="middot" unicode="&#xb7;" horiz-adv-x="317" 
 />
    <glyph glyph-name="invcircle" unicode="&#x25d9;" horiz-adv-x="317" 
 />
    <glyph glyph-name="Rcaron" unicode="&#x158;" horiz-adv-x="317" 
 />
    <glyph glyph-name="Ncaron" unicode="&#x147;" horiz-adv-x="317" 
 />
    <glyph glyph-name="2510" unicode="&#x2510;" horiz-adv-x="317" 
 />
  </font>
</defs>
</svg>
